<?xml version="1.0" encoding="UTF-8"?>
<svg id="Layer_1" data-name="Layer 1" xmlns="http://www.w3.org/2000/svg" viewBox="0 0 1024 1024">
  <defs>
    <style>
      .cls-1 {
        fill: #9bddf4;
      }

      .cls-2 {
        fill: #06733e;
      }

      .cls-3 {
        fill: #01814a;
      }

      .cls-4 {
        fill: #0d8fd1;
      }

      .cls-5 {
        fill: #2eb6e5;
      }

      .cls-6 {
        fill: #78de5e;
      }

      .cls-7 {
        fill: #5ecc53;
      }

      .cls-8 {
        fill: #fbfdfe;
      }

      .cls-9 {
        fill: #3fd1f4;
      }

      .cls-10 {
        fill: #01478d;
      }

      .cls-11 {
        fill: #033279;
      }

      .cls-12 {
        fill: #047945;
      }
    </style>
  </defs>
  <path class="cls-10" d="M627.5,862c-.63,1.02-4.77,1.39-5.66.51-.27-.28-14.86-.7-32.42-.95s-34.17-.92-36.92-1.49c-2.75-.56-19.62-1.71-37.5-2.54-17.88-.83-37-1.96-42.5-2.51-5.5-.54-19.67-1.5-31.5-2.12-11.83-.61-21.85-1.33-22.28-1.59s-14.38-1.11-31-1.9c-58.79-2.78-68.39-3.41-84.22-5.46-8.8-1.15-25.51-2.45-37.14-2.89-11.63-.45-21.54-1.05-22.02-1.35-.49-.3-8.07-1.05-16.86-1.66-8.79-.61-20.93-1.76-26.98-2.55-6.05-.78-15.05-1.68-20-1.99s-13.95-1.21-20-1.99c-6.05-.79-15.05-1.89-20-2.46-5.1-.59-13.33-2.51-19-4.45-11.24-3.84-11.9-4.89-6.2-9.96,5.63-5,10.83-6.62,22.76-7.07,5.97-.23,11.26-.66,11.74-.96.97-.6,84.33-2.19,104.7-2,29.11.28,98.4,1.97,101.13,2.46.48.09,3.79.07,7.37-.03l6.5-.18-5.5-2.02c-8.71-3.19-19.98-7.84-26.5-10.92-3.3-1.56-9.83-4.48-14.5-6.5-10.58-4.57-21.65-10.06-38.83-19.28-7.34-3.93-13.82-7.15-14.42-7.15s-4.5-2.65-8.69-5.9c-4.2-3.24-9.33-6.6-11.4-7.47-2.08-.87-6.12-3.57-8.97-6-2.85-2.43-6.97-5.15-9.14-6.06-3.95-1.64-16.33-11.14-22.11-16.98-1.69-1.7-7.05-6.47-11.92-10.59-14.08-11.92-19.95-17-21.02-18.21-.55-.61-7.2-7.38-14.78-15.03-7.58-7.66-15.52-16.28-17.66-19.18-2.13-2.89-5.21-6.37-6.84-7.74-1.63-1.38-3.55-3.59-4.26-4.92-2.27-4.26-7.11-9.75-10.96-12.42-2.17-1.51-4.5-4.35-5.57-6.79-1.78-4.08-5.73-9.76-10.02-14.4-1.16-1.25-4.26-5.92-6.9-10.39-2.64-4.47-6.53-10.13-8.65-12.59-2.12-2.45-3.86-5.15-3.86-6,0-1.9-4.08-9.33-5.12-9.33-.41,0-1.06-1.01-1.44-2.25-.39-1.24-1.48-3.37-2.43-4.75-.94-1.38-2-3.66-2.34-5.08-.34-1.43-1.98-4.3-3.65-6.39-2.01-2.53-3.02-4.93-3.02-7.17,0-5.1,3.03-4.41,8.19,1.87,7.48,9.09,23.04,23.95,29.8,28.47,3.58,2.39,9.66,7.03,13.51,10.31,3.85,3.28,8.46,6.46,10.25,7.06,1.79.59,3.25,1.45,3.25,1.89,0,1.1,15.65,11.5,20.25,13.45,8.01,3.4,10.42,4.76,15.25,8.6,2.75,2.19,5.64,3.98,6.42,3.98.78.01,4.28,1.59,7.78,3.51s6.99,3.5,7.74,3.5,6.21,2.03,12.11,4.5c5.91,2.47,10.95,4.5,11.2,4.5s-1.84-2.51-4.65-5.58c-2.8-3.07-5.1-6-5.1-6.51,0-1.37-12.49-13.6-20.27-19.85-4.6-3.7-7.03-6.42-7.57-8.5-.47-1.8-1.45-3.07-2.4-3.07-2.66-.02-19.17-18.36-22.56-25.06-1.13-2.24-3.93-6.44-6.23-9.35-2.29-2.9-5.33-7.82-6.74-10.93-1.42-3.11-3.82-7.23-5.34-9.15s-3.09-4.85-3.5-6.5c-.95-3.89-11.99-26.07-15.01-30.15-2.69-3.63-6.38-12.52-6.38-15.35,0-1.06-.74-3.48-1.64-5.38-1.77-3.71-1.13-8.73.7-5.47.51.9,2.32,5.63,4.04,10.5,3.58,10.19,18.43,41.16,25.26,52.68,2.55,4.31,4.64,8.02,4.64,8.24,0,.48,7.31,12.05,13.86,21.93,9.1,13.72,18.45,22.49,20.35,19.08.49-.87,1.35-1.58,1.91-1.58,2.03,0,3.55-2.62,5.22-9,1.93-7.34,1.82-14.89-.23-17.37-1.25-1.51-1.16-1.57,1-.65,1.32.57,3.63,1.52,5.14,2.12,1.51.6,2.75,1.46,2.75,1.9s3.49,2.25,7.75,4.01,9.32,4.03,11.25,5.05c8.99,4.73,32.95,10.85,48.55,12.39l6.04.6,1.92-4.27c1.06-2.36,1.83-4.61,1.71-5.01-.29-1.01,3.2-9.7,7.73-19.27,2.08-4.4,4.52-9.71,5.43-11.8.9-2.1,2.02-3.57,2.48-3.29,1.19.74,10.14-17.66,10.14-20.86,0-.77-1.08-1.04-3-.76-1.8.26-3,0-3-.68,0-.61.79-1.13,1.75-1.16.96-.02-3.38-1.36-9.64-2.96-6.27-1.61-15.04-4.1-19.5-5.53-4.46-1.44-8.65-2.78-9.31-2.99-.71-.22-.97.24-.63,1.11.48,1.26.17,1.3-2.05.29-1.44-.65-2.62-1.62-2.62-2.14s-.66-.69-1.47-.38-2.12-.08-2.91-.87c-.79-.8-3.53-2.15-6.09-3.02-4.33-1.47-9.81-5.46-7.5-5.46.57,0,3.24,1.12,5.93,2.48,2.69,1.36,6.72,3.11,8.96,3.88l4.06,1.4-.62-2.63c-.34-1.45-1.22-4.4-1.94-6.56-.72-2.17-1.08-4.3-.81-4.75,1.02-1.65,3.26-.76,3.57,1.43.18,1.24.34-9.45.37-23.75.05-27.17,1.14-37.42,5.4-50.42,1-3.07,2.83-8.71,4.06-12.53,1.24-3.82,3.84-9.89,5.8-13.5,4.5-8.3,15.29-23.96,18.31-26.56l2.3-1.99-1.81,2.87c-1,1.58-1.42,2.63-.93,2.33.5-.31.71,7.79.48,18.96-.7,33.97,2.95,55.53,14.59,86.34,5.05,13.36,14.02,31.26,15.27,30.49.53-.33.7.09.37.93-.33.87,1.28,4.55,3.76,8.56,6.4,10.34,19.22,27.52,20.54,27.52.63,0,1.52.41,1.98.91.48.53.31.61-.42.19-.69-.39-1.25-.26-1.25.29,0,1.3,22.93,25.11,24.18,25.11.51,0,.62-.52.22-1.15-.44-.73-.27-.89.46-.44.65.4.96,1.08.69,1.51-.47.76,2.97,4.28,6.95,7.1,1.47,1.04,1.34.66-.5-1.43l-2.5-2.84,3.25,1.65c3.72,1.89,4.18.91,1.76-3.73-2.04-3.91-5.24-15.16-6.03-21.17-.98-7.43-1.2-8.53-2.91-14.12-.86-2.81-1.57-6.19-1.57-7.5s-.25-4.41-.54-6.88l-.54-4.5,3.29,5.3c1.81,2.92,5.43,8.32,8.05,12s4.55,7.25,4.29,7.93c-.26.69-.05,1.14.47,1.01.53-.13,5.59,4.93,11.25,11.26,33.62,37.54,81.03,63.05,131.23,70.62,18,2.71,54.23,2.46,72.5-.51,12.04-1.95,17.48-3.06,23.27-4.74,1.51-.44,1.37.21-.89,4.31-1.47,2.65-4.07,6.8-5.78,9.22-2.18,3.1-2.72,4.53-1.81,4.85,1.53.53-.14,2.12-10.33,9.84-5.82,4.41-21.97,12.86-39.18,20.48l-3.21,1.43,9.82,12c17.98,21.94,39.85,41.48,71.64,64,24.07,17.05,41.59,27.63,65.72,39.71,18.84,9.43,24.96,12.95,15.25,8.79-2.47-1.06-4.5-1.76-4.5-1.56s-3.9-1.16-8.67-3.04c-4.77-1.87-9.06-3.4-9.52-3.4s-3.66-1.31-7.08-2.91c-3.43-1.6-9.21-4.05-12.85-5.44-8.19-3.14-43.17-19.62-51.61-24.33-3.42-1.9-6.75-3.14-7.4-2.74-.7.43-.91.3-.53-.32.95-1.55-2.52-2.55-3.6-1.04-.67.92-.77.79-.37-.45.75-2.35-3.18-4.6-4.59-2.62-.74,1.03-.84.94-.41-.38.63-1.97-2.71-4.3-4.55-3.16-.66.41-.85.25-.47-.37.37-.59-1.01-2.1-3.09-3.37-2.07-1.27-8.16-5.38-13.53-9.13-11.38-7.94-13.01-8.76-12.15-6.1.49,1.48.4,1.57-.42.41-.57-.8-.82-1.79-.57-2.2.25-.4-2.84-3.18-6.88-6.16-8.76-6.48-30.43-24.5-33.11-27.54-1.05-1.18-2.37-2.15-2.93-2.15s.04,1.12,1.33,2.5c1.29,1.37,2.09,2.74,1.78,3.05-.65.66-5.14-5.37-5.42-7.28-.1-.71-5.29-6.63-11.52-13.16-8.59-8.98-11.42-11.41-11.66-9.99-.17,1.03.61,3.18,1.75,4.78,1.14,1.6,2.07,3.67,2.07,4.6s.9,2.83,2,4.23c1.1,1.4,2,3.15,2,3.89,0,2.32,8.33,15.38,9.81,15.38.79,0,1.17.61.87,1.4-.33.84.25,1.61,1.45,1.92,1.1.29,1.87,1.12,1.71,1.85-.41,1.95,2.94,6.54,5.21,7.13,1.21.32,1.74,1.07,1.4,1.98-.36.92.21,1.66,1.56,2.01,1.35.35,2,1.21,1.8,2.36-.18,1.07.3,1.82,1.19,1.83.83.01,1.5.92,1.5,2.01s.79,2.14,1.83,2.33c1.08.21,1.6.92,1.28,1.76-.34.87.62,2,2.51,2.98,1.93,1,2.84,2.1,2.49,3.02-.35.9.73,2.27,2.9,3.68,1.89,1.23,3.87,3.45,4.39,4.93.53,1.47,2.24,3.35,3.82,4.16,1.57.82,6.44,5.13,10.82,9.58,14.09,14.33,15.94,16.08,16.97,16.08.55-.01,1.57.89,2.26,1.99.68,1.1,1.9,2,2.7,2s1.94.9,2.53,2,1.71,2,2.49,2,1.77.6,2.21,1.32c.44.73,2.36,2.42,4.26,3.75,1.91,1.34,4.6,3.44,5.99,4.68s3.1,2.25,3.79,2.25,1.26.45,1.26,1,.43,1,.95,1,2.07,1.04,3.44,2.31,4.2,3.19,6.28,4.25c2.07,1.07,4.68,2.74,5.78,3.73,1.11.98,3.03,2.04,4.28,2.36,1.25.31,2.27.94,2.27,1.39s.99,1.14,2.2,1.52c1.22.39,2.82,1.32,3.57,2.07.76.75,2.02,1.37,2.8,1.37s1.43.47,1.43,1.04,1.91,1.94,4.25,3.06c6.6,3.14,18.35,9.83,17.34,9.87-1.04.03-28.81-14.39-32.59-16.93-5.16-3.47-12.24-7.24-11.57-6.16.86,1.4.01,1.43-2.5.08-1.52-.81-1.93-.7-1.93.5,0,.85-.67,1.54-1.5,1.54s-1.5.45-1.5,1-.75,1-1.67,1-2.51.76-3.54,1.69c-1.39,1.26-1.73,1.32-1.32.25.78-2.05-7.91-2.54-10.85-.61-2.34,1.53-10.24,1.71-12.48.28-1.29-.82-2.44.14-3.49,2.89-.21.55-1.49-.02-2.84-1.26l-2.47-2.27-2.34,2.03c-2.32,2.01-2.32,2.05-.38,3.77,1.08.95,2.61,1.88,3.41,2.06.8.18,1.69.72,1.99,1.21.3.48,2.1,1.58,4.01,2.45l3.47,1.57-3.5-.65c-1.92-.36-12.95-3.91-24.5-7.89-46.43-16-81.55-31.06-132.5-56.84-27.33-13.83-39.49-20.52-38.71-21.3.23-.23,4.19.47,8.81,1.55,11.74,2.74,23.45,4.27,29.79,3.89l5.38-.32,6.21-21.5c3.42-11.83,6.46-22.17,6.76-23,.3-.83,1.09-4.2,1.76-7.5s1.58-6.45,2.02-7,1.12-2.69,1.5-4.75c.68-3.61.59-3.75-2.16-3.85q-2.85-.1-.36-.85c2.38-.72,2.33-.78-1-1.33-1.92-.31-6.88-1.12-11-1.8s-9.67-1.23-12.32-1.23c-3.28.01-4.4-.28-3.5-.92.88-.63.16-.77-2.18-.42-1.92.28-2.86.26-2.07-.06.79-.32-5.73-2.99-14.5-5.94-8.76-2.94-18.11-6.28-20.78-7.42-2.66-1.14-5.5-1.82-6.3-1.51-.8.31-1.2.14-.89-.36.95-1.54-3.6-2.43-4.68-.92-.73,1.03-.83.93-.4-.42.83-2.55-5.99-5.88-7.52-3.68-.88,1.27-.96,1.26-.59-.04.26-.92-1.17-2.57-3.67-4.25-4.66-3.12-5.79-3.4-4.96-1.24.42,1.08.12,1.34-1.03.89-.97-.37-1.61-.1-1.61.68,0,2.33-10.14,23.88-11.25,23.9-.41.01-.75.69-.75,1.52s-.45,1.5-1,1.5-1,.67-1,1.5-.34,1.5-.75,1.51c-.41,0-1.87,1.67-3.25,3.7-1.38,2.04-5.93,7.31-10.13,11.72-4.2,4.41-7.45,8.48-7.22,9.04.85,2.14,28.05,18.94,39.85,24.62,4.8,2.31,4.88,2.42,2.1,2.74-7.28.83-31.17-10.92-69.1-33.99-11.75-7.15-36.66-20.77-65.69-35.93-79.2-41.33-96.57-52.39-128.88-82.01-7.22-6.62-13.37-11.79-13.67-11.5-1.25,1.25,22.46,40.87,35.06,58.6,3.33,4.67,11.25,14.95,17.61,22.84,6.36,7.88,12.45,15.53,13.52,17,4.9,6.67,32.09,34.29,44.89,45.61,43.03,38.02,86.46,66.33,141.74,92.39,7.31,3.44,36.5,14.95,44.65,17.6,4.3,1.4,5.18,2.08,5,3.84-.2,1.84.45,2.24,4.58,2.86,2.64.39,5.43,1.23,6.2,1.87.77.64,1.87.87,2.45.52.57-.36,1.04-.23,1.04.29,0,1.17,3.41,2.54,13,5.21,10.38,2.9,12.94,3.49,25.5,5.92,6.05,1.18,12.8,2.87,15,3.76,2.2.89,5.58,1.73,7.5,1.86,5.46.38,10.44,1.54,11.08,2.56.63,1.02,9.07,2.87,15.42,3.38,3.7.29,5.11.53,11.19,1.87,1.2.26,3.07.96,4.15,1.54,1.09.58,4.15,1.3,6.82,1.6,7.02.79,21.71,3.29,30.11,5.13,4,.88,8.61,1.32,10.25,1,1.63-.33,5.34-.14,8.23.43,2.89.56,7.16,1.19,9.5,1.4,10.87.96,15.9,1.95,18.71,3.66,3.2,1.95,10.12,2.61,9.04.86-1.02-1.65,3.87-1.13,6.46.69,1.71,1.2,2.53,1.34,2.81.5.48-1.45,3.87-1.58,4.73-.19.34.55,1.63,1,2.86,1s2.75.51,3.38,1.14c.86.86,1.93.82,4.3-.16,1.83-.75,3.42-.92,3.8-.39.36.5,5.83,1.06,12.16,1.24,12.41.36,18.05,2.17,6.76,2.17-3.65,0-6.92.45-7.26,1ZM150.5,439c.98,1.59-2.45,1.04-9.94-1.57-3.82-1.34-7.67-2.43-8.54-2.43s-3.34-.89-5.48-1.98c-2.13-1.09-5.49-2.5-7.46-3.13-5.79-1.88-19.41-8.62-23.75-11.77-2.21-1.6-5.55-3.7-7.43-4.66-1.87-.97-5.2-3.2-7.4-4.97-2.2-1.76-6.25-4.47-9-6.01-2.75-1.54-6.8-4.48-9-6.53-2.2-2.06-5.8-4.64-8-5.74-4.45-2.22-6.95-4.68-7.88-7.75-.7-2.3,3.62-6.9,11.21-11.96,5.31-3.53,17.77-17.03,21.17-22.93,3.11-5.38,11.09-17.06,14.39-21.07l2.48-3,5.31,2.91c7.61,4.16,19.42,12.22,25.82,17.61,3.02,2.55,7.03,5.16,8.89,5.81,1.87.64,5.69,2.68,8.5,4.54,2.81,1.86,7.94,4.8,11.4,6.54,6.66,3.34,7.83,6.21,1.44,3.54-2.01-.84-3.9-1.9-4.19-2.36-.77-1.19-12.02-6.68-15.32-7.47-1.53-.37-3.55-1.56-4.48-2.65-.92-1.08-2.5-1.97-3.49-1.97s-2.07-.67-2.39-1.5c-.31-.83-1.43-1.5-2.47-1.5s-1.89-.48-1.89-1.06-.38-.82-.85-.53c-.47.28-1.8-.36-2.96-1.44-1.16-1.09-2.58-1.97-3.15-1.97s-1.04-.46-1.04-1.02-1.24-1.57-2.75-2.23-3.48-2-4.37-2.98c-.89-.97-2.06-1.77-2.59-1.77s-2.07-.95-3.39-2.12c-5.02-4.41-6.73-5.2-8.18-3.73-.73.74-1.61,2.09-1.96,3-.69,1.83-10.44,16.95-13.39,20.77-3.01,3.89-24.5,25.08-25.44,25.08-.47,0-1.36.94-1.98,2.09-1.44,2.69.19,4.51,13.55,15.19,5.5,4.4,10.15,8.38,10.33,8.86.19.47.97.86,1.75.86s1.42.45,1.42,1,.46,1,1.02,1c.87,0,11.59,6.6,12.98,8,.97.97,22.55,11.73,26,12.96,4.46,1.58,8.03,3.04,10.24,4.16.95.48,2.3.9,3,.91.69.02,3.06.91,5.26,1.97s4.79,1.95,5.75,1.97c.96.01,1.75.48,1.75,1.03s1.32,1,2.94,1,3.22.45,3.56,1ZM220.71,319.75c-1.15,1.5-4.3,1.51-7.71.02-25.2-10.99-36.25-16.54-45.68-22.93-2.3-1.56-4.88-2.84-5.74-2.84s-2.13-.94-2.82-2.09c-1.55-2.58-18.53-15.91-20.27-15.91-.69,0-2.77-1.73-4.62-3.84-4.84-5.51-6.09-6.85-8.62-9.13-2.19-1.98-3.16-5.53-1.33-4.86.5.18,4.46,3.71,8.79,7.83,10.27,9.79,16.69,15.32,21.71,18.73,2.24,1.52,4.88,3.49,5.85,4.36s2.99,2.22,4.48,3c1.5.78,3.51,2.08,4.48,2.91,4.28,3.64,24.98,14.09,37.27,18.8,12.25,4.71,12.31,4.71,13.65,1.76.65-1.41,1.6-2.56,2.12-2.56s.69-.66.38-1.47c-.31-.81.16-2.19,1.04-3.08.88-.88,1.73-2.74,1.88-4.13.15-1.39,1.21-3.39,2.34-4.45,1.14-1.06,2.35-3.04,2.69-4.4.34-1.36,1.02-2.47,1.52-2.47s-.84,3.49-2.96,7.75c-2.13,4.26-4.68,10-5.68,12.75-1.01,2.75-2.25,5.56-2.77,6.25ZM328.88,598.12c3.1,3.09,4.63,3.88,7.54,3.88,7.71,0,12.23-6.73,9.03-13.46-.92-1.95-2.1-3.54-2.62-3.54s-.61.56-.2,1.25c.51.85.21.81-.94-.12-1.83-1.49-2.32-2.64-.69-1.63.55.34,1,.21,1-.28,0-1.32-4.67-3.22-7.92-3.22-2.76,0-5.96,2.37-4.37,3.24.43.24.24.3-.43.14-1.79-.43-4.28,3.62-4.28,6.96,0,2.03,1.16,4.06,3.88,6.78ZM503.24,753.88c3.71,2.37,5.94,2.61,9.08.98,3.63-1.88,5.21-4.17,5.52-8,.24-3.01-.27-4.17-3.02-6.8-2.91-2.78-3.8-3.09-7.24-2.57-8.85,1.33-11.6,11.74-4.34,16.39ZM173.19,507.7c-1.81,2.31-4.95,5.5-6.99,7.08-3.37,2.62-3.84,2.73-5.31,1.3-.89-.87-5.39-4.35-10-7.74-17.21-12.65-44.74-36.83-43.42-38.14.84-.84,8.53,4.98,12.37,9.38,4.62,5.28,17.71,16.6,21.66,18.73,1.65.89,5.48,3.88,8.5,6.63,3.02,2.76,6.95,5.72,8.73,6.57,2.94,1.43,3.51,1.42,6.5-.09,1.8-.91,4.55-2.83,6.12-4.28,3.23-2.98,15.08-19.43,18.66-25.89,1.3-2.34,2.95-4.25,3.67-4.25,1.82,0,1.71.36-1.58,5.22-1.59,2.35-4.58,6.89-6.63,10.09-2.06,3.2-4.93,7.02-6.37,8.5-1.45,1.48-4.11,4.58-5.91,6.89ZM256.61,640.83c3.44,3.18,9.57,4.05,11.58,1.66.72-.86,1.87-2.19,2.56-2.95,2.64-2.95.67-9.57-3.41-11.43-3.27-1.49-8.56-1.4-10.72.18-.98.71-2.01,3.18-2.33,5.58-.51,3.83-.26,4.59,2.32,6.96ZM917.5,865.8c-14.3.08-38.83.33-54.5.56-15.67.23-29.85.08-31.5-.32-3.64-.91,89.1-1.78,102.5-.97,5.99.37-.1.63-16.5.73ZM235.38,407.5c-.33,11.55-1,21.43-1.49,21.95-1.01,1.08-1.44-7.83-1.11-22.95.26-11.46,3.16-31.65,4.44-30.86.47.29.55,1.5.16,2.69-1.13,3.5-1.38,7.02-2,29.17ZM73.1,259.61c-2.06,3.37-4.22,4.29-8.1,3.44-8.41-1.85-11.34-10.28-5.25-15.07,2.5-1.96,7.88-2.82,6.81-1.07-.31.49-1.35.7-2.31.44-1.17-.3-2.34.54-3.5,2.5-3.5,5.93-1.16,11.15,5,11.15,5.45,0,6.25-.77,6.25-6.05,0-3.86-.45-5.15-2.22-6.39-1.22-.86-1.71-1.56-1.09-1.56,1.61,0,6.31,5.83,6.31,7.83-.01.92-.86,3.07-1.9,4.78ZM675,863c3.03.97-7.58,1-16,.05-4.08-.46-4.86-.77-3-1.2,1.38-.32-1.1-.7-5.5-.85l-8-.26,7-.88c4.39-.55,11.48-.48,19,.2,16.04,1.44,17.02,1.63,10,1.9-4.64.19-5.43.42-3.5,1.04ZM242.9,353.57c-1.32,5.87-2.9,8.14-2.9,4.15,0-2.74,10.34-35,12.37-38.61,1.61-2.85,3.25-1.14,1.69,1.77-1.84,3.44-9.9,27.03-11.16,32.69ZM245.32,485.6c-1.4,3.67-3.07.53-5.68-10.69-2.51-10.82-2.81-14.41-1.06-12.66.32.31,1.27,3.65,2.11,7.41.85,3.76,2.1,7.51,2.78,8.34,1.6,1.93,2.55,5.8,1.85,7.6ZM53.69,468.83c-2.68,2.51-6.96,2.76-10.91.61-3.21-1.74-4.78-4.32-4.78-7.87,0-3.76,1.67-3.14,2.43.9,1.23,6.56,8.61,8.74,13.12,3.88,1.62-1.75,2.45-2.15,2.45-1.17,0,.81-1.04,2.45-2.31,3.65ZM236.21,443.75c.28,2.89.16,5.25-.25,5.25-1.31,0-1.96-3.01-1.9-8.83.08-6.73,1.39-4.54,2.15,3.58ZM237.63,454.75c.68,2.54-1.08,3.12-2.02.67-.94-2.44-.72-5.42.39-5.42.55,0,1.01.56,1.01,1.25.01.69.29,2.26.62,3.5ZM49,454c0,.55-1.12,1-2.5,1s-2.5-.45-2.5-1,1.12-1,2.5-1,2.5.45,2.5,1ZM286,540c0,.55-.48,1-1.06,1s-.78-.45-.44-1,.82-1,1.06-1,.44.45.44,1ZM699,785c1.92,1.24,2.27,1.24,1.5,0-.34-.55-1.15-.99-1.81-.98-.71,0-.59.4.31.98ZM355.12,634.73c.69.68.99,1.49.69,1.8-.31.3-.87-.25-1.25-1.24-.54-1.42-.42-1.54.56-.56Z"/>
  <path class="cls-3" d="M257.71,568.02c-3.03,6.19-4.75,6.26-23.44.92-5.63-1.6-12.57-4.05-15.44-5.43-2.86-1.38-5.71-2.51-6.33-2.51-2.87,0-14.37-6.46-23-12.93-2.2-1.64-5.47-3.66-7.26-4.49-1.8-.82-3.53-2.19-3.86-3.03-.33-.85-1.01-1.55-1.53-1.55-2.07,0-6.85-4.51-6.85-6.47,0-2.47,11.19-13.97,12.47-12.81.47.43.59.32.27-.24-.32-.56,2.35-4.39,5.93-8.5s7.16-8.72,7.95-10.23c2.05-3.94,5.54-3.5,13.88,1.73,3.85,2.42,10.15,5.99,14,7.94,3.85,1.94,7.68,3.94,8.5,4.43,3.17,1.89,11.69,5.48,16,6.73,2.48.72,7.86,2.46,11.96,3.87,4.11,1.4,8.45,2.55,9.64,2.55,1.27,0,2.37.77,2.65,1.86.53,2-1.51,7.62-3.66,10.11-.73.84-1.63,2.83-2.01,4.41-.38,1.59-2.24,6.03-4.13,9.86-1.9,3.84-3.47,7.49-3.49,8.12-.02.63-1.03,3.17-2.25,5.66ZM154.63,428.23c-.62.41-1.58.7-2.13.65-2.86-.24-23.93-8.06-30-11.13-3.85-1.95-8.01-3.84-9.25-4.21s-2.25-1.27-2.25-1.99c0-1.57,3.1-2.52,8.3-2.54,4.46-.01,9.7-2.45,9.7-4.5,0-.79.9-1.92,1.99-2.5,2.77-1.49,5.17-6.52,4.46-9.36-.34-1.37-.03-2.95.73-3.76,4.28-4.48,6.67-8.13,6.17-9.42-.31-.81-.99-1.47-1.52-1.47s-.61.56-.2,1.25c.46.75.04.67-1.05-.21-1.09-.89-1.36-1.61-.68-1.84.61-.2.79-.89.39-1.54-2.61-4.17-.17-7.8,3.19-4.73,1.11,1.01,3.14,2.18,4.52,2.59s6.77,2.67,12,5.01c5.23,2.35,10.93,4.8,12.68,5.46,5.41,2.03,5.33,2.69-1.69,15.51-2.11,3.85-6.18,11.73-9.03,17.5-2.86,5.77-5.71,10.83-6.33,11.23ZM106.98,404.93c1.07,3.73-.91,4.73-4.02,2.04-1.21-1.05-3.09-2.19-4.17-2.54-2.76-.87-9.67-5.64-13.53-9.33-1.78-1.71-3.61-3.1-4.07-3.1s-2.16-1.46-3.8-3.25-3.82-3.72-4.84-4.3c-3.06-1.72-1.13-5.41,5.93-11.34,3.53-2.97,6.33-5.73,6.22-6.13-.11-.4,1.05-2.15,2.57-3.88,1.53-1.72,4.3-5.51,6.15-8.41,1.86-2.9,4.09-5.87,4.97-6.59,2-1.67,5.6-.81,9.28,2.22,1.56,1.28,7.89,5.4,14.08,9.16,6.19,3.76,11.25,7.2,11.25,7.64,0,1.39-3.72,2.88-7.21,2.88-7.07,0-14.76,10.45-11.78,16.02,1.35,2.52.39,4.24-1.95,3.5-.98-.31-2.34.12-3.04.96-.7.83-.88,1.52-.42,1.52s-.16.7-1.38,1.56c-2.42,1.69-2.93,5.33-1.02,7.24.66.66.92,1.2.57,1.2s-.25,1.32.21,2.93ZM418.94,714.07c-2.75,5.47-3.59,5.8-10.94,4.33-13.4-2.69-30.86-7.93-32.77-9.84-1.32-1.32,2.36-3.56,5.86-3.56,5.66,0,10.43-4.47,11.26-10.56.71-5.19-.11-7.35-4.72-12.32l-3.13-3.38,4.25.54c4.74.59,8.92-.91,9.58-3.45.25-.92-.7-3.29-2.11-5.26-1.4-1.97-2.27-3.85-1.94-4.18.58-.58,9.08,1.38,15.22,3.51,1.65.57,6.6,1.89,11,2.94l8,1.9-.1,4.38c-.06,2.41-1.49,8.3-3.18,13.09-1.7,4.79-3.4,10.86-3.78,13.5-.39,2.63-1.51,6.4-2.5,8.36ZM367.66,702.85c.15,1-.27,1.81-.94,1.79-1.98-.04-8.88-2.93-14.19-5.93-2.71-1.54-6.76-3.67-8.98-4.75-6.94-3.34-10.01-5.53-11.26-8.03-1.1-2.18-.88-2.77,2.25-5.97,1.9-1.95,3.46-3.9,3.46-4.33s1.5-2.67,3.34-4.96c1.83-2.29,5.32-7.64,7.75-11.87,4.47-7.81,6.26-9.53,8.29-7.97.61.47,4.27,2.07,8.12,3.56,11.6,4.49,19.5,8.02,19.5,8.72,0,.77-6.3,3.89-7.86,3.89s-4.79,3.73-6.6,7.56c-1.86,3.92-.92,6.93,3.89,12.44,1.69,1.92,2.41,2.94,1.62,2.25-2.14-1.85-3.51-1.52-1.92.46.89,1.11.21.9-1.93-.61-3.11-2.18-3.42-2.21-5.16-.63-1.02.92-2.41,3.01-3.09,4.64-1.1,2.66-.98,3.23,1.1,5.45,1.28,1.36,2.46,3.29,2.61,4.29ZM174.25,284.34c.69.28.78.54.2.58-2.23.17-27.77-20.6-26.95-21.92.66-1.06-2.01-3.16-2.89-2.27-1.34,1.34.69-3.23,2.29-5.15,1.32-1.59,1.34-1.78.1-1.12-.82.44.54-1.17,3.04-3.58,2.5-2.41,7.43-7.87,10.97-12.13,4.45-5.36,7.11-7.75,8.63-7.75,1.2,0,2.34.34,2.53.75.4.9,10.13,8.26,18.12,13.69,5.89,4.02,7.05,6.69,3.2,7.41-1.1.2-2.8,1.22-3.78,2.26-.98,1.04-2.33,1.89-3,1.9-1.91,0-5.71,6.32-5.71,9.47,0,1.58.69,3.62,1.52,4.55.84.92,1.25,2.42.9,3.32-.56,1.47-.88,1.43-3.16-.36-3.33-2.62-3.71-2.55-6.07,1.17-2.25,3.56-1.9,5.56,1.2,6.95,2.06.92,2.05.94-.14.51-2.37-.46-3.14.86-1,1.72ZM215.48,295.73c-3.45,7.13-4.31,8.21-6.48,8.14-2.14-.08-19.97-9.03-26.72-13.43-3.17-2.07-1.99-4.66,1.52-3.33,1.44.55,3.62.75,4.83.45,3.6-.91,8.37-5.51,8.37-8.07,0-1.28.52-2.5,1.16-2.71,1.61-.54.39-4.82-2.16-7.55l-2.08-2.23h2.89c4.85,0,8.34-5.65,5.22-8.47-2.98-2.7-1.66-6.47,1.62-4.63,1.02.56,6.25,3.52,11.64,6.57,5.38,3.04,10.19,5.53,10.69,5.53s1.55.92,2.34,2.05c1.32,1.88,1,2.79-3.71,10.75-2.83,4.79-6.94,12.4-9.13,16.93ZM208.83,556.5c.37.37,2.24.42,4.17.1,1.93-.32,5.2-.58,7.28-.59,3.13-.01,4.54-.77,8.25-4.48,3.77-3.77,4.47-5.09,4.47-8.38,0-2.25-.64-4.43-1.5-5.15-.82-.68-1.5-2.14-1.5-3.24,0-1.61.28-1.77,1.4-.84,1.54,1.27,6.22.51,7.26-1.19.4-.63.16-.74-.61-.26-.71.44-.52-.35.43-1.8,1.78-2.72,1.38-4.28-1.67-6.48-.99-.72-1.81-2.15-1.81-3.2,0-2.39-5.1-7.99-5.72-6.26-.24.68-3.54,2.16-7.33,3.29-5.35,1.59-7.47,2.8-9.43,5.36-3.82,5.01-3.34,8.15,1.98,12.83,2.48,2.18,4.5,4.61,4.5,5.41,0,2.84-3,2.55-7.09-.69l-4.14-3.28-1.87,2.43c-1.03,1.33-2.12,3.19-2.44,4.12-.69,2.07,2.22,6.8,4.17,6.8.94,0,1.26.8.97,2.41-.24,1.33-.14,2.72.23,3.09ZM120.99,391.9c0,.91-4.81,2.94-5.44,2.32-1.07-1.07-.55-3.34.6-2.62.72.44.89.27.45-.45-1.36-2.2.51-3.36,2.5-1.56,1.04.95,1.9,1.99,1.89,2.31Z"/>
  <path class="cls-11" d="M245.32,485.6c.7-1.8-.25-5.67-1.85-7.6-.68-.83-1.93-4.58-2.78-8.34-.3-1.37-.63-2.68-.93-3.81.34,1.23.7,2.68,1.06,4.2.92,3.98,2.13,7.18,2.68,7.11.89-.12,2.19-11.94,2.96-27.16.16-3.02.53-6.17.84-7,.3-.83,1.07-5.28,1.7-9.91,2.29-16.71,9.37-36,18.6-50.7,5.37-8.56,17.91-24.39,19.32-24.39.41,0,.13,2.81-.62,6.25-2.01,9.25-2.8,38.26-1.39,50.75,3.38,29.93,9.75,51.4,23.56,79.5,13.41,27.27,27.19,46.3,48.11,66.41,11.26,10.82,14.18,12.9,13.14,9.34-.28-.96-2.13-7.28-4.1-14.03-3.46-11.83-4.64-17.62-6.68-32.71-.93-6.86-1.69-18.51-1.21-18.51.13,0,1.32,2.14,2.64,4.75,19.27,38,54.17,71.21,95.93,91.24,7.81,3.75,17.58,8.02,21.7,9.49,9.07,3.23,33.29,9.37,39.8,10.09,2.58.29,7.4.91,10.7,1.39,10.08,1.46,41.35,1.18,54.2-.5,10.16-1.32,27.14-4.73,35.24-7.08q2.43-.71-.88,5.2c-3.88,6.9-8.1,13.45-10.82,16.88.13-.37-.05-.58-.45-.71-.91-.32-.37-1.75,1.81-4.85,1.71-2.42,4.31-6.57,5.78-9.22,2.26-4.1,2.4-4.75.89-4.31-5.79,1.68-11.23,2.79-23.27,4.74-18.27,2.97-54.5,3.22-72.5.51-50.2-7.57-97.61-33.08-131.23-70.62-5.66-6.33-10.72-11.39-11.25-11.26-.52.13-.73-.32-.47-1.01.26-.68-1.67-4.25-4.29-7.93s-6.24-9.08-8.05-12l-3.29-5.3.54,4.5c.29,2.47.54,5.57.54,6.88s.71,4.69,1.57,7.5c1.71,5.59,1.93,6.69,2.91,14.12.79,6.01,3.99,17.26,6.03,21.17,2.42,4.64,1.96,5.62-1.76,3.73l-3.25-1.65,2.5,2.84c1.84,2.09,1.97,2.47.5,1.43-3.98-2.82-7.42-6.34-6.95-7.1.27-.43-.04-1.11-.69-1.51-.73-.45-.9-.29-.46.44.4.63.29,1.15-.22,1.15-1.25,0-24.18-23.81-24.18-25.11,0-.55.56-.68,1.25-.29.73.42.9.34.42-.19-.46-.5-1.35-.91-1.98-.91-1.32,0-14.14-17.18-20.54-27.52-2.48-4.01-4.09-7.69-3.76-8.56.33-.84.16-1.26-.37-.93-1.25.77-10.22-17.13-15.27-30.49-11.64-30.81-15.29-52.37-14.59-86.34.23-11.17.02-19.27-.48-18.96-.49.3-.07-.75.93-2.33l1.81-2.87-2.3,1.99c-3.02,2.6-13.81,18.26-18.31,26.56-1.96,3.61-4.56,9.68-5.8,13.5-1.23,3.82-3.06,9.46-4.06,12.53-4.26,13-5.35,23.25-5.4,50.42-.03,14.3-.19,24.99-.37,23.75-.31-2.15-2.49-3.06-3.52-1.5-.01-.46.02-.88.09-1.21.28-1.48.11-2.28-.53-2.49.39-.05.76-.54,1.1-1.45ZM640,857.94c9,.67,16.35,1.23,22.27,1.69-5.09-.24-9.62-.17-12.77.23l-7,.88,8,.26c3.12.11,5.27.33,5.77.56-1.14-.45-9.74-.77-18.08-.64,6.36-.35.68-1.77-10.19-2.09-6.33-.18-11.8-.74-12.16-1.24-.38-.53-1.97-.36-3.8.39-2.37.98-3.44,1.02-4.3.16-.63-.63-2.15-1.14-3.38-1.14s-2.52-.45-2.86-1c-.86-1.39-4.25-1.26-4.73.19-.28.84-1.1.7-2.81-.5-2.59-1.82-7.48-2.34-6.46-.69,1.08,1.75-5.84,1.09-9.04-.86-2.81-1.71-7.84-2.7-18.71-3.66-2.34-.21-6.61-.84-9.5-1.4-2.89-.57-6.6-.76-8.23-.43-1.64.32-6.25-.12-10.25-1-8.4-1.84-23.09-4.34-30.11-5.13-2.67-.3-5.73-1.02-6.82-1.6-1.08-.58-2.95-1.28-4.15-1.54-6.08-1.34-7.49-1.58-11.19-1.87-6.35-.51-14.79-2.36-15.42-3.38-.64-1.02-5.62-2.18-11.08-2.56-1.92-.13-5.3-.97-7.5-1.86-2.2-.89-8.95-2.58-15-3.76-12.56-2.43-15.12-3.02-25.5-5.92-9.59-2.67-13-4.04-13-5.21,0-.52-.47-.65-1.04-.29-.58.35-1.68.12-2.45-.52-.77-.64-3.56-1.48-6.2-1.87-4.13-.62-4.78-1.02-4.58-2.86.18-1.76-.7-2.44-5-3.84-1.74-.56-4.44-1.53-7.69-2.74,39.22,13.91,90.22,27.55,138.96,36.78,34.23,6.48,105.63,16.17,136,18.46ZM328.88,598.12c-2.72-2.72-3.88-4.75-3.88-6.78,0-3.34,2.49-7.39,4.28-6.96.67.16.86.1.43-.14-1.59-.87,1.61-3.24,4.37-3.24,3.25,0,7.92,1.9,7.92,3.22,0,.49-.45.62-1,.28-1.63-1.01-1.14.14.69,1.63,1.15.93,1.45.97.94.12-.41-.69-.32-1.25.2-1.25s1.7,1.59,2.62,3.54c3.2,6.73-1.32,13.46-9.03,13.46-2.91,0-4.44-.79-7.54-3.88ZM613.34,748.83c.12-.03.3-.11.53-.25.65-.4,3.98.84,7.4,2.74,8.44,4.71,43.42,21.19,51.61,24.33,3.64,1.39,9.42,3.84,12.85,5.44,3.42,1.6,6.61,2.91,7.08,2.91s4.75,1.53,9.52,3.4c4.77,1.88,8.67,3.24,8.67,3.04s2.03.5,4.5,1.56c7.46,3.2,5.58,1.86-4.25-3.22,9.01,4.51,16.86,8.23,21,9.87,3.71,1.47,6.75,3,6.75,3.42,0,.83-11.77-2.5-16.5-4.67-5.96-2.73-16.59-6.4-18.52-6.4-1.09,0-1.98-.44-1.98-.99s-1.8-1.27-4-1.63c-2.2-.35-4-.96-4-1.35s-1.91-1.32-4.25-2.06c-2.34-.74-5.14-1.94-6.22-2.66-1.09-.72-3-1.31-4.25-1.31s-2.28-.45-2.28-1-.79-1.01-1.75-1.03c-.96-.02-2.62-.69-3.69-1.5-1.07-.81-2.76-1.47-3.75-1.47s-1.81-.4-1.81-.89-1.24-1.18-2.75-1.52c-1.51-.35-5.9-2.16-9.75-4.03-3.85-1.86-10.26-4.86-14.25-6.67-3.99-1.8-7.25-3.57-7.25-3.93,0-.67-5.91-3.41-9.5-4.4-1.1-.3-3.35-1.71-4.99-3.13-1.17-1-2.79-2-4.17-2.6ZM333.2,599.33c4.55,2.24,5.52,2.1,8.88-1.25,3.6-3.61,3.73-6.97.39-10.93-3.18-3.78-7.34-4.79-11.31-2.73-5.9,3.05-4.73,11.57,2.04,14.91ZM365.62,641.37c.05-.07.1-.14.16-.23,1.08-1.51,5.63-.62,4.68.92-.31.5.09.67.89.36.8-.31,3.64.37,6.3,1.51,2.67,1.14,12.02,4.48,20.78,7.42,8.77,2.95,15.29,5.62,14.5,5.94-.79.32.15.34,2.07.06,2.34-.35,3.06-.21,2.18.42-.9.64.22.93,3.5.92,2.65,0,8.2.55,12.32,1.23s9.08,1.49,11,1.8c3.33.55,3.38.61,1,1.33q-2.49.75.36.85c1.06.04,1.73.08,2.1.33l-5.36-.56c-15.36-1.61-45.57-9.81-61.93-16.81-2.39-1.02-5.01-1.86-5.82-1.86s-2.17-.67-2.99-1.5c-.83-.83-2.4-1.5-3.5-1.5-.66,0-1.5-.25-2.24-.63ZM529.83,689.46c.13-.43-.65-1.7-1.83-2.96-1.29-1.38-1.89-2.5-1.33-2.5s1.88.97,2.93,2.15c2.68,3.04,24.35,21.06,33.11,27.54,4.04,2.98,7.13,5.76,6.88,6.16-.21.35-.06,1.11.33,1.82-.62-.48-1.29-1.05-1.92-1.67-1.69-1.65-3.52-3-4.07-3s-2.13-1.01-3.5-2.25c-5.47-4.93-6.35-5.64-8.29-6.68-1.84-.98-6.27-4.73-12.91-10.92-1.38-1.29-4.27-3.61-6.41-5.17-.75-.54-1.8-1.43-2.99-2.52ZM251.86,509.37c.02-.16-.05-.43-.19-.79-.34-.87-.08-1.33.63-1.11.66.21,4.85,1.55,9.31,2.99,4.46,1.43,13.23,3.92,19.5,5.53,6.26,1.6,10.6,2.94,9.64,2.96-.96.03-1.75.55-1.75,1.16,0,.07.01.13.03.19-1.89-.73-4.54-1.39-7.49-1.8-2.73-.38-6.56-1.25-8.5-1.95-1.95-.69-8.21-2.77-13.92-4.61-2.65-.85-5.2-1.76-7.26-2.57ZM505.02,668.79c0-.1-.02-.2-.02-.29,0-.93-.93-3-2.07-4.6-1.14-1.6-1.92-3.75-1.75-4.78.24-1.42,3.07,1.01,11.66,9.99,6.23,6.53,11.42,12.45,11.52,13.16.13.83,1.04,2.44,2.09,3.94-1.28-1.29-2.58-2.65-3.74-3.94-3.42-3.79-8.06-8.55-10.33-10.58-4.13-3.7-7.22-4.55-7.36-2.9ZM570.78,722.29c-.05-.18-.11-.39-.2-.65-.86-2.66.77-1.84,12.15,6.1,5.37,3.75,11.46,7.86,13.53,9.13,2.08,1.27,3.46,2.78,3.09,3.37-.06.1-.11.19-.14.27l-.08-.04c-2.26-1.09-4.11-2.31-4.12-2.72,0-.41-.91-.75-2.01-.75s-2-.45-2-1-.4-1-.89-1-2.34-1.35-4.11-3-4.06-3-5.11-3-1.89-.45-1.89-1-.58-1-1.28-1-1.93-.9-2.72-2-2-2-2.69-2c-.3,0-.86-.27-1.53-.71ZM286,540c0-.55-.2-1-.44-1-.09,0-.21.06-.34.16,3.68-8.47,6.79-15.99,6.79-16.67-.01-.51-.62-1.07-1.68-1.62.46.04,1.03.01,1.67-.08,1.92-.28,3,0,3,.76,0,3.2-8.95,21.6-10.14,20.86-.46-.28-1.58,1.19-2.48,3.29-.58,1.33-1.78,3.96-3.11,6.83,1.66-3.62,3.48-7.71,5.21-11.67.11.09.26.14.46.14.58,0,1.06-.45,1.06-1ZM355.12,634.73c-.94-.94-1.09-.87-.62.4-.8-.69-2.64-1.44-6.11-2.52.48.03.55-.32.25-1.1-.83-2.16.3-1.88,4.96,1.24,2.5,1.68,3.93,3.33,3.67,4.25-.02.07-.04.14-.06.21-.13-.14-.21-.27-.21-.39,0-.52-.45-.66-1-.32-.51.32-.94.16-.99-.35.29.41.6.58.8.38.3-.31,0-1.12-.69-1.8ZM357.55,637.48c.09-.13.2-.27.31-.44,1.53-2.2,8.35,1.13,7.52,3.68-.05.17-.09.32-.13.44-.36-.21-.68-.45-.94-.71-.85-.85-2.85-1.81-4.43-2.12-.95-.19-1.8-.52-2.33-.85ZM604.49,744.54c.08-.11.18-.24.29-.39,1.41-1.98,5.34.27,4.59,2.62-.05.15-.09.28-.13.4-.31-.26-.55-.52-.64-.78-.3-.77-1.4-1.39-2.46-1.39-.59,0-1.19-.18-1.65-.46ZM599.63,740.72c.06-.03.13-.07.19-.11,1.84-1.14,5.18,1.19,4.55,3.16-.07.22-.13.41-.17.56-.23-.18-.39-.39-.48-.61-.25-.66-2.04-1.96-4.09-3ZM609.59,747.42c.04-.06.09-.13.15-.2,1.08-1.51,4.55-.51,3.6,1.04-.14.23-.2.4-.18.49-.5-.21-.95-.36-1.34-.44-.81-.16-1.62-.5-2.23-.89ZM699,785c-.9-.58-1.02-.98-.31-.98.66-.01,1.47.43,1.81.98.77,1.24.42,1.24-1.5,0ZM593.27,711.06c-11.57-10.37-21.46-20.67-30.38-31.56,8.3,10.13,18.95,21.16,30.38,31.56ZM700.93,783.55l-.68-.34c-9.36-4.68-17.72-9.14-25.85-13.84,7.42,4.17,17.09,9.32,26.53,14.18ZM622.68,734.9c10.23,7.53,22.03,15.78,32.25,22.51-6.44-4.19-13.12-8.76-20.4-13.91-4.11-2.91-8.06-5.78-11.85-8.6ZM621.84,862.51c-3.88-.33-17.98-.75-33.39-.96-17.02-.24-33.2-.91-35.95-1.48,2.75.57,19.36,1.24,36.92,1.49s32.15.67,32.42.95ZM675,863c-1.93-.62-1.14-.85,3.5-1.04,5.93-.23,6.15-.4-3.61-1.32,11.52.99,10.23,1.18,3.61,1.38-4.59.14-5.41.37-3.5.98ZM627.5,862c.34-.55,3.61-1,7.26-1h.29c-3.45.13-6.69.6-7.63,1.11.03-.04.06-.07.08-.11ZM581.76,653.77c-7.03,3.8-15.41,7.84-25.48,12.3,9.29-4.11,18.27-8.47,25.48-12.3ZM243.9,487h-.06c-.96,0-2.27-3.77-4.2-12.09,1.79,7.69,3.13,11.58,4.26,12.09ZM596.57,644.75c3.13-2.38,5.36-4.12,6.89-5.41-2.03,1.8-4.32,3.59-6.89,5.41ZM245.58,506.33c.79-.28,1.42-.11,1.42.4,0,.07.02.14.05.22-.48-.38-1.03-.61-1.47-.62ZM242.67,505.53c-.82-.82-3.58-2.2-6.14-3.07,2.56.87,5.3,2.22,6.09,3.02.66.65,1.67,1.04,2.46.97-.51.31-1.59-.11-2.41-.92ZM341.54,644.29c2.38-5.16,4.46-10.16,4.46-11.21,0-.77.62-1.04,1.56-.69-1.04-.22-1.56.03-1.56.73,0,1.04-2.08,6.02-4.46,11.17ZM329.55,788.51c-.56-.25-1.05-.47-1.47-.67-2.39-1.13-4.76-2.26-7.11-3.4,2.33,1.13,4.67,2.24,7.03,3.35.51.24,1.03.48,1.55.72Z"/>
  <path class="cls-12" d="M156.46,430.38c-.89.34-2.6.54-3.79.45-7.06-.55-9.67-1.06-9.67-1.89,0-.52-1.35-.94-3-.94s-3-.39-3-.88-1.22-.87-2.71-.87-2.88-.51-3.08-1.13c-.21-.62-.76-.9-1.21-.62-.46.29-1.44-.06-2.17-.78-.73-.71-3.24-1.86-5.58-2.55-2.33-.68-5.03-2.08-6-3.09-2.25-2.36-11.81-7.18-12.63-6.37-.34.34-.62.1-.62-.54s-.68-1.17-1.5-1.17-1.5-.45-1.5-1-.68-1-1.5-1-1.5-.45-1.5-1-.51-1-1.13-1-1.86-.81-2.75-1.8c-.89-.99-3.19-2.88-5.12-4.21-1.93-1.34-4.02-2.89-4.65-3.46-.63-.57-2.84-2.38-4.91-4.03-8.45-6.73-8.77-7.11-8.77-10.43,0-2.72,1.23-4.45,7.66-10.76,4.22-4.13,7.67-7.92,7.67-8.42s1.24-2.25,2.75-3.9c4.81-5.23,5.46-6.11,4.95-6.62-.28-.28.8-1.84,2.4-3.47,1.59-1.63,2.9-3.36,2.9-3.83,0-2.74,3.82-1.54,10.93,3.44,4.31,3.02,8.34,5.49,8.95,5.49s1.12.42,1.12.93,1.01,1.25,2.25,1.64c1.24.38,2.47,1.02,2.75,1.41,1.2,1.7,29.85,15.65,43.5,21.18q10.99,4.46,10.74,7.7c-.25,3.05-5.63,15.05-7.24,16.14-1.07.72-5.52,9.86-6.94,14.25-.67,2.06-1.71,3.75-2.3,3.75s-.81.28-.47.62c.94.95-2.97,8.04-4.83,8.76ZM256.75,575.37c-3.24.87-5.29.69-14.25-1.27-14.75-3.21-40.98-13.42-42.78-16.64-.45-.8-1.7-1.46-2.77-1.46s-1.95-.48-1.95-1.06-.45-.78-1-.44-1,.14-1-.44-.63-1.06-1.39-1.06-1.62-.56-1.89-1.25-3.13-2.82-6.36-4.74c-3.22-1.92-7.39-4.96-9.26-6.75-1.88-1.79-3.74-3.26-4.14-3.26s-1.49-1.17-2.43-2.59q-1.69-2.59,3.89-7.96c3.07-2.95,5.58-5.64,5.58-5.97s2.36-2.95,5.25-5.82c2.89-2.86,5.93-6.27,6.75-7.57.82-1.29,2.49-3.31,3.69-4.47,1.21-1.17,2.68-3.39,3.26-4.95.92-2.47,1.48-2.77,4.31-2.39,1.78.24,5.55,1.85,8.37,3.58,2.81,1.74,6.52,3.65,8.24,4.25,1.72.6,3.13,1.49,3.13,1.99s.86.9,1.92.9,2.06.34,2.25.75c.46,1.03,9.88,5.55,18.33,8.79,3.85,1.48,7.45,3.02,8,3.43.55.41,3.25,1.29,6,1.96s6.35,1.82,8,2.56c1.65.73,5.36,1.87,8.25,2.52,5.61,1.27,6.49,2.74,3.9,6.52-.74,1.08-1.66,3.24-2.04,4.8-.38,1.56-1.8,4.59-3.15,6.73-1.35,2.15-2.46,4.32-2.46,4.84s-2.25,6.1-5,12.41c-2.75,6.3-5,11.91-5,12.46s-1.01,1.27-2.25,1.6ZM417,721c0,4.54-38.97-7-61.23-18.13-4.25-2.13-8.39-3.87-9.21-3.87s-2.29-.83-3.27-1.85c-2.56-2.66-10.84-7.27-11.62-6.48-.37.36-.67.14-.67-.5s-.67-1.17-1.5-1.17c-3.32,0-1.23-5.43,4.58-11.9.86-.96,1.86-2.51,2.22-3.43.35-.92,1.1-1.67,1.67-1.67s1.03-.65,1.03-1.44.79-2.03,1.75-2.75c.96-.72,1.89-1.94,2.05-2.72.17-.78,1.18-2.52,2.25-3.88,1.07-1.37,1.95-3.09,1.95-3.84s.36-1.37.8-1.37,1.79-2.03,3-4.52c2.39-4.93,3.86-5.26,9.83-2.17,5.44,2.81,25.79,10.69,27.61,10.69,1,0,2.08.67,2.4,1.49.31.83.9,1.29,1.31,1.04.41-.25,4.3.59,8.65,1.87,4.34,1.29,12.63,3.35,18.4,4.58,11.97,2.56,14,3.4,13.99,5.81,0,.94-1.38,6.21-3.06,11.71s-4.13,14.11-5.45,19.12c-2.89,10.94-4.35,14.38-6.14,14.38-.74,0-1.34.45-1.34,1ZM257.71,568.02c1.22-2.49,2.23-5.03,2.25-5.66.02-.63,1.59-4.28,3.49-8.12,1.89-3.83,3.75-8.27,4.13-9.86.38-1.58,1.28-3.57,2.01-4.41,2.15-2.49,4.19-8.11,3.66-10.11-.28-1.09-1.38-1.86-2.65-1.86-1.19,0-5.53-1.15-9.64-2.55-4.1-1.41-9.48-3.15-11.96-3.87-4.31-1.25-12.83-4.84-16-6.73-.82-.49-4.65-2.49-8.5-4.43-3.85-1.95-10.15-5.52-14-7.94-8.34-5.23-11.83-5.67-13.88-1.73-.79,1.51-4.37,6.12-7.95,10.23s-6.25,7.94-5.93,8.5c.32.56.2.67-.27.24-1.28-1.16-12.47,10.34-12.47,12.81,0,1.96,4.78,6.47,6.85,6.47.52,0,1.2.7,1.53,1.55.33.84,2.06,2.21,3.86,3.03,1.79.83,5.06,2.85,7.26,4.49,8.63,6.47,20.13,12.93,23,12.93.62,0,3.47,1.13,6.33,2.51,2.87,1.38,9.81,3.83,15.44,5.43,18.69,5.34,20.41,5.27,23.44-.92ZM213.56,306.63c-.03.06-1.03.42-2.2.78-1.35.41-2.72.09-3.68-.88-.85-.84-2.26-1.53-3.14-1.53-1.98,0-13.91-5.92-14.38-7.13-.18-.49-.74-.63-1.25-.32-.5.31-.91.09-.91-.49s-.63-1.06-1.39-1.06-1.66-.67-1.97-1.5c-.32-.83-1.49-1.5-2.61-1.5s-2.03-.45-2.03-1-.68-1-1.5-1-1.5-.45-1.5-1-.68-1-1.5-1-1.5-.45-1.5-1-.47-1-1.05-1-2.17-1.12-3.54-2.5c-1.38-1.38-2.96-2.5-3.53-2.5s-1.62-.56-2.35-1.25-2.99-2.6-5.03-4.25-5.57-4.68-7.85-6.74c-2.28-2.05-4.51-3.74-4.95-3.75-1.45-.02-3.81-7.1-3.11-9.33.37-1.2,3.21-4.69,6.29-7.75,3.09-3.06,7.42-7.72,9.62-10.35,4.97-5.95,9.69-10.58,10.76-10.58.99,0,6.1,3.63,9.65,6.86,1.42,1.29,6.64,4.96,11.59,8.14,4.95,3.19,9.8,6.53,10.79,7.43.98.91,2.18,1.4,2.67,1.1.48-.3,1.57.14,2.41.98s4.57,2.89,8.3,4.57c3.73,1.67,7.06,3.48,7.39,4.02s2.82,1.77,5.52,2.73c3.75,1.34,5,2.31,5.26,4.1.18,1.29-.04,2.62-.5,2.96-.46.33-1.96,2.82-3.34,5.53-6.38,12.55-7.25,14.1-8.1,14.41-.49.19-.9.81-.9,1.38s-1.44,4.02-3.19,7.67c-1.76,3.64-3.22,6.68-3.25,6.75ZM154.63,428.23c.62-.4,3.47-5.46,6.33-11.23,2.85-5.77,6.92-13.65,9.03-17.5,7.02-12.82,7.1-13.48,1.69-15.51-1.75-.66-7.45-3.11-12.68-5.46-5.23-2.34-10.62-4.6-12-5.01s-3.41-1.58-4.52-2.59c-3.36-3.07-5.8.56-3.19,4.73.4.65.22,1.34-.39,1.54-.35.12-.45.37-.31.7-.08-.1-.17-.2-.27-.31-1.34-1.56-2.2-3.45-1.92-4.2.72-1.87-3.24-3.95-4.71-2.48-.6.6-2.37,1.09-3.94,1.09-9.9,0-14.96,9.88-9.1,17.23-1.81-1.26-3.31-.11-2.05,1.92.44.72.27.89-.45.45-1.05-.66-1.58,1.19-.84,2.33-2.46-2.56-5.68-2.48-7.17.32-1.27,2.38-1.1,6.17.33,7.47.47.43.48.15.04-.62-.55-.95-.44-1.18.34-.69.81.5.85,1.27.15,2.59-.8,1.5-.55,2.21,1.24,3.45,1.23.87,2.92,1.27,3.75.9.83-.38,2.86-.64,4.51-.59,7.92.26,16.31-7.66,15.07-14.22-.74-3.97-3.38-7.77-4.79-6.9-.64.39-.8.21-.4-.44.38-.61,1.46-.82,2.4-.47,1.5.56,1.55.43.35-1.04-2.01-2.48-.77-2.06,1.47.48,1.04,1.2,1.34,1.84.65,1.44-.69-.4-1.25-.3-1.25.22,0,1.55,2.47,2.04,4.06.81.81-.63,2.2-2.28,3.09-3.68,1.25-1.96,1.45-2.5.23-4.09.07.05.13.11.2.17,1.09.88,1.51.96,1.05.21-.41-.69-.32-1.25.2-1.25s1.21.66,1.52,1.47c.5,1.29-1.89,4.94-6.17,9.42-.76.81-1.07,2.39-.73,3.76.71,2.84-1.69,7.87-4.46,9.36-1.09.58-1.99,1.71-1.99,2.5,0,2.05-5.24,4.49-9.7,4.5-5.2.02-8.3.97-8.3,2.54,0,.72,1.01,1.62,2.25,1.99s5.4,2.26,9.25,4.21c6.07,3.07,27.14,10.89,30,11.13.55.05,1.51-.24,2.13-.65ZM418.94,714.07c.99-1.96,2.11-5.73,2.5-8.36.38-2.64,2.08-8.71,3.78-13.5,1.69-4.79,3.12-10.68,3.18-13.09l.1-4.38-8-1.9c-4.4-1.05-9.35-2.37-11-2.94-6.14-2.13-14.64-4.09-15.22-3.51-.33.33.54,2.21,1.94,4.18,1.41,1.97,2.36,4.34,2.11,5.26-.38,1.49-1.98,2.62-4.19,3.18.45-.34.84-.86,1.33-1.6,1.83-2.79,1.62-6.06-.35-5.64-.7.16-1.05-.07-.79-.5.26-.42-.6-2.12-1.91-3.77-2.06-2.58-2.65-2.82-4.16-1.74-2.19,1.56-2.82,1.79-7.66,2.87-4.95,1.1-7.72,4.74-8.12,10.65-.26,3.86.1,4.91,2.51,7.21,1.55,1.49,3.09,2.66,3.42,2.61.32-.06.59.12.59.4v1.99c0,1.09-.88,1.4-3.25,1.14-1.91-.21-3.25-.92-3.25-1.73,0-2.13-3.49-2.29-5.01-.24-2.37,3.19-2.38,5.31-.07,8.12,1.23,1.49,2.53,3.51,2.88,4.47.66,1.8,5.7,2.54,5.7.83,0-.5,2.05-.91,4.56-.91,4.54,0,5.43-.58,10.43-6.83.69-.87,1.18-1.76,1.46-2.68-.03.25-.06.51-.1.78-.83,6.09-5.6,10.56-11.26,10.56-3.5,0-7.18,2.24-5.86,3.56,1.91,1.91,19.37,7.15,32.77,9.84,7.35,1.47,8.19,1.14,10.94-4.33ZM174.25,284.34c-2.14-.86-1.37-2.18,1-1.72,2.19.43,2.2.41.14-.51-3.1-1.39-3.45-3.39-1.2-6.95,2.36-3.72,2.74-3.79,6.07-1.17,2.28,1.79,2.6,1.83,3.16.36.35-.9-.06-2.4-.9-3.32-.83-.93-1.52-2.97-1.52-4.55,0-.46.08-1,.23-1.57-.44,2.54.12,5.07,2.02,6.69l2.25,1.9-4-5,2.11,1.78c1.16.98,2.06,2.78,2,4-.09,1.73-.73,2.23-2.93,2.27-1.55.02-3.08-.38-3.4-.91-.35-.55-.05-.61.72-.14.83.51,1.07.42.65-.26-.98-1.58-3.84-.84-5.32,1.38-1.11,1.69-.95,2.44,1.22,5.48,2.28,3.21,2.89,3.5,6.73,3.23,2.32-.17,5.34-.57,6.72-.89,3.01-.72,6.16-3.37,5.42-4.57-.3-.48-.03-.87.6-.87,2.29,0,.48-6.25-2.84-9.77-2.96-3.14-3.16-3.68-1.81-5.03,1.35-1.35,1.8-1.32,4.15.22,2.51,1.65,2.75,1.65,4.56,0,2.45-2.21,2.42-3.66-.12-5.95-1.11-1.01-1.8-2.43-1.53-3.16.6-1.55-.48-1.66-3.63-.37-1.27.51-3.87,1.19-5.8,1.5-1.98.32-3.71,1.41-5.04,2.88.98-1.35,2.01-2.31,2.75-2.31.67-.01,2.02-.86,3-1.9.98-1.04,2.68-2.06,3.78-2.26,3.85-.72,2.69-3.39-3.2-7.41-7.99-5.43-17.72-12.79-18.12-13.69-.19-.41-1.33-.75-2.53-.75-1.52,0-4.18,2.39-8.63,7.75-3.54,4.26-8.47,9.72-10.97,12.13-2.5,2.41-3.86,4.02-3.04,3.58,1.24-.66,1.22-.47-.1,1.12-1.6,1.92-3.63,6.49-2.29,5.15.88-.89,3.55,1.21,2.89,2.27-.82,1.32,24.72,22.09,26.95,21.92.58-.04.49-.3-.2-.58ZM106.98,404.93c-.46-1.61-.56-2.93-.21-2.93s.09-.54-.57-1.2c-1.91-1.91-1.4-5.55,1.02-7.24,1.22-.86,1.84-1.56,1.38-1.56s-.28-.69.42-1.52c.7-.84,2.06-1.27,3.04-.96,2.34.74,3.3-.98,1.95-3.5-2.98-5.57,4.71-16.02,11.78-16.02,3.49,0,7.21-1.49,7.21-2.88,0-.44-5.06-3.88-11.25-7.64-6.19-3.76-12.52-7.88-14.08-9.16-3.68-3.03-7.28-3.89-9.28-2.22-.88.72-3.11,3.69-4.97,6.59-1.85,2.9-4.62,6.69-6.15,8.41-1.52,1.73-2.68,3.48-2.57,3.88.11.4-2.69,3.16-6.22,6.13-7.06,5.93-8.99,9.62-5.93,11.34,1.02.58,3.2,2.51,4.84,4.3s3.35,3.25,3.8,3.25,2.29,1.39,4.07,3.1c3.86,3.69,10.77,8.46,13.53,9.33,1.08.35,2.96,1.49,4.17,2.54,3.11,2.69,5.09,1.69,4.02-2.04ZM367.66,702.85c-.15-1-1.33-2.93-2.61-4.29-2.08-2.22-2.2-2.79-1.1-5.45.68-1.63,2.07-3.72,3.09-4.64,1.74-1.58,2.05-1.55,5.16.63,2.14,1.51,2.82,1.72,1.93.61-1.59-1.98-.22-2.31,1.92-.46.79.69.07-.33-1.62-2.25-4.81-5.51-5.75-8.52-3.89-12.44,1.81-3.83,5.07-7.56,6.6-7.56s7.86-3.12,7.86-3.89c0-.7-7.9-4.23-19.5-8.72-3.85-1.49-7.51-3.09-8.12-3.56-2.03-1.56-3.82.16-8.29,7.97-2.43,4.23-5.92,9.58-7.75,11.87-1.84,2.29-3.34,4.52-3.34,4.96s-1.56,2.38-3.46,4.33c-3.13,3.2-3.35,3.79-2.25,5.97,1.25,2.5,4.32,4.69,11.26,8.03,2.22,1.08,6.27,3.21,8.98,4.75,5.31,3,12.21,5.89,14.19,5.93.67.02,1.09-.79.94-1.79ZM215.48,295.73c2.19-4.53,6.3-12.14,9.13-16.93,4.71-7.96,5.03-8.87,3.71-10.75-.79-1.13-1.84-2.05-2.34-2.05s-5.31-2.49-10.69-5.53c-5.39-3.05-10.62-6.01-11.64-6.57-3.28-1.84-4.6,1.93-1.62,4.63,3.12,2.82-.37,8.47-5.22,8.47h-2.89l2.08,2.23c2.55,2.73,3.77,7.01,2.16,7.55-.64.21-1.16,1.43-1.16,2.71,0,2.56-4.77,7.16-8.37,8.07-1.21.3-3.39.1-4.83-.45-3.51-1.33-4.69,1.26-1.52,3.33,6.75,4.4,24.58,13.35,26.72,13.43,2.17.07,3.03-1.01,6.48-8.14ZM208.83,556.5c-.37-.37-.47-1.76-.23-3.09v-.02c.14.6.58,1.19,1.19,1.55,2.19,1.28,2.95,1.29,3.71.06.34-.55,2.54-1,4.9-1,4.95,0,10.53-3.69,12.59-8.34,1.12-2.54.94-3.45-1.8-8.75-3.16-6.14-3.05-6.57,1.28-4.92,2.79,1.06,6.03-.24,7.01-2.81.64-1.65-2.89-6.4-4.01-5.4-.43.4-.49.19-.11-.46.37-.65.17-1.49-.45-1.88-.81-.5-.78-.9.12-1.46.89-.55.62-1.1-.96-1.94-1.77-.95-2.67-.87-4.6.39-1.32.86-3.67,1.57-5.22,1.57-1.65,0-4.26,1.2-6.27,2.87-2.89,2.42-3.43,3.52-3.43,6.97,0,3.26.65,4.77,3.22,7.43.51.52.96,1.03,1.34,1.5-.74-.81-1.64-1.71-2.61-2.56-5.32-4.68-5.8-7.82-1.98-12.83,1.96-2.56,4.08-3.77,9.43-5.36,3.79-1.13,7.09-2.61,7.33-3.29.62-1.73,5.72,3.87,5.72,6.26,0,1.05.82,2.48,1.81,3.2,3.05,2.2,3.45,3.76,1.67,6.48-.95,1.45-1.14,2.24-.43,1.8.77-.48,1.01-.37.61.26-1.04,1.7-5.72,2.46-7.26,1.19-1.12-.93-1.4-.77-1.4.84,0,1.1.68,2.56,1.5,3.24.86.72,1.5,2.9,1.5,5.15,0,3.29-.7,4.61-4.47,8.38-3.71,3.71-5.12,4.47-8.25,4.48-2.08.01-5.35.27-7.28.59-1.93.32-3.8.27-4.17-.1ZM115.63,394.27c.79.39,4.49-1.13,5.23-2.07.66,1.11,1.03,2.11.93,2.64-.51,2.68-3.7,2.54-5.9-.26-.09-.1-.17-.21-.26-.31ZM218.89,542.45c-.02,1.89-2.79,1.8-6.98-1.52,3.63,2.87,6.41,3.43,6.98,1.52ZM388.05,682.57c2.38,2.62,3.66,4.46,4.21,6.46-.68-1.95-2.08-4.08-4.21-6.46ZM208.7,552.31c-.02-.88-.37-1.31-1.07-1.31-1.01,0-2.27-1.26-3.16-2.77.91,1.51,2.2,2.77,3.25,2.77.85,0,1.22.51.98,1.31ZM386.49,678.99l-1.98-.25h-.01l1.99.25Z"/>
  <path class="cls-2" d="M374.99,686.49c-2.41-2.3-2.77-3.35-2.51-7.21h0c.31,2.23,1.94,4.46,5.34,7.97,4.22,4.36,4.47,4.88,3,6.35-1.95,1.95-4.65,1.25-8.87-2.3-1.34-1.13-2.1-1.74-2.66-1.91,1.53-.5,3.21.04,3.21,1.51,0,.81,1.34,1.52,3.25,1.73,2.37.26,3.25-.05,3.25-1.14v-1.99c0-.28-.27-.46-.59-.4-.33.05-1.87-1.12-3.42-2.61ZM181.18,265.27c.06,1.61,1.14,3.18,3.32,5.6,1.93,2.13,3.5,4.56,3.5,5.39,0,3.15-4.21,2.9-8.34-.29.62.35,1.82.6,3.02.58,2.2-.04,2.84-.54,2.93-2.27.06-1.22-.84-3.02-2-4l-2.11-1.78,4,5-2.25-1.9c-1.81-1.54-2.4-3.91-2.07-6.33ZM231,540.66c-.71-1.25-2.18-3.24-3.67-4.91-1.83-2.07-3.33-4.43-3.33-5.25,0-2.13,3.28-1.85,6.32.54.87.68,1.5,1.11,2.06,1.32-.64-.02-1.29-.13-1.91-.37-4.33-1.65-4.44-1.22-1.28,4.92.82,1.59,1.41,2.78,1.81,3.75ZM165.66,230.75c-1.98,1.91-4.53,4.69-7.16,7.83-2.2,2.63-6.53,7.29-9.62,10.35-3.08,3.06-5.92,6.55-6.29,7.75-.43,1.37.3,4.58,1.26,6.85-2.33-2.39-3.84-4.27-3.85-4.92,0-.48,3.26-4.12,7.25-8.09,3.99-3.96,9.05-9.35,11.25-11.96,2.64-3.14,5.19-5.9,7.16-7.81ZM128.31,385.31c-1.35-1.82-2.3-3.26-2.3-3.56-.02-1.29,1.86-.93,4.17.58.12.27.43.72.95,1.36,1.2,1.47,1.15,1.6-.35,1.04-.94-.35-2.02-.14-2.4.47-.03.04-.05.07-.07.11ZM75.85,372.77c5.01-4.92,9.11-9.35,9.15-9.88,0,.5-3.45,4.29-7.67,8.42-6.43,6.31-7.66,8.04-7.66,10.76,0,1.45.06,2.34.84,3.45l-3.81-3.75,9.15-9ZM133.68,393.48c-.54-1.47-1.98-3.85-3.68-5.98-.48-.61-.95-1.21-1.38-1.77.05-.03.1-.06.16-.09,1.41-.87,4.05,2.93,4.79,6.9.06.31.1.62.11.94ZM394.25,671.49c-.08-.05-.17-.1-.25-.15-2.12-1.25-2.83-2.3-2.43-3.56.15-.46.16-.88.06-1.23.24.28.5.59.79.95,1.31,1.65,2.17,3.35,1.91,3.77-.05.08-.08.15-.08.22ZM132.74,384.34c2.1,1.79,3.17,2.27,4.36,1.29-.39.43-.75.78-1.04,1.01-1.59,1.23-4.06.74-4.06-.81,0-.52.56-.62,1.25-.22.65.39.42-.18-.51-1.27ZM109.31,400.83c1.57,1.7,1.71,2.44.78,3.56-.56.68-.75,1.13-.53,1.55-1.16-.96-1.24-1.66-.56-2.94.53-.99.64-1.68.31-2.17ZM417,721c0-.55.6-1,1.34-1,1.03,0,1.96-1.15,3.12-4.24-.36,1.05-.67,1.91-.91,2.49-1.34,3.18-1.69,3.67-4.87,3.69.85-.14,1.32-.44,1.32-.94ZM233.25,523.52c-.6-.41-1.11-.72-1.43-.85-1-.41-.88-.9.51-2.03h.02c-.09.26.09.52.56.8.62.39.82,1.23.45,1.88-.05.07-.08.14-.11.2ZM107.28,397.84c.26.84.85,1.71,1.76,2.7-.06-.05-.12-.09-.19-.13-.78-.49-.89-.26-.34.69.44.77.43,1.05-.04.62-.81-.73-1.22-2.26-1.19-3.88ZM179.32,275.71c-.15-.13-.31-.26-.47-.4-.39-.34-.7-.58-.97-.71,1.13-.39,2.23-.23,2.77.64.42.68.18.77-.65.26-.77-.47-1.07-.41-.72.14,0,.02.03.05.04.07ZM236.96,526.8c-.31-.47-.76-.95-1.33-1.44-.66-.57-1.41-1.15-2.08-1.63.78-.5,2.5,1.31,3.41,3.07ZM396.73,673.64c-.26-.61-.89-1.15-1.94-1.82.09,0,.21-.02.33-.05,1.06-.23,1.61.61,1.61,1.87ZM113.05,407.48c.36,0,.69-.06.95-.17.82-.36,2.85-.6,4.5-.55,3.79.12,8.12-1.94,11.22-4.8-2.95,2.9-7.14,4.93-11.22,4.8-1.65-.05-3.68.21-4.51.59-.25.11-.57.15-.94.13ZM157.91,276.02c.21.17.4.33.59.48,2.04,1.65,4.3,3.56,5.03,4.25.72.68,1.77,1.24,2.33,1.25-.97-.01-1.36-.3-5.94-4.27-.47-.4-1.17-1-2.01-1.71ZM147.9,267.44c.81.64,1.78,1.45,2.75,2.32.99.9,2.22,1.97,3.45,3.04-.72-.61-1.45-1.22-2.14-1.8-1.4-1.18-2.78-2.38-4.06-3.56ZM234.84,531.87s.06-.04.1-.06c1.77-1.11,2.64-2.24,2.59-3.43.05.31.04.58-.05.8-.46,1.22-1.44,2.16-2.64,2.69ZM229.37,548.31c-2.64,3.32-7,5.69-10.97,5.69,4.08,0,8.42-2.56,10.97-5.69ZM76.4,390.87c.62.5,1.3,1.04,2.04,1.63,2.07,1.65,4.28,3.46,4.91,4.03-.63-.57-2.87-2.38-4.97-4.03-.58-.45-1.26-1.01-1.98-1.63ZM390.28,665.32c-.4-.09-.86-.09-1.34.02.48-.24.88-.26,1.34-.02ZM179.24,284.98c.92.44,2.08.49,4.04.35-1.98.14-3.1.13-4.04-.35ZM231.35,544.78c.18-.61.28-1.21.28-1.8.04.62-.07,1.17-.28,1.8ZM111.77,392.09c-.94-.06-1.85.23-2.62.87.75-.65,1.66-.94,2.62-.87ZM183.7,259.69c.09-.13.17-.25.26-.37.12-.13.24-.26.37-.38-.22.23-.42.48-.63.75ZM140.19,380.77c.05-.58-.2-1.11-.81-1.9.61.79.87,1.32.81,1.9Z"/>
  <path class="cls-4" d="M640,857.94c-.61-.05-1.23-.1-1.88-.15h0c-10.76-.9-21.27-2.05-36.64-3.89-23.78-2.89-51.5-6.77-73.92-10.36-22-3.66-42.6-7.7-62.77-12.31-31.14-7.18-61.67-15.69-87.99-24.48-6.63-2.25-13.09-4.57-19.43-6.97-4.43-1.71-9.19-3.58-13.61-5.36-7.73-3.16-15.27-6.47-22.7-9.94l-.08-.03h-.01c-29.54-14.3-55.72-29.36-80.38-46.39-38.31-26.49-72.15-56.91-101.4-91.14-2.56-3.26-6.84-8.61-11.26-14.08-4.22-5.24-9.13-11.52-12.93-16.53-4.57-6.27-9.01-12.65-13.32-19.14-6.88-10.63-14.52-23.17-19.82-32.43-.28-.51-.56-1.01-.85-1.52-3.46-6.2-6.05-11.52-5.75-11.82.3-.29,6.45,4.88,13.67,11.5,32.31,29.62,49.68,40.68,128.88,82.01,29.03,15.16,53.94,28.78,65.69,35.93,37.93,23.07,61.82,34.82,69.1,33.99,1.08-.12,1.73-.21,1.84-.42,1.59.97,6.88,3.08,12.56,4.98,6.33,2.12,12.85,4.43,14.5,5.14,1.53.66,4.31,1.49,7.79,2.36-2.28-.44-3.86-.65-4-.51-.65.65,7.7,5.41,26.37,15.01,18.19,9.42,42.4,21.37,61.34,30.05,4.32,1.99,9.06,4.08,14.11,6.23,20.26,8.84,39.75,16.44,61.5,24.1,17.28,6.27,34.08,11.95,47.89,16.11,32.49,9.79,95.76,23.78,129.37,28.61,9.15,1.31,18.21,2.7,20.13,3.08,5.53,1.1,3.16-.43-3.52-2.77,25.93,8.12,47.39,12.46,85.02,17.28,1.46.19,4.99.33,10.03.42-17.7-.06-34.76-.2-49.53-.45-25.03-.43-51.58-1.07-59-1.44-7.42-.36-27.9-1.33-45.5-2.16-15.38-.72-26.31-1.28-35.99-1.95-2.37-.18-4.87-.36-7.51-.56ZM139.51,543.01c-.43-.75-.91-1.57-1.41-2.43-3.83-6.68-8.8-16.22-13.45-25.74-4.16-8.58-8.16-17.31-10.68-23.39-.8-1.97-1.48-3.74-2.01-5.26-4.44-12.71-3.31-13.56,6.23-4.7,1.79,1.65,4.55,4.05,7.82,6.82,6.87,5.9,14.61,12.25,21.32,17.36h0c4.26,3.35,7.81,6.05,9.67,7.3.11.07.22.15.33.22,1.79,1.39,3.12,2.46,3.56,2.89.28.28.53.5.77.65,0,.01.02.02.03.03.19.24.49.31.89.23.55-.05,1.21-.42,2.25-1.18h0c.15-.11.31-.23.48-.36.18-.13.36-.27.56-.42-4.93,4.69-9.91,8.74-14.59,11.75-2.32,1.5-4.12,3.01-4,3.37.92,2.81,21.63,19.06,34.1,27.42-5.81-3.76-13.21-8.92-17.99-12.69-5.44-4.29-6.31-4.67-7.96-3.46-1.02.75-2.44,1.13-3.15.86-.71-.27-1.29,0-1.29.61s-.8,1.11-1.78,1.11c-2.23,0-5.51,3.72-4.6,5.2.42.67.23.83-.47.39-.8-.49-2.46-2.91-4.64-6.58ZM914.58,864.22c33.11-.46,62.75-1.22,62.01-1.96.87.86-26.05,1.58-62.01,1.96ZM412.68,731.25c3.31.3,6.77.47,9.2.42l7.39-.17,6.21-21.5c3.14-10.88,5.97-20.5,6.63-22.62-.66,2.12-3.49,11.74-6.63,22.62l-6.21,21.5h0l-5.38.32c-2.83.17-6.72-.04-11.21-.57ZM643,804.96c.26.36,5.69,3.41,12.23,6.86-6.67-3.4-11.74-6.18-12.23-6.86ZM733.86,844.03c-7.99-2.54-17.47-5.87-26.93-9.43,8.56,3.2,17.56,6.35,26.93,9.43ZM352.89,713.27c-.6-.32-1.4-.7-2.39-1.18-1.16-.56-2.47-1.22-3.89-1.97.95.47,1.77.86,2.43,1.13,1.33.55,2.8,1.33,3.85,2.02ZM323.88,696.84c-7.19-4.52-12.85-8.41-13.23-9.37.36.92,6.15,4.89,13.23,9.37ZM689.82,827.88c-2.35-.96-4.63-1.92-6.82-2.85-1.04-.45-2.14-.93-3.31-1.45,3.29,1.44,6.66,2.88,10.13,4.3ZM185.7,491.96c1.61-2.31,3.14-4.64,4.52-6.9-1.4,2.3-2.92,4.61-4.52,6.9Z"/>
  <path class="cls-5" d="M613.34,748.83c1.38.6,3,1.6,4.17,2.6,1.64,1.42,3.89,2.83,4.99,3.13,3.59.99,9.5,3.73,9.5,4.4,0,.36,3.26,2.13,7.25,3.93,3.99,1.81,10.4,4.81,14.25,6.67,3.85,1.87,8.24,3.68,9.75,4.03,1.51.34,2.75,1.03,2.75,1.52s.81.89,1.81.89,2.68.66,3.75,1.47c1.07.81,2.73,1.48,3.69,1.5.96.02,1.75.48,1.75,1.03s1.02,1,2.28,1,3.16.59,4.25,1.31c1.08.72,3.88,1.92,6.22,2.66,2.34.74,4.25,1.67,4.25,2.06s1.8,1,4,1.35c2.2.36,4,1.09,4,1.63s.89.99,1.98.99c1.21,0,5.82,1.44,10.57,3.19h.02c2.84,1.05,5.72,2.2,7.93,3.22.25.12.55.24.87.37,1.79.75,4.21,1.59,6.62,2.33,5.17,1.65,11.14,3.3,13.32,3.55,3.38.4,6.69,2.06,6.69,3.34,0,.52.67.68,1.5.36.83-.31,1.5-.05,1.5.59s.45.89,1,.55,1-.11,1,.5.39.88.87.58c1.16-.72,13.13,3.36,13.13,4.48,0,.48.67.62,1.5.3.83-.31,1.5-.05,1.5.59s.49.87,1.08.5c1.51-.93,10,1.59,10.59,3.14.27.71,1.13,1.04,1.91.74.78-.3,1.42-.1,1.42.45s.56.95,1.25.89c2.97-.27,12.75,2.58,12.75,3.7,0,.72,1.44,1.27,3.44,1.33,5.1.15,19.56,4.96,19.56,6.51,0,.4.67.47,1.5.15.83-.31,1.5-.15,1.5.36s1.34.74,2.99.5c2.11-.31,3.17.03,3.6,1.16.45,1.16,1.33,1.43,3.17.97,1.65-.42,2.94-.15,3.65.75.6.77,3.11,1.5,5.58,1.61,2.46.12,4.94.79,5.5,1.5.56.72,2.45,1.15,4.27.98,2.23-.22,3.44.17,3.85,1.24.39,1.01,1.35,1.37,2.74,1.02,1.18-.29,6.87.66,12.65,2.11,5.78,1.46,12.45,2.88,14.82,3.15,2.38.28,4.54,1.06,4.8,1.75.28.72,1.51,1.05,2.93.78,1.35-.26,2.45-.08,2.46.39,0,.48,2.13.97,4.74,1.09,2.6.12,4.88.68,5.07,1.25.19.56,1.43.75,2.76.42,1.44-.36,2.42-.17,2.42.48s1.14.85,3,.48c1.65-.33,3-.21,3,.27s2.55.97,5.66,1.08c3.11.11,5.92.56,6.25,1,.32.44,2.62.85,5.09.92,2.47.06,8.1.65,12.5,1.3,4.4.66,11.97,1.57,16.82,2.04,1.04.1,2.04.2,2.99.31-1.1-.09-2.24-.15-3.32-.17-3.03-.06-6.9-.5-8.61-.99s-3.7-.53-4.41-.09c-.91.56-.59.93,1.12,1.25,1.92.37,1.7.51-1.09.74l-3.5.27,4,.61c1.55.24,4.02.35,6.72.36-11.63.38-28.62.72-46.64.97-23.56.25-51,.36-77.05.28h0c-5.04-.09-8.57-.23-10.03-.42-37.63-4.82-59.09-9.16-85.02-17.28-1.59-.55-3.44-1.16-5.48-1.79-1.02-.31-2.06-.64-3.14-.98-9.37-3.08-18.36-6.23-26.92-9.43-5.84-2.2-11.66-4.48-17.12-6.72-3.47-1.42-6.84-2.86-10.13-4.3-7.38-3.29-16.94-7.92-24.46-11.76-6.54-3.45-11.97-6.5-12.23-6.86h0c-.07-.54-.68-.96-1.43-.96-.06,0-.11,0-.18-.01-.36-.15-.75-.3-1.14-.42-.15-.05-.29-.1-.43-.16-.39-.22-.75-.49-1.05-.78-.2-.2-.46-.42-.76-.63-.01-.02-.01-.05-.01-.07,0-.51-.64-.93-1.43-.93-.11,0-.23-.01-.36-.04-.35-.16-.69-.3-1.01-.4-.1-.03-.21-.07-.31-.1-.41-.23-.81-.52-1.12-.83-.2-.21-.47-.43-.77-.64-.08-.45-1.07-1.04-2.27-1.34-.98-.25-2.38-.96-3.47-1.73h0c-.32-.23-.61-.46-.86-.68-1.06-.94-3.57-2.56-5.63-3.62l-.1-.06h0c-2.08-1.06-4.91-2.98-6.28-4.25s-2.92-2.31-3.44-2.31-.95-.45-.95-1-.57-1-1.26-1-2.4-1.01-3.79-2.25-4.08-3.34-5.99-4.68c-1.9-1.33-3.82-3.02-4.26-3.75-.44-.72-1.44-1.32-2.21-1.32s-1.9-.9-2.49-2-1.73-2-2.53-2-2.02-.9-2.7-2c-.69-1.1-1.71-2-2.26-1.99-1.03,0-2.88-1.75-16.97-16.08-4.38-4.45-9.25-8.76-10.82-9.58-1.58-.81-3.29-2.69-3.82-4.16-.52-1.48-2.5-3.7-4.39-4.93-2.17-1.41-3.25-2.78-2.9-3.68.35-.92-.56-2.02-2.49-3.02-1.89-.98-2.85-2.11-2.51-2.98.32-.84-.2-1.55-1.28-1.76-1.04-.19-1.83-1.21-1.83-2.33s-.67-2-1.5-2.01c-.89-.01-1.37-.76-1.19-1.83.2-1.15-.45-2.01-1.8-2.36-1.35-.35-1.92-1.09-1.56-2.01.34-.91-.19-1.66-1.4-1.98-2.27-.59-5.62-5.18-5.21-7.13.16-.73-.61-1.56-1.71-1.85-1.2-.31-1.78-1.08-1.45-1.92.3-.79-.08-1.4-.87-1.4-1.48,0-9.81-13.06-9.81-15.38,0-.74-.9-2.49-2-3.89-.99-1.27-1.82-2.94-1.98-3.94.14-1.65,3.23-.8,7.36,2.9,2.27,2.03,6.91,6.79,10.33,10.58,1.16,1.29,2.46,2.65,3.74,3.94,1.37,1.95,2.96,3.71,3.33,3.34.02-.02.04-.05.05-.09,1.19,1.09,2.24,1.98,2.99,2.52,2.14,1.56,5.03,3.88,6.41,5.17,6.64,6.19,11.07,9.94,12.91,10.92,1.94,1.04,2.82,1.75,8.29,6.68,1.37,1.24,2.95,2.25,3.5,2.25s2.38,1.35,4.07,3c.63.62,1.3,1.19,1.92,1.67.08.13.15.26.24.38.68.95.85,1.06.62.24.67.44,1.23.71,1.53.71.69,0,1.9.9,2.69,2s2.02,2,2.72,2,1.28.45,1.28,1,.85,1,1.89,1,3.34,1.35,5.11,3,3.61,3,4.11,3,.89.45.89,1,.9,1,2,1,2.01.34,2.01.75c.01.41,1.86,1.63,4.12,2.72l.08.04c-.15.34,0,.42.42.21,2.05,1.04,3.84,2.34,4.09,3,.09.22.25.43.48.61-.17.62-.08.68.29.21.46.28,1.06.46,1.65.46,1.06,0,2.16.62,2.46,1.39.09.26.33.52.64.78-.22.78-.11.85.35.25.61.39,1.42.73,2.23.89.39.08.84.23,1.34.44.01.07.07.1.18.08ZM973.39,862.72c1.72-.22,2.51-.48,1.61-.76-.23-.07-.52-.14-.86-.2,1.42.2,2.34.38,2.45.5.15.15-.99.3-3.2.46Z"/>
  <path class="cls-9" d="M973.73,862.77c-2.45.2-6.38.39-11.49.56-3.72-.09-6.19-.2-7.74-.44l-4-.61,3.5-.27c2.79-.23,3.01-.37,1.09-.74-1.71-.32-2.03-.69-1.12-1.25.71-.44,2.7-.4,4.41.09s5.58.93,8.61.99c1.08.02,2.22.08,3.32.17,1.47.17,2.78.33,3.83.49.34.06.63.13.86.2.9.28.11.54-1.27.81Z"/>
  <path class="cls-7" d="M66.87,396.19c-.76-.62-1.56-1.26-2.37-1.91-13.36-10.68-14.99-12.5-13.55-15.19.62-1.15,1.51-2.09,1.98-2.09.12,0,.6-.37,1.34-1.01,1.82-1.44,5.09-4.27,8.64-7.52,5.7-5.19,10.01-9.69,14.28-15.18.52-.57.92-1.04,1.18-1.37.97-1.26,2.69-3.76,4.57-6.6,1.65-2.43,3.37-5.09,5.23-8.07,2.65-4.24,5.02-7.98,5.98-9.46.63-.42,1.36-.43,2.39.05,1.44.87,3.47,2.38,5.36,4.04,1.32,1.17,2.85,2.12,3.39,2.12s1.7.8,2.59,1.77c.89.98,2.86,2.32,4.37,2.98s2.75,1.67,2.75,2.23.47,1.02,1.04,1.02,1.99.88,3.15,1.97c1.16,1.08,2.49,1.72,2.96,1.44.47-.29.85-.05.85.53s.85,1.06,1.89,1.06,2.16.67,2.47,1.5c.32.83,1.39,1.5,2.39,1.5s2.57.89,3.49,1.97c.93,1.09,2.95,2.28,4.48,2.65,1.6.38,5.08,1.88,8.32,3.45,3.43,1.66,6.6,3.41,7,4.02.23.36,1.46,1.1,2.96,1.81,2.82,1.46,6.72,3.1,7.76,3.1.76,0,2.04.66,2.84,1.46.8.8,2.12,1.2,2.93.89s1.47-.08,1.47.51.61.84,1.36.56c.74-.29,3.1.51,5.24,1.78,4.66,2.76,10.12,4.76,13.03,4.78,4.22.03,4.92,2.58,2.27,8.24-1.32,2.84-3.64,6.86-5.15,8.96-1.51,2.09-2.75,4.29-2.75,4.89s-1.49,3.42-3.31,6.26c-5.47,8.54-8.9,15.67-8.3,17.26.32.82-.09,1.74-.9,2.05-.81.31-1.95,2.43-2.53,4.71-.58,2.28-1.29,4.82-1.57,5.65-.29.83-.52,1.73-.53,2,0,.27-.72,1.29-1.59,2.25-1.72,1.91-2.23,1.94-10.04.64-2.9-.48-6.89-1.56-8.87-2.38-1.46-.61-3.12-1.15-4.25-1.4-.26-.09-.55-.14-.86-.14-.96-.02-3.55-.91-5.75-1.97s-4.57-1.95-5.26-1.97c-.7-.01-2.05-.43-3-.91-2.23-1.13-5.59-2.51-11.24-4.6-.18-.06-.36-.13-.55-.2-3.12-1.37-9.33-4.39-14.72-7.11-11.14-6.16-24.19-14.71-34.86-23.02ZM251.86,509.37c2.06.81,4.61,1.72,7.26,2.57,5.71,1.84,11.97,3.92,13.92,4.61,1.94.7,5.77,1.57,8.5,1.95,2.95.41,5.6,1.07,7.49,1.8.13.32.59.52,1.3.57,1.06.55,1.67,1.11,1.68,1.62,0,.68-3.11,8.2-6.79,16.67-.23.18-.5.49-.72.84-.22.36-.21.68-.02.86-1.73,3.96-3.55,8.05-5.2,11.66h-.01c-.76,1.65-1.56,3.38-2.32,4.98-4.53,9.57-8.02,18.26-7.73,19.27.12.4-.65,2.65-1.71,5.01-1.41,3.13-2.43,4.18-3.95,4.05-.33-.03-.8-.06-1.34-.11h-.01l-2.66-.27c-7.53-.74-16.99-2.55-25.78-4.75-9.42-2.44-18.41-5.35-22.77-7.64-1.93-1.02-6.99-3.29-11.25-5.05s-7.75-3.57-7.75-4.04c0-.33-.52-.78-1.28-1.16-.43-.25-.93-.49-1.47-.71-.38-.15-.81-.32-1.26-.51-1.6-.86-3.93-2.29-6.6-4.02-12.47-8.36-33.18-24.61-34.1-27.42-.12-.36,1.68-1.87,4-3.37,4.68-3.01,9.66-7.06,14.59-11.75.1-.08.21-.17.32-.25,1.79-1.39,4.43-4.01,6.27-6.2,2.09-2.28,4.33-4.9,6.57-7.71l.06-.06c1.44-1.48,4.31-5.3,6.37-8.5l.15-.24s.05-.07.08-.11c1.6-2.29,3.12-4.6,4.52-6.9.05-.09.11-.17.16-.26.66-.99,1.25-1.88,1.72-2.58l.2-.29c2.71-3.69,4.85-4.99,5.47-3.11.22.65,1.03,1.18,1.81,1.18s1.42.45,1.42,1,.51,1,1.14,1,2.18,1.13,3.46,2.51,2.68,2.43,3.11,2.33c1.62-.39,6.29,2.53,6.29,3.93,0,.88.59,1.22,1.51.86.88-.33,2.02.24,2.74,1.4.68,1.08,2.04,1.97,3.02,1.97s2.05.67,2.37,1.49c.31.83.97,1.25,1.46.95.5-.31.9-.05.9.56s.52.8,1.15.41c.31-.19.7-.2,1.09-.07.34.3.77.64,1.27,1,.75.85,3.32,2.2,5.86,3.06,2.64.9,5.47,2.31,6.3,3.13h0c.82.81,1.9,1.23,2.41.92.16-.01.31-.05.45-.1.02-.01.03-.01.05-.02.44.01.99.24,1.47.62.25.54,1.31,1.35,2.57,1.92,1.58.72,2.19.91,2.24.5ZM365.62,641.37c.74.38,1.58.63,2.24.63,1.1,0,2.67.67,3.5,1.5.82.83,2.17,1.5,2.99,1.5s3.43.84,5.82,1.86c16.36,7,46.57,15.2,61.93,16.81l3.14.33c-6.97-.07-30.89-4.9-41.74-8.45-3.85-1.26-10.15-3.32-14-4.58-9.82-3.22-10.37-3.36-8.5-2.15,5.71,3.7,51.26,16.14,59.28,16.2,1.22,0,2.86.42,3.64.91,1.52.96,1.44,1.26-9.06,38.07-2.28,7.97-4.85,17.09-5.73,20.25l-1.59,5.75h-5.4c-6.45,0-23.67-2.58-30.57-4.57-5.52-1.6-8.57-1.82-8.57-.64,0,.14.15.29.47.46-.78-.25-1.45-.5-1.97-.72-1.65-.71-8.17-3.02-14.5-5.14-5.68-1.9-10.97-4.01-12.56-4.98.11-.21-.36-.54-1.55-1.14-1.05-.69-2.52-1.47-3.85-2.02-.66-.27-1.48-.66-2.43-1.13-6.55-3.46-15.43-8.7-22.73-13.28-7.08-4.48-12.86-8.45-13.23-9.36h0c-.23-.57,3.02-4.64,7.22-9.05,4.2-4.41,8.75-9.68,10.13-11.72,1.38-2.03,2.84-3.7,3.25-3.7.41-.01.75-.68.75-1.51s.45-1.5,1-1.5,1-.67,1-1.5.34-1.51.75-1.52c.61-.01,3.91-6.46,6.79-12.69,2.38-5.15,4.46-10.13,4.46-11.17,0-.7.52-.95,1.56-.73.02,0,.04.01.05.01.33.13.59.2.78.21,3.47,1.08,5.31,1.83,6.11,2.52.02.05.04.11.06.16.14.35.29.64.45.86.05.51.48.67.99.35.55-.34,1-.2,1,.32,0,.12.08.25.21.39-.25.94-.2,1.02.34.27.53.33,1.38.66,2.33.85,1.58.31,3.58,1.27,4.43,2.12.26.26.58.5.94.71-.24.83-.14.88.37.21ZM211.92,315.86c-1.48-.54-3.26-1.23-5.42-2.06-12.29-4.71-32.99-15.16-37.27-18.8-.97-.83-2.98-2.13-4.48-2.91-1.49-.78-3.51-2.13-4.48-3s-3.61-2.84-5.85-4.36c-3.09-2.1-7.9-6.08-12.73-10.37h0c-2.64-2.38-5.6-5.14-8.98-8.36-.42-.4-.84-.8-1.25-1.18-3.8-3.76-6.46-6.72-6.46-7.48s.36-1.34.8-1.34c1.11,0,15.76-14.32,21.48-21,2.59-3.02,5.61-6.5,6.71-7.71,1.11-1.22,2.01-2.65,2.01-3.17s.34-1.1.75-1.29c1.05-.46,6.25-8.58,6.25-9.75,0-.53.45-1.24,1.01-1.58,1.27-.79,7.2,3.35,6.48,4.52-.3.47,1.03,1.61,2.94,2.51,1.91.91,4,2.29,4.65,3.06.64.78,1.62,1.41,2.18,1.41s2.31,1.35,3.89,3c1.58,1.65,3.31,3,3.86,3s.99.72.99,1.61c0,1.01.55,1.39,1.5,1.03.91-.35,1.5,0,1.5.89,0,.81.68,1.47,1.5,1.47s1.5.48,1.5,1.06.44.79.97.46c1.19-.74,7.23,2.25,8.33,4.12.44.75,1.45,1.36,2.25,1.36s1.45.66,1.45,1.47c0,.89.59,1.24,1.5.89.82-.31,1.5-.08,1.5.53s.84,1.11,1.87,1.11,3,.9,4.4,2c1.4,1.1,5.17,3.24,8.38,4.77,3.22,1.53,7.65,4.02,9.85,5.53,2.2,1.51,5.69,3.2,7.75,3.76,3.24.88,3.75,1.41,3.75,3.92,0,1.6-.48,3.2-1.06,3.56-.59.36-1.49,1.62-2.02,2.81-.52,1.18-1.73,3.32-2.68,4.76-8.03,12.05-16.08,26.95-20.62,38.14-.51,1.27-1.1,2.38-1.59,3.06-.67.46-1.75.37-4.1-.39-.9-.3-1.93-.67-3.01-1.06ZM156.46,430.38c1.86-.72,5.77-7.81,4.83-8.76-.34-.34-.13-.62.47-.62s1.63-1.69,2.3-3.75c1.42-4.39,5.87-13.53,6.94-14.25,1.61-1.09,6.99-13.09,7.24-16.14q.26-3.24-10.74-7.7c-13.65-5.53-42.3-19.48-43.5-21.18-.28-.39-1.51-1.03-2.75-1.41-1.24-.39-2.25-1.12-2.25-1.64s-.5-.93-1.12-.93-4.64-2.47-8.95-5.49c-7.11-4.98-10.93-6.18-10.93-3.44,0,.47-1.31,2.2-2.9,3.83-1.6,1.63-2.68,3.19-2.4,3.47.51.51-.14,1.39-4.95,6.62-1.5,1.64-2.74,3.38-2.75,3.89h0c-.04.54-4.14,4.97-9.15,9.89l-9.15,9,3.81,3.75c.84,1.2,2.52,2.65,5.89,5.35.72.62,1.4,1.18,1.98,1.63,2.1,1.65,4.34,3.46,4.97,4.03.63.57,2.72,2.12,4.65,3.46,1.93,1.33,4.23,3.22,5.12,4.21.89.99,2.12,1.8,2.75,1.8s1.13.45,1.13,1,.68,1,1.5,1,1.5.45,1.5,1,.68,1,1.5,1,1.5.52,1.5,1.17.28.88.62.54c.82-.81,10.38,4.01,12.63,6.37.97,1.01,3.67,2.41,6,3.09,2.34.69,4.85,1.84,5.58,2.55.73.72,1.71,1.07,2.17.78.45-.28,1,0,1.21.62.2.62,1.59,1.13,3.08,1.13s2.71.39,2.71.87,1.35.88,3,.88,3,.42,3,.94c0,.83,2.61,1.34,9.67,1.89,1.19.09,2.9-.11,3.79-.45ZM256.75,575.37c1.24-.33,2.25-1.05,2.25-1.6s2.25-6.16,5-12.46c2.75-6.31,5-11.89,5-12.41s1.11-2.69,2.46-4.84c1.35-2.14,2.77-5.17,3.15-6.73.38-1.56,1.3-3.72,2.04-4.8,2.59-3.78,1.71-5.25-3.9-6.52-2.89-.65-6.6-1.79-8.25-2.52-1.65-.74-5.25-1.89-8-2.56s-5.45-1.55-6-1.96c-.55-.41-4.15-1.95-8-3.43-8.45-3.24-17.87-7.76-18.33-8.79-.19-.41-1.2-.75-2.25-.75s-1.92-.41-1.92-.9-1.41-1.39-3.13-1.99c-1.72-.6-5.43-2.51-8.24-4.25-2.82-1.73-6.59-3.34-8.37-3.58-2.83-.38-3.39-.08-4.31,2.39-.58,1.56-2.05,3.78-3.26,4.95-1.2,1.16-2.87,3.18-3.69,4.47-.82,1.3-3.86,4.71-6.75,7.57-2.89,2.87-5.25,5.48-5.25,5.82s-2.51,3.02-5.58,5.97q-5.58,5.36-3.89,7.96c.94,1.42,2.03,2.59,2.43,2.59s2.26,1.47,4.14,3.26c1.87,1.79,6.04,4.83,9.26,6.75,3.23,1.92,6.09,4.05,6.36,4.74s1.12,1.25,1.89,1.25,1.39.48,1.39,1.06.45.78,1,.44,1-.14,1,.44.88,1.06,1.95,1.06,2.32.66,2.77,1.46c1.8,3.22,28.03,13.43,42.78,16.64,8.96,1.96,11.01,2.14,14.25,1.27ZM403.6,721.96c9.92,2.06,14.3,2.39,16.14,1.22,1.85-1.18,15.89-48.88,14.73-50.05-.23-.23-.63.21-.89.98-.29.87-.83,2.6-1.5,4.86.56-2.14.91-3.71.91-4.18.01-2.41-2.02-3.25-13.99-5.81-5.77-1.23-14.06-3.29-18.4-4.58-4.35-1.28-8.24-2.12-8.65-1.87-.41.25-1-.21-1.31-1.04-.32-.82-1.4-1.49-2.4-1.49-1.82,0-22.17-7.88-27.61-10.69-5.97-3.09-7.44-2.76-9.83,2.17-1.21,2.49-2.56,4.52-3,4.52s-.8.61-.8,1.37-.88,2.47-1.95,3.84c-1.07,1.36-2.08,3.1-2.25,3.88-.16.78-1.09,2-2.05,2.72-.96.72-1.75,1.95-1.75,2.75s-.46,1.44-1.03,1.44-1.32.75-1.67,1.67c-.36.92-1.36,2.47-2.22,3.43-5.81,6.47-7.9,11.9-4.58,11.9.83,0,1.5.53,1.5,1.17s.3.86.67.5c.78-.79,9.06,3.82,11.62,6.48.98,1.02,2.46,1.85,3.27,1.85s4.96,1.74,9.21,3.87c9.41,4.7,21.81,9.48,32.98,13.09-5.17-1.53-10.11-3.12-13.8-4.51-9.72-3.66-12.05-4.61-20.2-8.28-8.97-4.05-4.75-1.13,5.5,3.79,12.4,5.96,31.26,12.48,43.35,15ZM213.56,306.63c.03-.07,1.49-3.11,3.25-6.75,1.75-3.65,3.19-7.1,3.19-7.67s.41-1.19.9-1.38c.85-.31,1.72-1.86,8.1-14.41,1.38-2.71,2.88-5.2,3.34-5.53.46-.34.68-1.67.5-2.96-.26-1.79-1.51-2.76-5.26-4.1-2.7-.96-5.19-2.19-5.52-2.73s-3.66-2.35-7.39-4.02c-3.73-1.68-7.46-3.73-8.3-4.57s-1.93-1.28-2.41-.98c-.49.3-1.69-.19-2.67-1.1-.99-.9-5.84-4.24-10.79-7.43-4.95-3.18-10.17-6.85-11.59-8.14-3.55-3.23-8.66-6.86-9.65-6.86-.5,0-1.82,1.03-3.6,2.75-1.97,1.91-4.52,4.67-7.16,7.81-2.2,2.61-7.26,8-11.25,11.96-3.99,3.97-7.25,7.61-7.25,8.09,0,.65,1.52,2.53,3.85,4.92.6,1.42,1.29,2.47,1.85,2.48.25,0,1.09.57,2.2,1.43,1.28,1.18,2.66,2.38,4.06,3.56.69.58,1.42,1.19,2.14,1.8,1.36,1.17,2.72,2.32,3.81,3.22.84.71,1.54,1.31,2.01,1.71,4.58,3.97,4.97,4.26,5.94,4.27h.02c.57,0,2.15,1.12,3.53,2.5,1.37,1.38,2.97,2.5,3.54,2.5s1.05.45,1.05,1,.68,1,1.5,1,1.5.45,1.5,1,.68,1,1.5,1,1.5.45,1.5,1,.91,1,2.03,1,2.29.67,2.61,1.5c.31.83,1.2,1.5,1.97,1.5s1.39.48,1.39,1.06.41.8.91.49c.51-.31,1.07-.17,1.25.32.47,1.21,12.4,7.13,14.38,7.13.88,0,2.29.69,3.14,1.53.96.97,2.33,1.29,3.68.88,1.17-.36,2.17-.72,2.2-.78ZM412.77,721.93c1.21.11,2.19.12,2.91.01,3.18-.02,3.53-.51,4.87-3.69.24-.58.55-1.44.91-2.49.09-.24.18-.49.27-.76-.46,1.49-.85,2.72-1.13,3.5-1.42,3.91-1.54,3.99-5.77,3.68-.56-.04-1.25-.12-2.06-.25ZM412.68,731.25c-4.64-.55-9.92-1.44-15.32-2.59,2.12.41,4.49.86,7.14,1.36,4.27.79,9.95,1.42,14.17,1.62-1.87-.07-3.95-.21-5.99-.39ZM447.43,664.23h.03c.12.07.2.16.27.28-.08-.12-.17-.21-.3-.28Z"/>
  <path class="cls-6" d="M211.91,540.93h0c4.19,3.32,6.96,3.41,6.98,1.52.07-.24.11-.52.11-.83,0-.49-.75-1.58-1.89-2.85-.38-.47-.83-.98-1.34-1.5-2.57-2.66-3.22-4.17-3.22-7.43,0-3.45.54-4.55,3.43-6.97,2.01-1.67,4.62-2.87,6.27-2.87,1.55,0,3.9-.71,5.22-1.57,1.93-1.26,2.83-1.34,4.6-.39,1.58.84,1.85,1.39.96,1.94-.38.24-.61.45-.68.65h-.02c-1.39,1.14-1.51,1.63-.51,2.04.32.13.83.44,1.43.85-.25.49-.17.61.22.26.03-.02.05-.04.08-.05.67.48,1.42,1.06,2.08,1.63.57.49,1.02.97,1.33,1.44.29.56.5,1.11.57,1.58.05,1.19-.82,2.32-2.59,3.43-.04.02-.07.04-.1.06-.76.33-1.6.51-2.46.49-.56-.21-1.19-.64-2.06-1.32-3.04-2.39-6.32-2.67-6.32-.54,0,.82,1.5,3.18,3.33,5.25,1.49,1.67,2.96,3.66,3.67,4.91.39.95.59,1.67.63,2.32,0,.59-.1,1.19-.28,1.8-.1.27-.22.57-.36.88-.41.93-.96,1.82-1.62,2.65-2.55,3.12-6.88,5.68-10.95,5.69h-.02c-2.36,0-4.56.45-4.9,1-.76,1.23-1.52,1.22-3.71-.06-.61-.36-1.05-.95-1.18-1.55.07-.41.1-.77.09-1.08.24-.8-.13-1.31-.98-1.31-1.05,0-2.34-1.26-3.25-2.77-.83-1.41-1.34-3.03-1.01-4.03.32-.93,1.41-2.79,2.44-4.12l1.87-2.43,4.14,3.28ZM386.49,678.99l-1.99-.25h.01-.01l3.13,3.38c.14.15.28.31.42.45,2.13,2.38,3.53,4.51,4.21,6.46.37,1.37.39,2.81.19,4.63-.28.92-.77,1.81-1.46,2.68-5,6.25-5.89,6.83-10.43,6.83-2.51,0-4.56.41-4.56.91,0,1.71-5.04.97-5.7-.83-.35-.96-1.65-2.98-2.88-4.47-2.31-2.81-2.3-4.93.07-8.12.46-.63,1.12-1.05,1.8-1.27.56.17,1.32.78,2.66,1.91,4.22,3.55,6.92,4.25,8.87,2.3,1.47-1.47,1.22-1.99-3-6.35-3.4-3.51-5.03-5.74-5.34-7.98.4-5.9,3.17-9.54,8.12-10.64,4.84-1.08,5.47-1.31,7.66-2.87.25-.18.47-.32.68-.42.48-.11.94-.11,1.34-.02.38.21.81.61,1.35,1.23.1.35.09.77-.06,1.23-.4,1.26.31,2.31,2.43,3.56.08.05.17.1.25.15-.03.22.17.35.54.33,1.05.67,1.68,1.21,1.94,1.82,0,1.06-.4,2.42-1.21,3.69l-.05.08s-.02.02-.03.04c-.47.71-.85,1.22-1.3,1.56-1.56.4-3.42.51-5.39.27l-2.26-.29ZM120.99,391.9c.01-.32-.85-1.36-1.89-2.31-.15-.14-.3-.26-.45-.36-5.86-7.35-.8-17.23,9.1-17.23,1.57,0,3.34-.49,3.94-1.09,1.47-1.47,5.43.61,4.71,2.48-.28.75.58,2.64,1.92,4.2.1.11.19.21.27.31.11.28.38.61.79.97h0c.61.79.87,1.32.81,1.9h0c-.05.58-.41,1.21-1.04,2.19-.58.9-1.35,1.9-2.05,2.67-1.19.98-2.26.5-4.36-1.29-.05-.06-.09-.11-.14-.17-1.66-1.88-2.77-2.6-2.42-1.84-2.31-1.51-4.19-1.87-4.17-.58,0,.3.95,1.74,2.3,3.56-.28.5-.16.67.31.42.43.56.9,1.16,1.38,1.77,1.7,2.13,3.14,4.51,3.68,5.98.15,2.92-1.45,6.02-3.96,8.48-3.1,2.86-7.43,4.92-11.22,4.8-1.65-.05-3.68.19-4.5.55-.26.11-.59.17-.95.17-.85-.04-1.94-.42-2.81-1.03-.26-.18-.48-.34-.68-.51-.22-.42-.03-.87.53-1.55.93-1.12.79-1.86-.78-3.56-.07-.11-.16-.2-.27-.29-.91-.99-1.5-1.86-1.76-2.7.02-1.25.3-2.56.86-3.59.28-.53.62-.96,1.01-1.29.77-.64,1.68-.93,2.62-.87,1.18.08,2.44.69,3.54,1.84.07.1.15.2.24.29.02.02.05.04.08.05.09.1.17.21.26.31,2.2,2.8,5.39,2.94,5.9.26.1-.53-.27-1.53-.93-2.64.08-.11.13-.21.13-.3ZM179.32,275.71c.08.09.19.18.34.26,4.13,3.19,8.34,3.44,8.34.29,0-.83-1.57-3.26-3.5-5.39-2.18-2.42-3.26-3.99-3.32-5.6.01-.12.03-.24.05-.36.43-1.67,1.4-3.66,2.47-5.22.21-.27.41-.52.63-.75,1.27-1.28,2.86-2.2,4.67-2.5,1.93-.31,4.53-.99,5.8-1.5,3.15-1.29,4.23-1.18,3.63.37-.27.73.42,2.15,1.53,3.16,2.54,2.29,2.57,3.74.12,5.95-1.81,1.65-2.05,1.65-4.56,0-2.35-1.54-2.8-1.57-4.15-.22-1.35,1.35-1.15,1.89,1.81,5.03,3.32,3.52,5.13,9.77,2.84,9.77-.63,0-.9.39-.6.87.74,1.2-2.41,3.85-5.42,4.57-1.38.32-4.4.72-6.72.89-1.96.14-3.12.09-4.04-.35-.87-.45-1.59-1.32-2.69-2.88-2.17-3.04-2.33-3.79-1.22-5.48.67-1,1.62-1.7,2.55-2.02.27.13.58.37.97.71.16.14.32.27.47.4ZM447.43,664.23c.13.07.22.16.3.28.28.5.13,1.43-.21,3.24-.38,2.06-1.06,4.2-1.5,4.75s-1.35,3.7-2.02,7-1.46,6.67-1.76,7.5v.03c-.04.07-.08.19-.13.35-.66,2.12-3.49,11.74-6.63,22.62l-6.21,21.5-7.39.17c-.94.02-2.03.01-3.21-.03h0c-4.22-.2-9.9-.83-14.17-1.62-2.65-.5-5.02-.95-7.14-1.36-1.08-.24-2.17-.48-3.26-.73-1.76-.41-3.42-.77-4.81-1.04-2.3-.58-4.29-1.13-5.82-1.64-.32-.17-.47-.32-.47-.46,0-1.18,3.05-.96,8.57.64,6.9,1.99,24.12,4.57,30.57,4.57h5.4l1.59-5.75c.88-3.16,3.45-12.28,5.73-20.25,10.5-36.81,10.58-37.11,9.06-38.07-.78-.49-2.42-.91-3.64-.91-8.02-.06-53.57-12.5-59.28-16.2-1.87-1.21-1.32-1.07,8.5,2.15,3.85,1.26,10.15,3.32,14,4.58,10.85,3.55,34.77,8.38,41.74,8.45l2.19.23ZM403.6,721.96c-12.09-2.52-30.95-9.04-43.35-15-10.25-4.92-14.47-7.84-5.5-3.79,8.15,3.67,10.48,4.62,20.2,8.28,3.69,1.39,8.63,2.98,13.8,4.51,9.98,3.22,18.98,5.5,24.02,5.97.81.13,1.5.21,2.06.25,4.23.31,4.35.23,5.77-3.68.28-.78.67-2.01,1.13-3.5.78-2.2,1.66-5.26,2.75-9.38,1.32-5.01,3.77-13.62,5.45-19.12.83-2.74,1.59-5.41,2.15-7.53.67-2.26,1.21-3.99,1.5-4.86.26-.77.66-1.21.89-.98,1.16,1.17-12.88,48.87-14.73,50.05-1.84,1.17-6.22.84-16.14-1.22Z"/>
  <path class="cls-1" d="M235.38,407.5c.22-8,.4-13.57.59-17.59.13-1.28.29-2.58.46-3.91,2.13-16.3,7.34-37.38,13.1-53,.21-.59.43-1.18.65-1.77l-.1.27c-4.65,13.46-4.43,14.43.91,4.07,15.92-30.86,50.7-68.76,82.41-89.79,18.91-12.55,34.37-20,58.6-28.26,6.88-2.34,13.29-4.59,14.25-5,.98-.41,1.75-.3,1.75.25s-1.46,1.57-3.25,2.28c-9.47,3.78-30.17,19.43-41.82,31.63-23.31,24.41-38.08,52.89-43.4,83.7-2.53,14.65-1.67,48.84,1.37,54.37.38.7,2.43-4.15,4.61-10.89,4.2-13.05,11.54-29.08,18.46-40.34,4.74-7.7,14.83-21.28,17.43-23.44,1.52-1.26,1.57-1.13.58,1.48-.6,1.56-2.44,8.72-4.1,15.89-2.5,10.81-3.12,16.02-3.59,30.33-.64,19.68.36,29.58,4.81,47.62,5.25,21.25,15.01,42.23,28.68,61.6,6.42,9.1,33.69,37.87,34.82,36.74.29-.3-.61-2.81-2.02-5.58-5.31-10.48-12.11-42.37-8.97-42.08.49.05,3.99,3.69,7.77,8.09,21.13,24.57,57.04,45.8,91.08,53.82,27.98,6.6,52.81,7.08,80.99,1.57,6.63-1.29,12.2-2.21,12.38-2.04.65.61-13.51,11.84-22.33,17.71-16.58,11.02-41.93,22.5-58.48,26.47-3.87.93-6.69,2.01-6.28,2.41.42.39,5.07,1.64,10.35,2.77,46.35,9.95,96.78-5.72,138.25-42.96,11.83-10.62,29.92-34.36,34.72-45.57,1.1-2.55,2.2-4.42,2.45-4.17.53.52-3.85,22.43-6.15,30.82-8.52,31.07-17.54,50.99-44.82,99-3.61,6.34-3.63,6.44-.87,3.95,1.56-1.4,4.09-3.18,5.64-3.95.33-.16.8-.5,1.38-.96-1.52,1.48-3.11,3-4.75,4.57-1.96,1.86-4.08,3.39-4.72,3.39s-1.63.9-2.22,2-1.68,2-2.43,2-1.62.67-1.93,1.5c-.32.83-1.27,1.5-2.11,1.5s-1.53.45-1.53,1-.48,1-1.07,1c-1.27,0-10.28,6.02-10.76,7.19-.19.45-.94.81-1.68.81s-1.97.62-2.73,1.38c-2.28,2.28-9.33,5.53-11.62,5.36-1.18-.09-2.14-.27-2.14-.4,0-.07.35-.65.9-1.52,2.03-2.95,4.39-6.71,6.72-10.72h0c.52-.88,1.01-1.74,1.44-2.52,2.37-4.21,3.04-5.42,2.35-5.51-.04-.01-.09-.01-.14-.01-.02,0-.03,0-.04.01-.29.02-.73.14-1.29.31-8.1,2.35-25.08,5.76-35.24,7.08-12.85,1.68-44.12,1.96-54.2.5-3.3-.48-8.12-1.1-10.7-1.39-6.51-.72-30.73-6.86-39.8-10.09-4.12-1.47-13.89-5.74-21.7-9.49-41.76-20.03-76.66-53.24-95.93-91.24-1.32-2.61-2.51-4.75-2.64-4.75-.48,0,.28,11.65,1.21,18.51,2.04,15.09,3.22,20.88,6.68,32.71,1.97,6.75,3.82,13.07,4.1,14.03,1.04,3.56-1.88,1.48-13.14-9.34-20.92-20.11-34.7-39.14-48.11-66.41-13.81-28.1-20.18-49.57-23.56-79.5-1.41-12.49-.62-41.5,1.39-50.75.75-3.44,1.03-6.25.62-6.25-1.41,0-13.95,15.83-19.32,24.39-9.23,14.7-16.31,33.99-18.6,50.7-.63,4.63-1.4,9.08-1.7,9.91-.31.83-.68,3.98-.84,7-.77,15.22-2.07,27.04-2.96,27.16-.55.07-1.76-3.13-2.68-7.11-.36-1.52-.72-2.97-1.06-4.2-.48-1.83-.91-3.19-1.13-3.54-.08-.2-.15-.35-.21-.44-.39-.63-.82-2.78-1.02-5.01.36-.27.53-1.01.23-2.11-.33-1.24-.61-2.81-.62-3.5,0-.3-.09-.57-.23-.79-.1-.77-.21-1.45-.3-1.96-.04-.21-.09-.59-.13-1.12.04-.94,0-2.22-.14-3.63-.06-.67-.13-1.3-.19-1.89-.24-5.02-.49-12.27-.67-19.86-.08-3.25-.13-6.17-.17-8.82.08-1.82.14-3.73.2-5.68ZM249.42,207.03c-1.15-.46-3.28-2.27-4.75-4.01-3.6-4.28-3.61-9.5-.02-13.83,2.29-2.76,3.27-3.19,7.36-3.19,4.45,0,8.87,2.15,11.22,5.47,1.32,1.84.81,9.03-.79,11.31-3,4.28-8.51,6.08-13.02,4.25ZM668.56,679.54c-3.85-4.47-3.54-9.76.84-14.14,6.95-6.95,17.8-2.39,18.02,7.58.06,2.69-.69,4.3-3.17,6.82-2.93,2.97-3.74,3.27-8.19,3-4.02-.24-5.4-.85-7.5-3.26ZM503.24,753.88c-7.26-4.65-4.51-15.06,4.34-16.39,3.44-.52,4.33-.21,7.24,2.57,2.75,2.63,3.26,3.79,3.02,6.8-.31,3.83-1.89,6.12-5.52,8-3.14,1.63-5.37,1.39-9.08-.98ZM256.61,640.83c-2.58-2.37-2.83-3.13-2.32-6.96.32-2.4,1.35-4.87,2.33-5.58,2.16-1.58,7.45-1.67,10.72-.18,4.08,1.86,6.05,8.48,3.41,11.43-.69.76-1.84,2.09-2.56,2.95-2.01,2.39-8.14,1.52-11.58-1.66ZM308.75,151.92c-.96-.56-1.75-1.63-1.75-2.39s-.56-1.55-1.25-1.79c-2.31-.78,1.3-9.01,4.67-10.61,4.56-2.19,9.65-.51,11.73,3.87,1.59,3.34,1.57,3.67-.37,7.15-2.52,4.52-8.69,6.3-13.03,3.77ZM333.2,599.33c-6.77-3.34-7.94-11.86-2.04-14.91,3.97-2.06,8.13-1.05,11.31,2.73,3.34,3.96,3.21,7.32-.39,10.93-3.36,3.35-4.33,3.49-8.88,1.25ZM718.09,742.27c-4.96-.93-7.14-6.34-4.56-11.32,2.74-5.31,8.86-6.09,12.75-1.62,3.01,3.45,3.17,6.38.58,10.19-2.34,3.44-3.39,3.77-8.77,2.75ZM722.97,612.31c-3.57-2.45-4.09-3.45-3.49-6.81,1.18-6.68,8.56-8.62,13.6-3.58,3.65,3.66,3.66,5.08.02,8.97-3.27,3.51-6.43,3.95-10.13,1.42ZM202.16,153.43c-7.96-3.35-6.4-13.48,2.12-13.72,5.06-.14,8.35,2.87,8.18,7.49-.23,6.27-4.32,8.74-10.3,6.23ZM52.45,457.36c3.42,3.18,2.89,7.14.56,9.53-4.54,4.15-11.4,1.88-12.58-4.42-.03-.16-.06-.32-.1-.47-.24-1.92.12-3.84,1.21-5.04,2.49-2.75,7.71-2.56,10.91.4ZM61.27,259.69c-.26-.19-.5-.4-.72-.63-.7-.82-1.15-1.81-1.36-2.87-.26-1.69.12-3.69,1.26-5.81.03-.05.07-.11.11-.16,1.96-2.8,7.41-3.02,9.79-.39.99,1.1,1.54,3.2,1.65,5.26,0,1.31-.06,2.34-.23,3.15-.07.28-.15.55-.24.79-.33.79-.86,1.28-1.72,1.57-.33.1-.68.18-1.04.24h0c-.77.12-1.71.16-2.87.16-1.81-.1-3.54-.56-4.63-1.31ZM617.68,705.22c-2.37-1.45-2.72-2.19-2.23-4.72.7-3.64,2.98-5.5,6.74-5.5,6.14,0,9.47,8.47,4.26,10.84-3.44,1.57-5.43,1.43-8.77-.62ZM666.83,593.96c4.18-4.67,8.35-9.14,9.31-9.96.09-.08.2-.18.31-.28-2.73,3.08-5.93,6.48-9.62,10.24ZM254.69,318.24c.1-.33.18-.6.23-.8.43-1.68,1.47-4.16,2.31-5.5.09-.13.17-.27.26-.43-.15.35-.3.68-.44.99-.73,1.63-1.66,3.89-2.36,5.74ZM261.9,302.08c.41-.62.81-1.44,1.11-2.26-.01.09-.01.17-.01.25,0,1.06-.4,1.93-.88,1.93-.06,0-.14.03-.22.08ZM259.27,307.25c.04-.15.08-.29.11-.43.29-1.25.97-2.74,1.61-3.61-.33.56-.66,1.27-.94,2.04-.21.55-.47,1.24-.78,2ZM263.59,297.95c.41-1.13.99-1.95,1.43-1.95h.05c-.18.22-.37.44-.57.64-.34.34-.66.81-.91,1.31ZM268.27,289.14c1.1-1.99,2.34-3.9,3.14-4.64-.71.65-2,2.63-3.14,4.64Z"/>
  <path class="cls-8" d="M651.54,604c27.28-48.01,36.3-67.93,44.82-99,2.3-8.39,6.68-30.3,6.15-30.82-.25-.25-1.35,1.62-2.45,4.17-4.8,11.21-22.89,34.95-34.72,45.57-41.47,37.24-91.9,52.91-138.25,42.96-5.28-1.13-9.93-2.38-10.35-2.77-.41-.4,2.41-1.48,6.28-2.41,16.55-3.97,41.9-15.45,58.48-26.47,8.82-5.87,22.98-17.1,22.33-17.71-.18-.17-5.75.75-12.38,2.04-28.18,5.51-53.01,5.03-80.99-1.57-34.04-8.02-69.95-29.25-91.08-53.82-3.78-4.4-7.28-8.04-7.77-8.09-3.14-.29,3.66,31.6,8.97,42.08,1.41,2.77,2.31,5.28,2.02,5.58-1.13,1.13-28.4-27.64-34.82-36.74-13.67-19.37-23.43-40.35-28.68-61.6-4.45-18.04-5.45-27.94-4.81-47.62.47-14.31,1.09-19.52,3.59-30.33,1.66-7.17,3.5-14.33,4.1-15.89.99-2.61.94-2.74-.58-1.48-2.6,2.16-12.69,15.74-17.43,23.44-6.92,11.26-14.26,27.29-18.46,40.34-2.18,6.74-4.23,11.59-4.61,10.89-3.04-5.53-3.9-39.72-1.37-54.37,5.32-30.81,20.09-59.29,43.4-83.7,11.65-12.2,32.35-27.85,41.82-31.63,1.79-.71,3.25-1.74,3.25-2.28s-.77-.66-1.75-.25c-.96.41-7.37,2.66-14.25,5-24.23,8.26-39.69,15.71-58.6,28.26-31.71,21.03-66.49,58.93-82.41,89.79-5.34,10.36-5.56,9.39-.91-4.07,1.52-4.4,3.3-9.58,3.96-11.5.67-1.92,2.02-5.3,3.01-7.5.99-2.2,2.34-5.46,3-7.25.65-1.79,1.59-3.25,2.07-3.25s.88-.87.88-1.93.67-2.6,1.5-3.43c.83-.82,1.5-1.95,1.5-2.51,0-1.27,3.94-8.28,5.41-9.63.6-.55,2.21-3.19,3.59-5.87s3.74-6.22,5.25-7.86c1.51-1.64,2.75-3.38,2.75-3.88s.45-.89,1-.89,1-.69,1-1.53.67-1.79,1.5-2.11c.83-.31,1.5-1.18,1.5-1.92s.57-1.7,1.27-2.14c.7-.44,2.12-2.15,3.15-3.8,1.04-1.65,3.8-5.02,6.16-7.5,2.35-2.48,7.31-7.76,11.01-11.75,3.71-3.99,7.26-7.25,7.91-7.25s2.61-1.8,4.38-4c1.77-2.2,3.6-4,4.08-4s2.49-1.57,4.47-3.5c1.98-1.93,3.99-3.5,4.46-3.5s2.8-1.77,5.17-3.94,5.91-4.76,7.86-5.75c1.95-1,4.15-2.37,4.89-3.06.73-.69,1.93-1.25,2.65-1.25s1.59-.68,1.9-1.5c.32-.82,1.44-1.5,2.5-1.5s2.19-.68,2.5-1.5c.32-.82,1.49-1.5,2.61-1.5s2.03-.38,2.03-.85c0-.99,17.81-9.81,26.5-13.13,3.3-1.26,6.9-2.68,8-3.16,5.39-2.35,20.18-6.86,22.49-6.86,1.43,0,3.04-.41,3.56-.9,2.39-2.27,29.92-6.49,49.45-7.59,22.06-1.24,59.56,3.78,82,10.98,15.08,4.83,16.98,5.62,34.5,14.32,15.84,7.87,18.94,9.54,19.33,10.44.19.41.75.75,1.25.75s3.11,1.57,5.79,3.5,5.17,3.5,5.54,3.5,1.63.89,2.8,1.98c1.17,1.09,3.95,3.23,6.17,4.75,2.23,1.52,4.83,3.45,5.78,4.27.94.82,3.37,2.85,5.39,4.5,4.75,3.89,25.07,24.25,28.95,29.02,1.65,2.03,3.81,4.65,4.8,5.83,8.87,10.59,22.52,32.28,30.67,48.76,3.38,6.81,6.6,13.23,7.16,14.25.57,1.03,1.2,2.6,1.42,3.5.21.9,2.15,6.59,4.31,12.64,7.35,20.61,11.92,43.17,13.27,65.5,1.02,16.75.4,43.34-1.22,52.69-.56,3.2-1.41,8.29-1.89,11.31-.49,3.02-1.84,9.1-3,13.5-1.17,4.4-2.3,9.29-2.51,10.87-.59,4.28-3.15,11.87-7.45,22.01-1.13,2.68-2.06,5.54-2.06,6.34s-.62,2.67-1.38,4.13c-.76,1.46-3.24,6.48-5.51,11.15-2.27,4.67-5.25,10.3-6.62,12.5s-2.99,5.24-3.59,6.75c-.6,1.51-1.5,2.75-2,2.75s-.9.47-.9,1.04-.9,2.01-2,3.19-2,2.74-2,3.46-.45,1.31-1,1.31-1.01.56-1.02,1.25c0,.69-1.24,2.67-2.75,4.4-1.5,1.73-3.4,4.14-4.23,5.36-2.81,4.16-7.11,9.49-8.86,10.99-.96.83-5.19,5.35-9.39,10.05s-8.9,9.18-10.44,9.95c-1.55.77-4.08,2.55-5.64,3.95-2.76,2.49-2.74,2.39.87-3.95Z"/>
</svg>