<?xml version="1.0" encoding="UTF-8"?>
<svg id="New_Layer" data-name="New Layer" xmlns="http://www.w3.org/2000/svg" viewBox="0 0 1308.06 1188.79">
  <defs>
    <style>
      .cls-1 {
        fill: #90c7e2;
      }

      .cls-1, .cls-2, .cls-3, .cls-4, .cls-5, .cls-6, .cls-7, .cls-8, .cls-9, .cls-10, .cls-11 {
        fill-rule: evenodd;
      }

      .cls-2 {
        fill: #0e2d5d;
      }

      .cls-3 {
        fill: #194176;
      }

      .cls-4 {
        fill: #00133d;
      }

      .cls-5 {
        fill: #3e99ce;
      }

      .cls-6 {
        fill: #2a846d;
      }

      .cls-7 {
        fill: #c3d9da;
      }

      .cls-8 {
        fill: #3c83be;
      }

      .cls-9 {
        fill: #245891;
      }

      .cls-10 {
        fill: #7bbfdf;
      }

      .cls-11 {
        fill: #5bb5db;
      }
    </style>
  </defs>
  <path class="cls-4" d="M1167.01,1187.19c-3.85,2.44-293.29,1.82-324.41-.69-21.8-1.75-65.36-7.33-77.21-9.89-2.54-.53-6.08-1.06-7.88-1.15-1.8-.12-2.67-.76-1.96-1.48.69-.71,17.19.9,36.67,3.57,47.43,6.48,160.27,9.98,282.6,8.73,52.32-.53,93.8-.12,92.19.9Z"/>
  <path class="cls-2" d="M1167.01,1187.19c1.61-1.01-39.87-1.43-92.19-.9-122.33,1.24-235.17-2.26-282.6-8.73-19.47-2.67-35.98-4.29-36.67-3.57-.44.44-.28.85.3,1.13-1.96-.39-3.78-.78-5.44-1.15-8.25-1.87-24.31-5.35-35.72-7.74-35.45-7.49-99.19-26.25-117.54-34.62-2.54-1.15-11.87-4.84-20.74-8.18-8.87-3.34-21.32-8.57-27.66-11.59s-18.25-8.6-26.5-12.38c-34.66-15.95-116.06-65.04-124.31-74.97-1.66-1.98-4.33-3.62-5.95-3.62s-3.53-1.54-4.24-3.46c-.74-1.91-2.4-3.46-3.71-3.46s-4.29-1.82-6.64-4.03c-2.33-2.21-7.19-6.11-10.79-8.64-3.62-2.54-8.85-6.68-11.64-9.22s-11.06-9.79-18.37-16.13c-25.86-22.45-78.01-76.12-96.31-99.1-5.05-6.34-11.09-13.39-13.41-15.65s-4.24-4.86-4.24-5.76c-.02-.9-2.93-4.75-6.48-8.55-3.55-3.8-7.17-8.46-8.02-10.37-.88-1.91-3.39-6.04-5.6-9.22-3.23-4.59-3.3-5.19-.41-2.9,2.01,1.57,4.49,2.1,5.53,1.15,1.04-.94,1.22-.53.39.92-.83,1.43.05,3.89,1.94,5.46s3.43,1.96,3.43.85,2.79,1.94,6.2,6.73c3.89,5.49,7.42,8.23,9.54,7.4,2.6-.99,2.77-.58.74,1.84-2.01,2.44-1.29,4.36,3.13,8.53,3.16,2.97,5.74,7.65,5.74,10.44,0,5.28,3.99,6.02,12.33,2.3,3.18-1.43,3.92-3.5,2.97-8.27-1.57-7.84,1.11-9.1,18.94-9.1,9.93,0,14.01-1.04,16.78-4.26,3.71-4.33,25.37-8.73,29.71-6.06,4.08,2.51,7.31-1.34,4.22-5.05-2.26-2.72-2.19-3.8.37-5.39,1.75-1.08,4.01-1.48,5.02-.85,2.88,1.77,2.17-2.49-.92-5.58-1.91-1.91-1.98-2.77-.18-2.77,1.41,0,5.95,4.4,10.07,9.79,4.13,5.39,10.62,13.16,14.45,17.26,3.8,4.08,6.22,8.14,5.37,8.99-1.82,1.82,2.58,7.74,5.74,7.74,1.2,0,1.41-1.24.46-2.77-2.26-3.64,11.96,6.45,22.17,15.74,40.72,37.01,113.55,84.88,163.03,107.14,52.82,23.74,113.71,40.72,161.93,45.17,29.18,2.67,90.55,2.12,91.52-.83.46-1.36,3.13-2.05,5.92-1.57,2.81.51,14.98-.74,27.01-2.74s23.46-3.89,25.4-4.22c1.91-.32,4.77-1.38,6.34-2.35,1.57-.97,3.8-1.15,4.98-.41,1.18.71,2.79.28,3.6-1.01s3.87-2.35,6.8-2.35,8.34-1.54,11.98-3.43c3.62-1.91,8.5-3.46,10.86-3.46,2.33-.02,7.01-1.43,10.37-3.13s9.75-4.66,14.17-6.57c23.42-10.05,41.48-19.08,41.48-20.72,0-1.04,1.48-1.87,3.3-1.87s4.68-1.29,6.36-2.88c1.71-1.59,6.84-4.79,11.41-7.12,4.59-2.33,11.64-7.26,15.67-10.95,4.03-3.69,7.93-6.71,8.64-6.71s9.91-7.31,20.42-16.23c17.49-14.87,25.77-23.32,41.65-42.54,3.13-3.8,9.29-11.06,13.67-16.13,4.36-5.07,7.95-9.93,7.95-10.83s2.63-4.43,5.81-7.88c3.2-3.46,6.43-8.69,7.17-11.64.74-2.95,2.17-5.37,3.18-5.37s2.97-2.86,4.36-6.34c1.38-3.48,5.14-10.49,8.34-15.56,3.2-5.07,6.94-11.8,8.3-14.98,1.36-3.18,4.19-9.31,6.29-13.64s3.85-8.48,3.89-9.22c.02-.74,1.22-3.41,2.65-5.95,1.41-2.54,2.72-5.37,2.88-6.29.18-.92,1.75-5.07,3.46-9.22,4.68-11.29,10.44-31.74,8.94-31.74-.71,0-.23-1.29,1.06-2.88,1.31-1.59,2.97-5.99,3.69-9.79.71-3.8,2.86-13.14,4.77-20.74,1.89-7.61,4.01-18.48,4.68-24.2.65-5.72,2.19-19.13,3.39-29.82s1.66-35.58,1.01-55.31c-.65-19.73-1.24-37.94-1.31-40.47-.18-6.61-5.21-39.04-7.7-49.55-.74-3.18-1.66-7.84-2.03-10.37-1.29-8.71-4.24-20.74-5.62-23.05-.76-1.27-1.68-3.6-2.03-5.19-1.52-6.8-2.63-10.99-3.07-11.52-.25-.32-.6-1.36-.78-2.3s-1.06-2.88-1.96-4.29c-1.57-2.47-.09-5.51,2.67-5.51,2.6,0,7.42,13.74,5.76,16.43-1.06,1.71-.69,2.1.99,1.06,1.61-.99,3.46.39,4.59,3.5,1.27,3.39,2.49,4.22,3.57,2.44.92-1.48,4.72-2.7,8.46-2.7,4.98,0,6.78,1.08,6.78,4.15,0,5.49,4.4,9.66,10.26,9.75,7.86.12,13.51,5.9,12.24,12.49-.74,3.96-.09,5.88,2.03,5.88,1.94,0,3.13,2.6,3.13,6.78,0,8.8,2.79,10.3,9.52,5.07,6.27-4.86,18.14-7.7,18.14-4.33,0,1.29,1.38,1.13,3.2-.39,2.49-2.07,4.06-1.82,6.91,1.04,2.05,2.03,3.71,4.54,3.71,5.58s3.53,2.54,7.84,3.36c7.79,1.45,10.6,4.84,10.6,12.77,0,2.28,1.5,5.37,3.32,6.89s3.85,5.02,4.47,7.77c.65,2.77.58-3.8-.12-14.57-.69-10.76-1.38-22.95-1.57-27.08-.16-4.13-1.08-7.49-2.05-7.49s-1.75-4.15-1.75-9.22-1.04-9.22-2.3-9.22-2.3-2.58-2.3-5.76,1.29-5.76,2.88-5.76c1.71,0,4.72,7.77,7.4,19.01,2.49,10.46,4.77,20.05,5.07,21.32,12.54,52.16,17.52,126.62,12.17,182.07-3.87,40.22-16.11,104.77-21.99,116.02-1.75,3.36-3.2,8.27-3.2,10.88-.02,2.63-2.1,9.06-4.63,14.29-2.54,5.25-4.61,11.62-4.61,14.13s-1.04,5.23-2.3,6.02-2.3,3.43-2.3,5.9-1.04,4.47-2.3,4.47-2.33,1.82-2.37,4.03c-.05,2.21-1.59,6.04-3.46,8.5s-3.39,6.36-3.39,8.64-1.04,4.17-2.3,4.17-2.3,2.01-2.3,4.45-1.43,5.88-3.18,7.63c-1.77,1.75-5.42,7.28-8.09,12.26-7.97,14.75-12.61,22.49-18.11,30.19-2.86,3.99-5.19,8.39-5.19,9.77s-.81,2.54-1.8,2.54-3.78,3.36-6.18,7.49c-2.4,4.13-5.05,8-5.88,8.64s-2.47,2.83-3.64,4.91c-6.57,11.75-64.39,72.11-82.74,86.4-6.34,4.91-14.1,11.27-17.26,14.13-3.18,2.86-6.8,5.21-8.09,5.23s-6.48,3.66-11.55,8.11c-5.07,4.43-12.08,9.33-15.56,10.88-3.48,1.57-6.34,3.62-6.34,4.56s-1.48,1.75-3.3,1.75c-3.55,0-10.53,6.06-10.53,9.13,0,1.94,11.15,5.81,14.52,5.05,1.04-.23,3.39,1.11,5.25,2.97,1.87,1.87,4.93,2.81,6.8,2.1,1.87-.71,3.39-.25,3.39,1.01,0,2.37,34.25,15.88,37.57,14.82,1.04-.32,3.43.99,5.37,2.93,1.94,1.94,4.49,2.93,5.67,2.21,1.18-.74,3.71.25,5.65,2.17,1.91,1.94,5.02,2.93,6.89,2.21s3.39-.09,3.39,1.38,1.04,2.05,2.33,1.27c1.27-.81,3.89.14,5.83,2.05,1.91,1.94,5.02,2.93,6.89,2.21,1.87-.71,3.39-.25,3.39.99,0,2.26,10.81,6.29,14.52,5.46,1.04-.23,3.39,1.11,5.25,2.97s4.93,2.81,6.8,2.1c1.87-.71,3.39-.09,3.39,1.38s1.04,2.05,2.33,1.27c1.27-.81,3.94.18,5.92,2.17,3.25,3.25,8.18,4.68,13.18,3.83,1.04-.16,3.39,1.22,5.25,3.09s4.93,2.81,6.8,2.1c1.87-.71,3.39-.25,3.39.99,0,2.33,10.9,6.29,14.77,5.37,1.15-.28,2.74.58,3.57,1.89.81,1.31,5.51,3.78,10.44,5.49,18.18,6.31,11.52,7.74-43.12,9.29-67.48,1.89-291.57,1.43-352.99-.48,64.72,2.01,307.93,2.33,311.46.09ZM1184.89,494.61c4.93,9.2,7.93,6.68,7.97-6.71.05-7.17-.76-8.64-4.63-8.64-6.8,0-8.18,6.36-3.34,15.35ZM1165.26,426.11c0,1.08-1.59,2.56-3.55,3.32-3.36,1.29-5.37-1.24-6.55-8.18-.28-1.68-1.73-5.3-3.23-8.02-2.19-3.99-2.1-5.21.58-6.22,2.03-.78,2.86-.14,2.17,1.66-.6,1.59,1.52,5.74,4.72,9.22,3.23,3.46,5.85,7.17,5.85,8.23ZM196,815.28c.88,2.79,1.27,5.02.88,4.98-1.59-.18-6.5-6.75-6.5-8.67,0-1.13-2.07-3.92-4.61-6.22-5.09-4.61-6.5-10.19-1.52-6.06,1.71,1.41,3.94,1.8,4.98.85,1.04-.94,1.2-.48.35.99-.85,1.48-.12,4.13,1.64,5.88,1.75,1.73,3.89,5.44,4.79,8.25ZM274.49,894.1c1.91,3.09,5.76.69,5.76-3.6s-8.37-4.24-10.09.25c-.76,1.98-.41,3,.74,2.28,1.18-.74,2.79-.25,3.6,1.06ZM1240.16,486.17c.78,1.27-.18,2.3-2.17,2.3s-3.6-1.04-3.6-2.3.97-2.3,2.17-2.3,2.81,1.04,3.6,2.3ZM757.67,1175.46c1.84.12,5.25.62,7.72,1.15,11.43,2.47,52.39,7.74,74.83,9.7-27.26-2.3-62-6.91-82.55-10.86Z"/>
  <path class="cls-9" d="M489.52,237.84c-11.06,11.09-21.57,20.17-23.37,20.17s-4.56-1.54-6.13-3.46-3.78-3.46-4.91-3.46c-2.88,0-15.83-11.82-15.83-14.45,0-3.32,9.75-14.73,31.02-36.25,20.95-21.23,24.73-24.48,47.34-40.7,8.25-5.92,15.51-11.36,16.13-12.1.62-.76,5.81-3.76,11.52-6.68,5.72-2.9,20.21-10.37,32.27-16.55,12.05-6.18,23.97-11.89,26.5-12.7,4.22-1.34,3.92-2.07-3.66-8.78-4.56-4.06-11.15-9.43-14.66-11.96-3.5-2.54-7.56-5.72-9.01-7.08-4.56-4.26-56.67-37.87-58.72-37.87-1.08,0-3.76-1.98-5.92-4.38-3.83-4.24-3.53-4.56,9.15-9.31,7.24-2.7,13.69-4.36,14.36-3.69s2.35.3,3.73-.81c2.35-1.89,39.94-11.04,47.45-11.55,1.91-.14,7.1-.83,11.52-1.57,13.32-2.14,22.75-2.97,54.16-4.75,35.93-2.03,37.01-2.01,69.14.23,13.94.97,28.99,1.91,33.42,2.07,4.43.18,9.43,1.2,11.09,2.26,1.66,1.08,5.49,1.34,8.5.58s6.18-.25,7.03,1.13c.85,1.36,3.96,1.89,6.91,1.15,2.95-.74,6.04-.28,6.84,1.06.83,1.31,3.53,1.75,6.02.97s5.99-.23,7.77,1.24c1.8,1.5,4.45,1.96,5.92,1.06,1.45-.9,3.41-.44,4.33,1.06.92,1.48,5.99,2.88,11.27,3.09,5.28.21,9.59,1.27,9.59,2.35s2.07,1.31,4.61.51c2.81-.9,4.61-.41,4.61,1.24s1.59,2.1,3.85,1.22c2.12-.81,4.59-.28,5.49,1.18.88,1.43,6.41,3.16,12.28,3.83,5.85.67,10.65,2.07,10.65,3.13s1.54,1.34,3.46.6c1.91-.71,3.46-.21,3.46,1.15s1.54,1.89,3.46,1.15c1.91-.71,3.46-.21,3.46,1.15s1.54,1.89,3.46,1.15c1.91-.71,3.46-.25,3.46,1.04,0,2.6,22.49,10.95,27.08,10.03,1.59-.32,2.88.44,2.88,1.68,0,2.35,7.38,5.42,14.61,6.06,2.33.21,4.93,1.43,5.76,2.72.83,1.29,5.16,4.17,9.59,6.41,4.43,2.21,10.14,5.88,12.68,8.09,2.54,2.24,8.5,4.75,13.25,5.6,4.75.85,8.64,2.37,8.64,3.36,0,1.71,8.04,6.22,12.15,6.82.97.16,4.01,2.37,6.78,4.93,2.74,2.56,5.85,4.66,6.91,4.66s5.25,3.43,9.36,7.63c4.1,4.19,9.33,8.32,11.62,9.2,2.3.88,3.6,2.56,2.86,3.73-.74,1.2-.14,2.93,1.36,3.85,1.68,1.04,2.07.67,1.06-1.01-3.83-6.15,5.83-1.89,20,8.83,9.47,7.17,15.44,13.44,15.9,16.71.48,3.46,2.58,5.49,6.18,5.99,3.46.51,4.89-.14,3.89-1.73-.85-1.36-1.11-2.49-.6-2.49s4.19,5.23,8.18,11.64c3.99,6.41,5.97,11.02,4.38,10.21-1.57-.81-1.06.02,1.13,1.82,2.21,1.82,3.27,4.01,2.37,4.91-.88.9.14.97,2.26.14,4.68-1.8,15.21,8.6,14.75,14.54-.18,2.19,1.04,3.71,2.67,3.36,3.55-.71,10.09,5.19,8.04,7.26-.78.78-.05,1.43,1.64,1.43s2.42.65,1.64,1.43c-2.12,2.12,4.86,8.32,7.54,6.66,1.31-.81,1.73.09.94,2.12-1.01,2.65-2.42,2.97-5.6,1.27-2.35-1.27-4.91-3.32-5.67-4.59-.78-1.24-3.92-2.28-6.96-2.28-5.78,0-11.66-7.51-9.1-11.64.78-1.27.58-2.17-.48-1.98-1.04.18-5.25.21-9.38.07-6.73-.25-7.49-.99-7.49-7.19,0-5.37-1.01-6.91-4.61-6.91-5.72,0-6.31,8.04-.83,11.11,2.07,1.15,3.11,3.18,2.3,4.49-1.73,2.79-9.86,1.15-16.39-3.3-2.51-1.68-7.31-3.09-10.69-3.09-4.31,0-6.5-1.45-7.4-4.91-1.18-4.47-2.49-4.79-14.68-3.78-7.38.6-16.27.12-19.8-1.11-5.02-1.75-8.97-1.13-18.18,2.83-9.26,3.99-12.15,4.43-13.6,2.07-1.01-1.61-1.36-3.73-.78-4.68.6-.94-1.06-2.86-3.66-4.26-2.6-1.41-4.13-3.53-3.39-4.72.74-1.2-.25-2.19-2.24-2.19-2.33,0-3.6,2.1-3.6,6.02,0,5.37-.65,5.85-6.2,4.45-3.41-.85-7.95-3.55-10.07-6.02-2.12-2.44-5.35-4.45-7.17-4.45s-4.54-1.24-6.06-2.77c-1.52-1.52-2.77-1.84-2.77-.71s-1.29.35-2.88-1.75c-1.59-2.1-6.52-4.22-10.95-4.7-4.43-.46-12.08-2.58-16.99-4.68s-10.35-3.83-12.1-3.83-3.18-.97-3.18-2.17c0-3.39-19.27-14.06-21.46-11.87-2.1,2.1-19.45-1.08-23.39-4.29-1.31-1.06-11.22-3.71-21.99-5.88-10.76-2.17-20.74-4.86-22.15-6.02-1.41-1.13-5.67-1.45-9.52-.67-4.06.81-7.61.32-8.53-1.15-1.01-1.66-5.97-2.03-14.22-1.06-8.39.99-14.47.51-18.07-1.41-3.43-1.84-9.06-2.35-15.44-1.41-5.51.81-18.32,2.42-28.46,3.57-41.92,4.72-70.32,11.06-103.71,23.09-18.11,6.52-61.07,27.89-61.07,30.35,0,1.06-1.29,1.94-2.88,1.96s-7.19,3.39-12.45,7.49-12.01,9.24-14.98,11.39c-13.21,9.56-22.84,18.14-41.6,36.99ZM132.34,654.12c-5.97.16-12.26,1.8-14.13,3.64-2.9,2.93-4.1,2.49-9.4-3.46-3.32-3.73-6.96-6.8-8.09-6.8s-2.63-2.4-3.36-5.32-4.08-11.5-7.4-19.01c-3.32-7.54-5.99-13.94-5.92-14.24.21-.76-5.58-16.59-9.03-24.8-3.39-8-3.04-6.87-5.44-17.29-1.04-4.43-2.51-9.1-3.27-10.37-.78-1.27-1.73-4.68-2.12-7.58-.41-2.9-1.87-8.09-3.27-11.52-1.41-3.43-2.77-7.79-3.02-9.7-.69-4.86-5.72-23.51-7.47-27.66-1.41-3.36-2.03-6.06-3.78-16.71-.48-2.86-1.08-5.19-1.36-5.19-.65,0-2.03-7.49-3.27-17.86-.58-4.75-.12-8.64,1.04-8.64,1.77,0,25.19,33.28,25.19,35.79,0,.51,5.72,9.29,12.68,19.52,6.96,10.23,12.68,19.36,12.68,20.28s2.58,4.45,5.76,7.88c3.18,3.41,5.76,7.05,5.76,8.09s1.82,3.53,4.03,5.51c2.21,1.98,5.6,5.95,7.49,8.8,1.89,2.83,5.02,7.08,6.91,9.38,15.86,19.27,24.04,30.68,24.57,34.27.25,1.8,5.76,8.62,12.21,15.16,6.45,6.52,11.02,12.61,10.12,13.51-2.77,2.74,11.04,15.26,16.25,14.73,3.87-.39,4.68.6,4.08,4.96-.46,3.3.16,4.86,1.61,3.96,1.31-.81,3.39.41,4.61,2.72,1.87,3.48,1.29,4.26-3.34,4.66-3.69.3-5.58-.74-5.58-3.11,0-1.96-1.04-2.93-2.3-2.14s-2.3.58-2.3-.48c0-1.66-15.28-1.96-51.12-.97ZM132.27,685.28c-.39,2.6-2.6,4.63-5.28,4.84-3.92.28-4.68-1.24-5.05-9.89l-.41-10.21,5.72,5.37c3.16,2.97,5.39,7.38,5.02,9.89ZM1082.86,180.43c4.47,1.8,8.64,1.71,8.6-.21-.07-3.62-3.57-6.8-7.44-6.75-4.61.05-5.49,5.21-1.15,6.96ZM1020.82,208.3c.69,1.77-1.31,2.79-5.49,2.79-7.17,0-7.21-2.54-.07-4.4,2.47-.65,4.98.07,5.55,1.61Z"/>
  <path class="cls-8" d="M381.43,875.21c-4.75-3.99-9.66-7.72-13.09-9.98.6-.6-.23-1.8-2.44-4.59-2.1-2.67-7.97-8.37-13.04-12.65l-7.08-5.99c-2.72-3.25-5.53-6.73-7.7-9.54-4.13-5.39-8.67-9.79-10.07-9.79-.23,0-.41.02-.58.05.12-1.43-5.32-8.34-12.47-15.83-7.42-7.79-13.11-14.17-12.61-14.17s-4.31-6.48-10.69-14.4c-12.51-15.51-46.85-65.66-60.38-88.15-4.59-7.61-10.33-15.97-12.77-18.58-5.97-6.36-10.19-14.5-8.73-16.85.65-1.04-.81-4.03-3.2-6.61-2.42-2.6-3.78-5.35-3-6.11.76-.78.18-1.41-1.29-1.41s-2.7-1.48-2.7-3.3-1.41-4.7-3.13-6.43c-1.73-1.71-5.37-7.74-8.11-13.41-12.79-26.39-21.62-42.61-23.55-43.33-1.15-.41-1.52-1.71-.81-2.88.71-1.15.21-2.1-1.13-2.1s-2.44-1.48-2.44-3.3-1.59-4.89-3.55-6.82c-1.94-1.96-3.5-4.1-3.48-4.77.12-2.58-7.74-17.38-9.22-17.38-.85,0-3.34-4.66-5.53-10.37-2.17-5.72-4.91-10.37-6.06-10.37s-1.94-.78-1.73-1.73c.67-2.86-5.58-14.4-7.81-14.4-1.13,0-1.43-1.04-.65-2.3.78-1.27.25-2.3-1.15-2.3s-1.98-.94-1.27-2.1c.71-1.18.44-2.47-.62-2.88-1.06-.44-5.37-8.3-9.59-17.49-4.19-9.2-8.6-16.71-9.75-16.71s-1.5-.94-.78-2.12,0-3.53-1.59-5.23c-1.59-1.73-3.25-4.66-3.66-6.5-.41-1.87-1.98-4.17-3.46-5.12-1.48-.92-1.84-1.73-.81-1.73,1.01-.02-3.25-10.16-9.52-22.52-13.41-26.48-17.52-35.68-16.96-38.03.21-.94-.71-1.73-2.05-1.73s-1.89-.88-1.22-1.96-.28-3.94-2.1-6.34c-1.82-2.42-3.34-6.2-3.39-8.41s-1.11-4.03-2.37-4.03-2.07-.78-1.82-1.73c.28-.94-.81-4.06-2.37-6.91-1.59-2.86-2.3-5.19-1.59-5.19s-.41-2.58-2.49-5.76-3.11-5.76-2.3-5.76-.07-2.33-1.94-5.19c-4.84-7.4-38.67-109.7-37.11-112.24.71-1.15.23-2.77-1.08-3.57s-1.77-2.44-1.04-3.66c1.98-3.18,4.29-1.15,15.88,14.1,5.76,7.56,9.17,13.83,7.61,13.92s-1.11.88,1.01,1.73c3.5,1.41,41.07,49.21,41.07,52.25,0,.71,6.22,8.78,13.83,17.93,7.58,9.17,27.31,33.12,43.84,53.22,16.52,20.1,35.45,42.71,42.08,50.27,19.15,21.85,104.33,107.58,129.32,130.15l22.77,20.58-4.29,8c-2.44,4.52-4.82,14.87-5.51,23.92l-1.2,15.97-19.98-16.04c-23.07-18.55-45.89-38.37-64-55.64-11.34-10.81-18.58-14.93-18.58-10.58,0,2.49,11.48,21.55,22.68,37.66,45.77,65.89,59.92,84.28,94.86,123.3,39.8,44.48,99.03,96.73,137.13,121,8.87,5.65,16.66,10.81,17.29,11.48s6.08,3.78,12.1,6.91c6.02,3.13,10.95,6.61,10.95,7.7s-4.93-.88-10.95-4.4c-6.02-3.53-13.02-7.54-15.56-8.87-2.54-1.36-10.65-6.59-18-11.66-7.38-5.07-15.19-10.26-17.38-11.52s-11.89-8.78-21.57-16.71c-17.98-14.73-24.73-17.52-25.05-10.37-.09,2.21-.51,5.85-.94,8.07-.46,2.44,2.56,6.8,7.67,11.02,6.96,5.74,7.84,7.35,4.98,9.17-5.39,3.43-8.57,2.7-9.89-2.33-1.91-7.28-8.55-5.78-8.55,1.96s7.42,15.53,11.96,12.81c2.19-1.34,2.12-.71-.25,2.21-2.95,3.62-3.5,3.66-5.3.44-1.13-1.98-3.2-3.6-4.63-3.6s1.41,3.57,6.34,7.95c7.31,6.5,9.59,7.47,12.38,5.19,2.49-1.98,3-2.01,1.82-.07-.88,1.48-.09,4.22,1.75,6.06,1.87,1.84,2.81,3.92,2.14,4.61-.69.69,1.18,2.49,4.13,4.01,2.97,1.52,8.5,5.6,12.31,9.08,3.8,3.48,15.74,12.31,26.5,19.64,21.99,14.96,28.88,20.77,14.98,12.61-31.78-18.62-77-54.92-103.23-82.81-18.14-19.31-26.48-24.84-12.12-8.04,28.76,33.65,43.51,49.53,71.03,76.52,17.15,16.8,30.56,30.54,29.8,30.54s3.25,3.02,8.87,6.68c5.65,3.69,14.2,10.44,19.04,14.98,4.82,4.56,9.75,8.3,10.95,8.3s2.17,1.11,2.17,2.47-3.16.05-7.01-2.88c-3.85-2.95-10.35-7.74-14.4-10.65-4.08-2.93-18.46-15.1-31.97-27.03-28.69-25.37-35.56-29.38-39.99-23.35-2.19,3-3.23,3.27-3.96,1.08-.67-2.01-1.89-1.36-3.64,1.94-2.17,4.03-1.82,5.97,1.84,10.62,2.47,3.13,3.76,6.41,2.9,7.28-.88.88-.07,2.56,1.8,3.73s2.26,2.17.85,2.17c-1.38.02-4.38-2.03-6.68-4.56-2.58-2.86-3.11-4.61-1.38-4.61,1.54,0,2.1-1.15,1.22-2.56-1.13-1.84-2.01-1.82-3.18.07-1.13,1.82-3.53,1.13-7.77-2.21-3.39-2.65-5.58-3.46-4.89-1.8.32.78,1.48,2.14,3.09,3.73ZM294.96,589.42c5.21,5.95,8.44,4.63,7.81-3.11-.32-3.73-1.89-5.65-4.61-5.65-3.32,0-2.74-1.29,2.81-6.34,3.83-3.48,7.44-9.45,8.07-13.25.99-6.04-.18-7.95-9.26-14.98-5.72-4.43-11.66-9.47-13.23-11.2-1.57-1.75-8.5-8.64-15.42-15.33-12.17-11.78-12.65-12.03-15.19-7.24-3.09,5.88-.6,12.12,5.6,14.08,2.44.78,4.93,4.38,5.72,8.25.85,4.31,3.55,7.86,7.19,9.52,5.72,2.6,5.95,3.32,6.91,21.85.14,2.74,1.5,6.45,3.02,8.3,1.52,1.82,1.98,4.08,1.04,5.02-.94.92-.67,1.45.6,1.13,3.41-.81,10.37,2.65,10.37,5.19,0,1.2-1.29,1.43-2.88.51s-.92.53,1.45,3.25ZM115.19,92.79c9.98,7.21,17.24,13.11,16.13,13.09-2.37,0-7.93-3.6-31.94-20.72-9.77-6.96-21.99-15.49-27.13-18.94s-11.52-8.3-14.17-10.79c-2.67-2.47-6.34-4.84-8.18-5.25-1.84-.39-6.11-3.66-9.47-7.24-3.36-3.57-7.81-6.73-9.86-7.03-2.05-.3-6.57-3.09-10.05-6.2-4.96-4.43-4.43-3.16,2.44,5.9,8.2,10.79,7.86,10.58-5.25-3.2C4.06,18.07,1.32,13.71,5.97,13.71c1.24,0,22.24,14.84,46.67,32.98,24.41,18.14,52.55,38.88,62.55,46.09ZM39.48,278.13c-1.2,4.79-.88,4.98,4.49,2.54,5.28-2.42,8.23-8.8,4.08-8.85-.94,0-3.53-3.16-5.72-7.01-2.19-3.87-2.97-6.38-1.73-5.62,3.18,1.98,2.81-.28-.65-3.89-1.59-1.68-7.95-9.01-14.1-16.29-6.18-7.28-12.19-13.25-13.39-13.25s-.74,1.45,1.06,3.25c1.77,1.8,3.07,5.65,2.86,8.57-.23,2.95,1.5,7.38,3.83,9.86s4.22,5.69,4.22,7.1,3.69,6.13,8.18,10.51c6.13,5.92,7.84,9.22,6.87,13.09ZM395.49,272.41c0,2.47-9.73,2.07-13.83-.58-3.07-1.98-3.07-2.26,0-2.37,1.91-.07-.37-2.14-5.05-4.61-7.56-4.01-15.14-11.09-9.5-8.87,7.61,2.97,28.37,15,28.37,16.43ZM806.07,1029.23c-1.68.14-3,.76-3.32,1.68-.62,1.89-26.34,2.81-52.36,2.49,1.29-.21,2.49-.44,3.55-.71,5.02-1.36,21.06-2.65,35.65-2.88,5.67-.07,11.06-.25,16.48-.58ZM237.04,505.4c1.59.65,3.02,1.24,3.18,1.34s1.5-1.27,2.95-3.02c2.07-2.49,1.82-4.06-1.04-6.91-2.03-2.05-4.66-3.71-5.83-3.71-3.23,0-2.58,10.97.74,12.31ZM377.05,755.89c0,3.92,1.31,4.59,8,4.15,7.56-.51,7.79-.78,4.26-4.68-5.16-5.72-12.26-5.39-12.26.53ZM267.12,563.08c-.81.81-.37,1.45.94,1.45,3.55,0,8.2-6.36,6.59-8.97-.78-1.24-3.39-2.12-5.78-1.94-3.36.25-3.92,1.24-2.35,4.17,1.13,2.1,1.41,4.47.6,5.28ZM198.78,462.04c.71,1.87,3.25,3.39,5.65,3.39,4.08,0,4.1-.28.48-4.49-4.24-4.93-8.18-4.22-6.13,1.11ZM404.18,815.56c-1.52,2.01-2.93,3.92-3.09,4.26-.18.35-1.64-.94-3.25-2.88-1.61-1.91-2.54-3.6-2.05-3.69.46-.12,3.16-.46,5.99-.76,4.36-.48,4.72-.02,2.4,3.07ZM442.62,923.65c-21.34-14.98-41.09-30.38-56.35-44.23l-.05-.05c.62.48,1.24.97,1.89,1.45,4.68,3.46,17.35,13.62,28.12,22.61,7.77,6.45,16.71,13.3,26.39,20.21ZM298.65,574.33c.02.94-.88,1.73-2.01,1.73-2.56,0-5.46-7.1-3.64-8.9,1.36-1.36,5.6,4.01,5.65,7.17ZM387.82,844.16c2.54,2.56,5.37,1.75,5.37-1.52,0-1.71-1.54-3.09-3.46-3.09-3.64,0-4.49,2.05-1.91,4.61ZM47.83,298.48c-.48,2.42.37,3.46,2.3,2.81,3.6-1.2,4.22-6.34.81-6.52-1.27-.07-2.67,1.59-3.11,3.71ZM806.58,1029.2c15.42-.94,31.16-2.95,54.51-6.82-1.94.32-13.37,2.21-25.4,4.22s-24.2,3.25-27.01,2.74c-.71-.12-1.43-.16-2.1-.14ZM10.61,232.52c0,1.34,1.04,2.44,2.3,2.44s2.3-.46,2.3-1.01-1.04-1.66-2.3-2.44-2.3-.32-2.3,1.01ZM724.12,1032.62c-4.7-.23-9.08-.53-12.88-.88-6.71-.62-13.67-1.48-20.81-2.58,6.06.9,11.89,1.57,17.35,1.98,5.02.39,11.04.94,16.34,1.48ZM642.16,1019.13c-31.04-8.04-63.22-19.24-92.86-32.57,29.13,13.09,62.02,24.5,92.86,32.57ZM364.63,865.83c-.14.39-.46.62-.99.62-1.45,0-3.18-1.27-4.45-2.81,1.29,1.2,3.48,2.07,5.44,2.19ZM327.23,824.34c.23.32.55.67.97,1.08.32.32.62.67.9,1.01-.16-.14-.32-.25-.48-.35-.71-.44-1.2-1.08-1.38-1.75ZM330.91,830.29c.09,1.06-.46,1.54-1.8.71.9.55,1.64.23,1.8-.71Z"/>
  <path class="cls-5" d="M401.94,760.85c11.39,9.66,22.95,18.92,34.66,27.75,21.3,16.09,101.13,64.02,106.61,64.02,2.26,0,4.75,1.04,5.53,2.3.78,1.27,3.43,2.3,5.9,2.3s4.47.92,4.47,2.05,2.86,2.58,6.34,3.27c3.48.67,15.58,4.61,26.87,8.73,15.19,5.58,19.38,7.93,16.13,9.1-2.42.85-5.14.41-6.04-.99s-1.36.55-1.04,4.36c.41,4.86,1.73,6.8,4.47,6.57,2.17-.16,3.46.44,2.88,1.36-.55.9,3.6,6.2,9.24,11.73,5.65,5.55,10.28,11.34,10.28,12.88s2.7,5.99,5.97,9.89c3.27,3.92,5.09,7.19,4.03,7.33-1.06.12.65,1.06,3.83,2.07l5.76,1.84-6.36.23c-3.5.14-15.95-1.89-27.66-4.47-54.3-11.98-103.13-31.34-148.21-59.05.83.48,1.66.99,2.47,1.45,13.9,8.16,7.01,2.35-14.98-12.61-10.76-7.33-22.7-16.16-26.5-19.64-3.8-3.48-9.33-7.56-12.31-9.08-2.95-1.52-4.82-3.32-4.13-4.01.67-.69-.28-2.77-2.14-4.61-1.84-1.84-2.63-4.59-1.75-6.06,1.18-1.94.67-1.91-1.82.07-2.79,2.28-5.07,1.31-12.38-5.19-4.93-4.38-7.77-7.95-6.34-7.95s3.5,1.61,4.63,3.6c1.8,3.23,2.35,3.18,5.3-.44,2.37-2.93,2.44-3.55.25-2.21-4.54,2.72-11.96-5.23-11.96-12.81s6.64-9.24,8.55-1.96c1.31,5.02,4.49,5.76,9.89,2.33,2.86-1.82,1.98-3.43-4.98-9.17-5.12-4.22-8.14-8.57-7.67-11.02.44-2.21.85-5.85.94-8.07.32-7.14,7.08-4.36,25.05,10.37,9.68,7.93,19.38,15.44,21.57,16.71s10,6.45,17.38,11.52c7.35,5.07,15.46,10.3,18,11.66,2.54,1.34,9.54,5.35,15.56,8.87,6.02,3.53,10.95,5.51,10.95,4.4s-4.93-4.56-10.95-7.7c-6.02-3.13-11.48-6.25-12.1-6.91s-8.41-5.83-17.29-11.48c-16.2-10.33-36.21-25.7-56.93-43.37ZM115.19,92.79c-4.54-3.27-12.81-9.33-22.77-16.69,10.23,7.54,18.83,13.81,23.62,17.24,10.46,7.51,19.01,14.43,19.01,15.42s1.08,1.75,2.4,1.75,5.21,2.58,8.62,5.76c3.43,3.18,7.44,5.76,8.94,5.76s3.04.81,3.48,1.77c1.22,2.83,24.18,18.97,26.99,18.97,1.43,0,2.58,1.04,2.58,2.3s1.54,2.3,3.46,2.3,3.46,1.04,3.46,2.3,1.29,2.35,2.88,2.4,6.48,3.16,10.86,6.91c4.4,3.76,9.31,6.82,10.95,6.82s2.97,1.04,2.97,2.3,2.07,2.3,4.61,2.3,4.61.97,4.61,2.14,6.48,6.04,14.4,10.81c7.93,4.77,14.93,9.38,15.56,10.23.62.88,4.79,3.55,9.22,5.92,4.43,2.4,13.78,8.07,20.74,12.61,27.79,18.09,43.84,27.43,47.2,27.43,1.91,0,3.5.85,3.5,1.89s11.06,7.49,24.89,14.61c-.09-.02-.16-.07-.25-.09-5.65-2.21,1.94,4.86,9.5,8.87,4.68,2.47,6.96,4.54,5.05,4.61-3.07.12-3.07.39,0,2.37.65.41,1.45.78,2.33,1.08-5.6-1.01-13.51-2.86-24.22-5.6-78.15-19.96-133.67-46.53-195.48-93.59-24.84-18.9-87.53-78.13-126.25-119.29-10.33-10.97-17.86-19.08-23.16-25.05.88.97,1.84,1.96,2.83,3.02,13.11,13.78,13.46,13.99,5.25,3.2-6.87-9.06-7.4-10.33-2.44-5.9,3.48,3.11,8,5.9,10.05,6.2,2.05.3,6.5,3.46,9.86,7.03,3.36,3.57,7.63,6.84,9.47,7.24,1.84.41,5.51,2.79,8.18,5.25,2.65,2.49,9.03,7.33,14.17,10.79s17.35,11.98,27.13,18.94c24.01,17.12,29.57,20.72,31.94,20.72,1.11.02-6.15-5.88-16.13-13.09ZM381.43,875.21c-1.61-1.59-2.77-2.95-3.09-3.73-.69-1.66,1.5-.85,4.89,1.8,4.24,3.34,6.64,4.03,7.77,2.21,1.18-1.89,2.05-1.91,3.18-.07.88,1.41.32,2.56-1.22,2.56-1.73,0-1.2,1.75,1.38,4.61,2.3,2.54,5.3,4.59,6.68,4.56,1.41,0,1.01-.99-.85-2.17s-2.67-2.86-1.8-3.73c.85-.88-.44-4.15-2.9-7.28-3.66-4.66-4.01-6.59-1.84-10.62,1.75-3.3,2.97-3.94,3.64-1.94.74,2.19,1.77,1.91,3.96-1.08,4.43-6.04,11.29-2.03,39.99,23.35,13.51,11.94,27.89,24.11,31.97,27.03,4.06,2.9,10.56,7.7,14.4,10.65,3.85,2.93,7.01,4.24,7.01,2.88,0-.37-.07-.69-.18-1.01,9.84,7.86,18.76,14.52,26.09,19.36,4.75,3.13,8.64,6.48,8.64,7.42.02.94,1.18,1.73,2.58,1.73s11.29,5.28,21.96,11.73c41.71,25.19,89.31,44.92,133.35,55.27,11.41,2.7,21.78,5.58,23.05,6.41,2.74,1.8,5.9,1.96,61.67,3.57,16.69.48,27.36.71,36.97.37-.71.05-1.43.09-2.14.14-.16,0-.35,0-.51.02-5.42.32-10.81.51-16.48.58-14.59.23-30.63,1.52-35.65,2.88-1.06.28-2.26.51-3.55.71-9.08-.09-18.18-.37-26.27-.78-5.3-.53-11.32-1.08-16.34-1.48-5.46-.41-11.27-1.08-17.35-1.98h0c-15.4-2.33-31.67-5.74-48.26-10.03-30.84-8.07-63.72-19.47-92.86-32.57-30.95-13.92-71.05-37.87-106.68-62.92-9.68-6.91-18.62-13.76-26.39-20.21-10.76-8.99-23.44-19.15-28.12-22.61-.65-.48-1.27-.97-1.89-1.45-1.52-1.38-3.16-2.81-4.79-4.17ZM294.96,589.42c-2.37-2.72-3.04-4.17-1.45-3.25s2.88.69,2.88-.51c0-2.54-6.96-5.99-10.37-5.19-1.27.32-1.54-.21-.6-1.13.94-.94.48-3.2-1.04-5.02-1.52-1.84-2.88-5.55-3.02-8.3-.97-18.53-1.2-19.24-6.91-21.85-3.64-1.66-6.34-5.21-7.19-9.52-.78-3.87-3.27-7.47-5.72-8.25-6.2-1.96-8.69-8.2-5.6-14.08,2.54-4.79,3.02-4.54,15.19,7.24,6.91,6.68,13.85,13.57,15.42,15.33,1.57,1.73,7.51,6.78,13.23,11.2,9.08,7.03,10.26,8.94,9.26,14.98-.62,3.8-4.24,9.77-8.07,13.25-5.55,5.05-6.13,6.34-2.81,6.34,2.72,0,4.29,1.91,4.61,5.65.62,7.74-2.6,9.06-7.81,3.11ZM39.48,278.13c.97-3.87-.74-7.17-6.87-13.09-4.49-4.38-8.18-9.08-8.18-10.51s-1.89-4.61-4.22-7.1-4.06-6.91-3.83-9.86c.21-2.93-1.08-6.78-2.86-8.57-1.8-1.8-2.28-3.25-1.06-3.25s7.21,5.97,13.39,13.25c6.15,7.28,12.51,14.61,14.1,16.29,3.46,3.62,3.83,5.88.65,3.89-1.24-.76-.46,1.75,1.73,5.62,2.19,3.85,4.77,7.01,5.72,7.01,4.15.05,1.2,6.43-4.08,8.85-5.37,2.44-5.69,2.26-4.49-2.54ZM237.04,505.4c-3.32-1.34-3.96-12.31-.74-12.31,1.18,0,3.8,1.66,5.83,3.71,2.86,2.86,3.11,4.43,1.04,6.91-1.45,1.75-2.79,3.11-2.95,3.02s-1.59-.69-3.18-1.34ZM377.05,755.89c0-5.92,7.1-6.25,12.26-.53,3.53,3.89,3.3,4.17-4.26,4.68-6.68.44-8-.23-8-4.15ZM406.67,844.23c26.76,26.76,59.46,56.28,85.92,77.53h-.16c-1.2,0-6.13-3.73-10.95-8.3-4.84-4.54-13.39-11.29-19.04-14.98-5.62-3.66-9.61-6.68-8.87-6.68s-12.65-13.74-29.8-30.54c-6.25-6.13-11.85-11.68-17.1-17.03ZM267.12,563.08c.81-.81.53-3.18-.6-5.28-1.57-2.93-1.01-3.92,2.35-4.17,2.4-.18,5,.69,5.78,1.94,1.61,2.6-3.04,8.97-6.59,8.97-1.31,0-1.75-.65-.94-1.45ZM198.78,462.04c-2.05-5.32,1.89-6.04,6.13-1.11,3.62,4.22,3.6,4.49-.48,4.49-2.4,0-4.93-1.52-5.65-3.39ZM404.18,815.56c2.33-3.09,1.96-3.55-2.4-3.07-2.83.3-5.53.65-5.99.76-.48.09.44,1.77,2.05,3.69,1.61,1.94,3.07,3.23,3.25,2.88.16-.35,1.57-2.26,3.09-4.26ZM21.09,223.51c8.37,10.99,18.39,24.38,26.83,35.81-10.16-13.02-21.23-26.34-23.07-27.08-2.12-.85-2.58-1.64-1.01-1.73,1.06-.07-.12-2.88-2.74-7.01ZM298.65,574.33c-.05-3.16-4.29-8.53-5.65-7.17-1.82,1.8,1.08,8.9,3.64,8.9,1.13,0,2.03-.78,2.01-1.73ZM387.82,844.16c-2.58-2.56-1.73-4.61,1.91-4.61,1.91,0,3.46,1.38,3.46,3.09,0,3.27-2.83,4.08-5.37,1.52ZM47.83,298.48c.44-2.12,1.84-3.78,3.11-3.71,3.41.18,2.79,5.32-.81,6.52-1.94.65-2.79-.39-2.3-2.81ZM10.61,232.52c0-1.34,1.04-1.8,2.3-1.01s2.3,1.89,2.3,2.44-1.04,1.01-2.3,1.01-2.3-1.11-2.3-2.44ZM272.19,623.51c26.32,34.66,55.27,67.44,86.03,97.51-13.07-12.7-25.51-25.54-36.48-37.8-20.07-22.4-33.28-38-49.55-59.71ZM362.44,790.23c-9.59-9.26-16.5-15.6-16.78-15.3-.65.62,2.4,4.49,20.58,25.49-4.19-4.79-8.67-9.98-13.51-15.67-13.71-16.04-6.73-11.73,9.7,5.49ZM449.93,864.07c-15.69-10.53-30.93-22.13-45.82-34.82,15.05,12.61,31.09,24.82,45.82,34.82ZM215.86,543.31c6.87,10.49,17.1,25.37,31.57,46.02-6.13-8.69-12.91-18.39-20.56-29.41-3.8-5.44-7.61-11.25-11.02-16.62ZM2.56,201.27c.44,0,.88.12,1.27.37.18.12.65.6,1.36,1.45-1.11-1.06-1.96-1.64-2.63-1.82ZM395.49,272.41c0-.32-1.08-1.2-2.81-2.37,1.8,1.15,2.81,1.96,2.81,2.26v.12ZM394.13,273.68c.55-.18.97-.44,1.2-.74-.21.32-.6.58-1.2.74Z"/>
  <path class="cls-3" d="M1165.26,426.11c0-1.06-2.63-4.77-5.85-8.23-3.2-3.48-5.32-7.63-4.72-9.22.69-1.8-.14-2.44-2.17-1.66-1.11.41-1.77.88-2.01,1.54-.18-.71-.35-1.45-.48-2.14-1.27-7.03-18.94-42.91-22.13-44.94-1.22-.78-2.19-2.33-2.14-3.46.14-3.62-15.95-30.86-18.23-30.86-1.2,0-2.19-1.54-2.19-3.46s-1.04-3.46-2.3-3.46-2.3-1.54-2.3-3.46-1.04-3.46-2.3-3.46-2.3-1.59-2.3-3.53-1.54-4.13-3.46-4.86c-1.91-.71-3.46-2.79-3.46-4.61s-1.54-3.87-3.46-4.61c-1.91-.71-3.46-2.4-3.46-3.71,0-4.47-53.98-59.69-71.19-72.83-5.85-4.45-11.89-9.2-13.44-10.56-6.2-5.46-9.38-7.72-25.42-18.09-9.2-5.92-21.11-13-26.5-15.72-5.39-2.7-11.34-6.18-13.25-7.72-1.91-1.54-7.1-4.15-11.52-5.76-1.29-.48-2.54-.92-3.73-1.38,2.24.71,4.93,1.71,7.49,2.79,4.91,2.1,12.56,4.22,16.99,4.68,4.43.48,9.36,2.6,10.95,4.7,1.59,2.1,2.88,2.88,2.88,1.75s1.24-.81,2.77.71c1.52,1.52,4.24,2.77,6.06,2.77s5.05,2.01,7.17,4.45c2.12,2.47,6.66,5.16,10.07,6.02,5.55,1.41,6.2.92,6.2-4.45,0-3.92,1.27-6.02,3.6-6.02,1.98,0,2.97.99,2.24,2.19-.74,1.2.78,3.32,3.39,4.72,2.6,1.41,4.26,3.32,3.66,4.26-.58.94-.23,3.07.78,4.68,1.45,2.35,4.33,1.91,13.6-2.07,9.22-3.96,13.16-4.59,18.18-2.83,3.53,1.22,12.42,1.71,19.8,1.11,12.19-1.01,13.51-.69,14.68,3.78.9,3.46,3.09,4.91,7.4,4.91,3.39,0,8.18,1.41,10.69,3.09,6.52,4.45,14.66,6.08,16.39,3.3.81-1.31-.23-3.34-2.3-4.49-5.49-3.07-4.89-11.11.83-11.11,3.6,0,4.61,1.54,4.61,6.91,0,6.2.76,6.94,7.49,7.19,4.13.14,8.34.12,9.38-.07,1.06-.18,1.27.71.48,1.98-2.56,4.13,3.32,11.64,9.1,11.64,3.04,0,6.18,1.04,6.96,2.28.76,1.27,3.32,3.32,5.67,4.59,3.18,1.71,4.59,1.38,5.6-1.27.78-2.03.37-2.93-.94-2.12-2.67,1.66-9.66-4.54-7.54-6.66.78-.78.05-1.43-1.64-1.43s-2.42-.65-1.64-1.43c2.05-2.07-4.49-7.97-8.04-7.26-1.64.35-2.86-1.18-2.67-3.36.46-5.95-10.07-16.34-14.75-14.54-2.12.83-3.13.76-2.26-.14.9-.9-.16-3.09-2.37-4.91-2.19-1.8-2.7-2.63-1.13-1.82,1.59.81-.39-3.8-4.38-10.21-1.27-2.05-2.54-3.99-3.64-5.67,34.62,31.09,78.08,78.52,95.05,105.05,1.27,1.98,8.48,12.81,16.02,24.08,12.4,18.51,47.36,84.35,47.36,89.19,0,1.08,3.11,8.69,6.91,16.92,3.8,8.2,6.91,15.86,6.91,16.99,0,3.25,6.8,23.67,9.43,28.37.94,1.66,2.88,7.7,5.05,15.23-1.82-5.65-3.55-9.1-4.68-9.1-1.59,0-2.88,2.58-2.88,5.76s1.04,5.76,2.3,5.76,2.3,4.15,2.3,9.22.78,9.22,1.75,9.22,1.89,3.36,2.05,7.49c.18,4.13.88,16.32,1.57,27.08.69,10.76.76,17.33.12,14.57-.62-2.74-2.65-6.25-4.47-7.77s-3.32-4.61-3.32-6.89c0-7.93-2.81-11.32-10.6-12.77-4.31-.83-7.84-2.33-7.84-3.36s-1.66-3.55-3.71-5.58c-2.86-2.86-4.43-3.11-6.91-1.04-1.82,1.52-3.2,1.68-3.2.39,0-3.36-11.87-.53-18.14,4.33-6.73,5.23-9.52,3.73-9.52-5.07,0-4.17-1.2-6.78-3.13-6.78-2.12,0-2.77-1.91-2.03-5.88,1.27-6.59-4.38-12.38-12.24-12.49-5.85-.09-10.26-4.26-10.26-9.75,0-3.07-1.8-4.15-6.78-4.15-3.73,0-7.54,1.22-8.46,2.7-1.08,1.77-2.3.94-3.57-2.44-1.13-3.11-2.97-4.49-4.59-3.5-1.68,1.04-2.05.65-.99-1.06,1.66-2.7-3.16-16.43-5.76-16.43-1.73,0-2.95,1.18-3.25,2.67-.35-1.08-1.24-3.39-2.12-5.37l-.07-.14c1.13,1.66,2.56,2.1,4.38,1.41,1.96-.76,3.55-2.24,3.55-3.32ZM196,815.28c-.9-2.81-3.04-6.52-4.79-8.25-1.75-1.75-2.49-4.4-1.64-5.88.85-1.48.69-1.94-.35-.99-1.04.94-3.27.55-4.98-.85-4.98-4.13-3.57,1.45,1.52,6.06,2.54,2.3,4.61,5.09,4.61,6.22,0,.81.9,2.47,2.03,4.13-1.13-.18-2.03-1.5-2.03-3.09,0-1.68-2.07-4.96-4.61-7.26-2.54-2.3-4.61-5.12-4.61-6.27,0-2.21-13.48-22.82-16.25-24.84-.85-.62-2.3-3.48-3.18-6.34-.9-2.86-2.58-5.19-3.78-5.19s-2.14-1.48-2.14-3.3-1.43-4.7-3.16-6.45c-1.73-1.73-3.87-5.42-4.75-8.2-.9-2.79-2.83-6.41-4.36-8.02-3.8-4.15-36.62-71.08-43.88-89.54l-.18-.51c.41.51.85.78,1.24.78,1.13,0,4.77,3.07,8.09,6.8,5.3,5.95,6.5,6.38,9.4,3.46,1.87-1.84,8.16-3.48,14.13-3.64,35.84-.99,51.12-.69,51.12.97,0,1.06,1.04,1.27,2.3.48s2.3.18,2.3,2.14c0,2.37,1.89,3.41,5.58,3.11,4.63-.39,5.21-1.18,3.34-4.66-1.22-2.3-3.3-3.53-4.61-2.72-1.45.9-2.07-.67-1.61-3.96.6-4.36-.21-5.35-4.08-4.96-5.21.53-19.01-11.98-16.25-14.73.9-.9-3.66-6.98-10.12-13.51-6.45-6.55-11.96-13.37-12.21-15.16-.35-2.28-3.78-7.77-10.35-16.41,13.14,15.46,43.77,48.68,56.97,61.54,7.93,7.7,12.51,10.65,14.08,9.08.9-.9,1.06-2.03.48-3.41.6,1.22.81,2.26.48,2.79-1.45,2.35,2.77,10.49,8.73,16.85,2.44,2.6,8.18,10.97,12.77,18.58,13.53,22.49,47.87,72.64,60.38,88.15,6.38,7.93,11.2,14.4,10.69,14.4s5.19,6.38,12.61,14.17c7.14,7.49,12.58,14.4,12.47,15.83-.9.14-.97.67-.21,1.64.18.67.67,1.31,1.38,1.75.16.09.32.21.48.35,1.11,1.38,1.75,2.86,1.82,3.85-.16.94-.9,1.27-1.8.71-1.01-.62-3.27-.23-5.02.85-2.56,1.59-2.63,2.67-.37,5.39,3.09,3.71-.14,7.56-4.22,5.05-4.33-2.67-26,1.73-29.71,6.06-2.77,3.23-6.84,4.26-16.78,4.26-17.84,0-20.51,1.27-18.94,9.1.94,4.77.21,6.84-2.97,8.27-8.34,3.71-12.33,2.97-12.33-2.3,0-2.79-2.58-7.47-5.74-10.44-4.43-4.17-5.14-6.08-3.13-8.53,2.03-2.42,1.87-2.83-.74-1.84-2.12.83-5.65-1.91-9.54-7.4-3.41-4.79-6.2-7.81-6.2-6.73s-1.54.71-3.43-.85-2.77-4.03-1.94-5.46c.83-1.45.65-1.87-.39-.92-1.04.94-3.53.41-5.53-1.15-2.88-2.28-2.81-1.68.41,2.9,1.06,1.52,2.19,3.27,3.18,4.89-1.11-1.41-2.42-2.97-3.83-4.52-2.77-3.04-5.19-6.18-6.27-8.14.48.44.92.74,1.24.76.39.05,0-2.19-.88-4.98ZM836.45,133.4c-26.3-4.45-62.71-7.01-94.38-5.97-20.44.67-37.17,1.96-52.87,4.36,11.34-1.98,23.48-3.69,37.01-5.21,10.14-1.15,22.95-2.77,28.46-3.57,6.38-.94,12.01-.44,15.44,1.41,3.6,1.91,9.68,2.4,18.07,1.41,8.25-.97,13.21-.6,14.22,1.06.92,1.48,4.47,1.96,8.53,1.15,3.85-.78,8.11-.46,9.52.67,1.13.92,7.81,2.86,15.99,4.7ZM1184.89,494.61c-4.84-8.99-3.46-15.35,3.34-15.35,3.87,0,4.68,1.48,4.63,8.64-.05,13.39-3.04,15.9-7.97,6.71ZM132.27,685.28c.37-2.51-1.87-6.91-5.02-9.89l-5.72-5.37.41,10.21c.37,8.64,1.13,10.16,5.05,9.89,2.67-.21,4.89-2.24,5.28-4.84ZM1066.22,135.98c-12.56-9.13-20.67-12.4-17.12-6.68,1.01,1.68.62,2.05-1.06,1.01-1.5-.92-2.1-2.65-1.36-3.85.74-1.18-.55-2.86-2.86-3.73-2.28-.88-7.51-5-11.62-9.2-2.28-2.35-4.61-4.45-6.41-5.85,1.73.97,3.5,1.91,5.21,2.74,6.02,2.93,14.06,8.16,17.86,11.59,2.65,2.42,9.54,7.93,17.35,13.97ZM909.48,157.06c-14.93-5.58-22.52-8.78-24.13-10.14-.81-.67-2.44-1.27-4.22-1.59,3.36.37,6.08.3,6.84-.46,2.19-2.19,21.46,8.48,21.46,11.87,0,.12.02.23.05.32ZM364.63,865.83c-1.96-.12-4.15-.99-5.44-2.19-1.45-1.8-2.26-3.94-1.29-4.93.85-.85-1.57-4.91-5.37-8.99-1.82-1.96-4.26-4.75-6.75-7.72l7.08,5.99c5.07,4.29,10.95,9.98,13.04,12.65,2.21,2.79,3.04,3.99,2.44,4.59-3.27-2.19-5.19-3.04-4.24-1.54.53.88.69,1.64.53,2.14ZM1082.86,180.43c-4.33-1.75-3.46-6.91,1.15-6.96,3.87-.05,7.38,3.13,7.44,6.75.05,1.91-4.13,2.01-8.6.21ZM1095.06,159.05l.02.05c.99,1.59-.44,2.24-3.89,1.73-3.6-.51-5.69-2.54-6.18-5.99-.41-2.81-4.86-7.86-12.15-13.78,1.22.94,2.44,1.87,3.66,2.79,5.6,4.19,11.87,9.36,18.53,15.21ZM274.49,894.1c-.81-1.31-2.42-1.8-3.6-1.06-1.15.71-1.5-.3-.74-2.28,1.73-4.49,10.09-4.72,10.09-.25s-3.85,6.68-5.76,3.6ZM991.69,86.86c-1.01-.28-2.14-.53-3.32-.74-4.75-.85-10.72-3.36-13.25-5.6-2.26-1.96-6.98-5.07-11.13-7.28,5.3,2.7,10.92,5,13,5,1.75,0,5.58,2.07,8.5,4.61,1.98,1.71,4.36,3.23,6.2,4.01ZM1020.82,208.3c-.58-1.54-3.09-2.26-5.55-1.61-7.14,1.87-7.1,4.4.07,4.4,4.17,0,6.18-1.01,5.49-2.79ZM1240.16,486.17c-.78-1.27-2.4-2.3-3.6-2.3s-2.17,1.04-2.17,2.3,1.61,2.3,3.6,2.3,2.95-1.04,2.17-2.3ZM1304.99,562.53c3.85,37.96,4.08,74.26.71,109.17,3.16-32.61,2.72-71.81-.71-109.17ZM604.06,111.62c3.27-.99,3.8-1.68.35-5.07,3.48,3.41,2.95,4.08-.35,5.12-2.54.81-14.45,6.52-26.5,12.7-10.83,5.55-23.69,12.15-30.31,15.56,3.27-1.75,6.91-3.69,10.72-5.65,34.06-17.7,41-21.11,46.09-22.66ZM1293.81,490.74l-.28-1.11c-.3-1.27-2.56-10.81-5.05-21.25,1.84,7.03,3.62,14.29,4.84,20.1.16.76.32,1.52.48,2.26ZM87.42,617.33c.76,1.8,1.64,3.76,2.54,5.83,2.28,5.16,4.56,10.81,6.02,14.8-2.56-6.36-5.21-12.79-6.89-16.69-.58-1.36-1.15-2.7-1.66-3.94ZM1022.73,105.9c-1.13-.14-4.15-2.17-6.8-4.66-2.77-2.56-5.81-4.77-6.78-4.93.97.16,3.83,2.19,6.34,4.52,1.36,1.27,4.08,3.16,7.24,5.07ZM879.31,145.1c-.3-.02-.6-.05-.88-.05-1.82,0-4.77-.71-7.56-1.77,2.63.78,5.65,1.41,8.44,1.82ZM997.01,89.4c0,.97,2.37,2.77,5.21,4.29-2.83-1.5-5.21-3.27-5.21-4.19,0-.58-1.34-1.34-3.39-2.05.09.02.18.02.28.02,1.71,0,3.11.88,3.11,1.94ZM209.69,839c1.59,2.26,4.06,5.25,6.48,7.86,3.55,3.8,6.45,7.65,6.48,8.55-.02-.9-3.13-4.96-6.91-9.01-2.58-2.74-4.84-5.53-6.04-7.4ZM127.92,572.21c-1.38-1.71-2.86-3.5-4.38-5.35-1.89-2.3-5.02-6.55-6.91-9.38,1.89,2.83,5.02,7.01,6.91,9.26.99,1.18,2.6,3.2,4.38,5.46ZM1161.55,439.14c.25.6.44,1.13.51,1.52.12.67.35,1.38.55,1.87-.25-.58-.58-1.52-.81-2.44-.07-.3-.16-.62-.25-.94ZM962.24,72.32c-2.35-1.18-4.63-2.54-6.38-3.73,1.71,1.15,3.96,2.47,6.38,3.73ZM1153.13,415.58c-.07-.12-.14-.21-.21-.32-.28-.44-.58-1.08-.9-1.84.39.69.76,1.43,1.11,2.17ZM80.67,598.74c-1.89-5.14-4.13-10.95-5.67-14.61,1.66,3.94,3.87,9.66,5.67,14.61Z"/>
  <path class="cls-6" d="M483.14,136.97c-16.13,10.74-38.63,28.3-50.01,39l-20.7,19.47-22.86-12.17c-24.2-12.86-57.04-33.05-89.05-54.74-32.82-22.22-78.57-64.62-74.05-68.66,1.06-.94,10.23-4.7,20.37-8.32,21.92-7.84,53.77-24.78,75.85-40.33l15.93-11.22,10.58,7.97c9.5,7.17,64.72,44.76,74.37,50.63,2.12,1.29,10.92,6.41,19.59,11.36,8.64,4.98,16.25,9.79,16.87,10.74.62.92,12.54,7.65,26.46,14.96,23.76,12.47,31.16,17.31,31.16,20.44,0,.71-1.15,1.31-2.58,1.31s-15.79,8.78-31.92,19.54ZM342.97,437.55c-9.24,7.74-18.07,14.06-19.59,14.04-11.22-.09-85.46-57.25-109.66-84.42-5.49-6.15-11.94-13.41-14.36-16.13-2.4-2.72-4.38-6.08-4.38-7.49s-1.04-2.56-2.3-2.56c-3.94,0-2.54-5.02,2.65-9.52,2.74-2.37,6.29-4.31,7.91-4.31s4.31-1.29,5.99-2.88,10.86-8.69,20.37-15.79c9.54-7.1,21.34-16.71,26.25-21.32l8.92-8.41,16.39,14.59c9.01,8.02,19.43,17.08,23.16,20.17,3.73,3.07,10.99,9.31,16.13,13.9,10.9,9.68,55.89,41.85,65.41,46.76,12.28,6.36,12.98,9.24,4.56,18.85-10.21,11.64-27.08,27.49-47.45,44.53ZM616.74,814.59c-1.71,3.18-3.69,5.74-4.43,5.74-5.83-.14-71.95-39.48-80.18-47.71-2.3-2.3-7.61-6.61-11.78-9.59-4.15-2.97-9.91-9.1-12.79-13.64-4.75-7.51-4.89-8.6-1.61-12.08,6.41-6.82,11.68-13.76,11.78-15.51.02-.94,3.6-6.84,7.91-13.14,4.31-6.27,7.31-12.24,6.68-13.25-.62-.99.14-1.82,1.71-1.82s2.21-.6,1.48-1.34c-.71-.74.21-5.81,2.05-11.27,2.74-8.02,4.26-9.7,7.88-8.76,2.47.62,4.47,1.98,4.47,2.97s4.93,5.55,10.95,10.09c6.02,4.54,15.6,11.94,21.32,16.41,9.73,7.65,25.14,18.18,43.79,29.94,4.43,2.79,11.41,6.38,15.49,7.97,9.4,3.64,10.83,8.3,6.38,20.9-4.13,11.66-19.43,39.87-22.26,41-1.06.44-1.91,2.24-1.91,4.03s-.85,3.27-1.91,3.27-3.3,2.58-5,5.76ZM430.06,683.34c-1.08.88-2.1,1.71-3.07,2.49-12.42,10.03-16.73,13.51-19.91,12.68-1.94-.51-3.48-2.6-6.18-5.81-16.57-19.71-19.24-23.32-19.24-26.11,0-1.61-.88-2.95-1.96-2.95s-5.46-7.01-9.75-15.56c-4.29-8.55-8.85-16.32-10.14-17.24-1.29-.94-1.48-1.73-.39-1.73,1.06-.02-.67-4.49-3.85-9.93-3.2-5.44-8-16.41-10.69-24.41-5.21-15.49-4.01-21.02,4.61-21.02,2.28,0,4.47-.81,4.91-1.82.41-.99,5.42-4.52,11.13-7.84,5.72-3.34,15.03-10.35,20.7-15.63,5.67-5.25,10.65-8.6,11.04-7.42,1.04,3.11,36.28,59.39,41.25,65.87,2.33,3.02,11.22,14.45,19.77,25.4,16.16,20.63,17.03,22.1,13.32,22.1-3.2,0-21.46,12.72-41.55,28.92ZM389.73,142.41c3.8.99,9.33,1.36,12.31.78,6.29-1.2,16.5-10.72,16.5-15.37,0-1.75,1.13-3.89,2.51-4.75s1.84-3.78,1.06-6.48c-.81-2.72-1.84-6.64-2.33-8.76-2.51-10.74-22.61-24.98-33.51-23.72-3.18.35-6.91.74-8.32.85-1.41.09-6.38,2.77-11.04,5.95-10.74,7.28-18.48,7.31-25.7.12-10.46-10.49-5-21.53,7.38-14.91,5.3,2.83,6.18,2.6,10.16-2.58,5.74-7.44,5.69-7.7-2.9-14.93-6.34-5.32-8.9-6.04-17.84-5.02-8.23.92-11.85,2.81-16.99,8.87-5.44,6.43-6.34,9.24-5.39,16.73,1.48,11.48,7.28,19.24,20.51,27.47,15.21,9.47,26.09,10.33,36.97,2.9,14.31-9.75,28.44-6.68,26.6,5.76-1.11,7.44-7.63,10.86-13.62,7.12-4.03-2.51-5.72-2.42-10.37.65-3.07,2.01-5.58,4.1-5.58,4.66,0,2.9,13.6,13.09,19.59,14.66ZM302.45,405.35c17.82,13.99,36.25-5.85,25.21-27.15-4.36-8.46-12.58-11.87-28.65-11.87s-23.81-4.29-19.06-10c2.17-2.63,4.4-3.02,8.32-1.54,4.08,1.57,6.29,1.01,9.26-2.28,3.73-4.13,3.62-4.66-2.24-10.51-5.12-5.12-7.56-5.95-14.27-4.86-10.3,1.68-13.94,4.75-15.83,13.39-3.78,17.22,11.13,29.64,35.65,29.64,13.04,0,13.97.37,15.4,6.02,1.84,7.4-3.09,11.41-8.3,6.71-2.47-2.24-4.7-2.51-7.54-.92-5.72,3.2-5,7.84,2.03,13.39ZM404.22,653.84c5.44,4.26,10.62,3.53,15.95-2.3,4.7-5.12,8.41-22.47,4.82-22.47-1.01,0-1.84-1.18-1.84-2.63,0-4.7-7.88-8.76-17.29-8.85-5.07-.07-10.46-.9-11.98-1.87-3.92-2.49.3-8.39,4.77-6.68,1.98.76,5.28-.25,7.28-2.26,3.32-3.32,3.2-4.13-1.5-9.13-14.43-15.35-32.38,5.12-20.77,23.69,3.83,6.06,6.45,7.49,16.41,8.87,12.19,1.68,16.8,6.04,11.75,11.09-2.07,2.07-3.13,2.01-4.52-.23-1.01-1.66-3.55-2.28-5.74-1.45-4.59,1.77-3.11,9.68,2.65,14.22ZM584.22,772.21c6.91,5.6,12.93,5.51,18.69-.25,6.02-6.02,5.85-16.23-.32-24.11-4.63-5.88-5.9-6.22-20.17-5.49-14.31.74-15.28.46-15.97-4.4-.53-3.78.18-4.82,2.67-3.85,2.17.83,3.99-.53,5-3.71,1.77-5.58.07-7.91-7.4-10.16-6.52-1.96-14.52,5.67-14.52,13.85,0,14.54,11.45,22.33,29.64,20.19,9.75-1.15,12.01-.71,13.25,2.54,2.12,5.49-2.51,9.77-6.75,6.27-2.54-2.12-3.94-1.89-6.36,1.04-2.7,3.23-2.37,4.36,2.24,8.09Z"/>
  <path class="cls-11" d="M619.97,934.48c9.63,1.94,18.64,3.3,21.53,3.18l6.36-.23-5.76-1.84c-3.18-1.01-4.89-1.96-3.83-2.07,1.06-.14-.76-3.41-4.03-7.33-3.27-3.89-5.97-8.34-5.97-9.89s-4.63-7.33-10.28-12.88c-5.65-5.53-9.79-10.83-9.24-11.73.58-.92-.71-1.52-2.88-1.36-2.74.23-4.06-1.71-4.47-6.57-.32-3.8.14-5.76,1.04-4.36s3.62,1.84,6.04.99c3.25-1.18-.94-3.53-16.13-9.1-9.5-3.46-19.54-6.8-24.59-8.18,12.51,3.23,47.8,15.93,48.56,17.61.41.9,2.24,1.04,4.03.35,1.82-.71,3.32-.07,3.32,1.43,0,1.66,1.77,2.14,4.61,1.24,2.74-.88,4.61-.41,4.61,1.13,0,1.43.9,2.05,1.98,1.36,1.11-.67,9.15.25,17.86,2.05,8.73,1.8,21.59,3.87,28.56,4.59l12.68,1.31-9.86-4.56c-17.01-7.93-29.13-17.63-34.5-27.7-5.99-11.25-6.66-21.32-1.73-26.25,1.91-1.89,3.46-4.06,3.46-4.82s2.72-5.49,6.06-10.53c4.93-7.44,7.42-9.17,13.25-9.15,12.95.05,24.48,2.81,24.48,5.88,0,1.66,2.33,3.36,5.19,3.78,2.86.44,4.93,2.07,4.61,3.62-.32,1.57.46,2.83,1.73,2.83s2.3,2.54,2.3,5.62,1.06,6.27,2.35,7.08,1.77,2.37,1.06,3.5c-.69,1.13,1.77,3.6,5.46,5.51,3.69,1.91,7.33,5.88,8.04,8.78.74,2.93,3.23,7.38,5.53,9.89,6.57,7.17,14.43,21.66,14.43,26.62,0,2.49.94,6.31,2.07,8.5,7.91,15.21,16.62,35.65,15.63,36.64-9.26,9.24-90.94,6.41-143.54-4.93ZM449.93,864.07c5.46,3.69,10.72,7.08,15.69,10.07,13.74,8.44,27.86,16.13,42.36,23.05-38.33-18.14-73.38-41.35-107.01-70.59,1.04.9,2.1,1.77,3.13,2.65,14.89,12.7,30.12,24.29,45.82,34.8v.02Z"/>
  <path class="cls-10" d="M619.97,934.48c52.59,11.34,134.27,14.17,143.54,4.93.99-.99-7.72-21.43-15.63-36.64-1.13-2.19-2.07-6.02-2.07-8.5,0-4.96-7.86-19.45-14.43-26.62-2.3-2.51-4.79-6.96-5.53-9.89-.71-2.9-4.36-6.87-8.04-8.78-3.69-1.91-6.15-4.38-5.46-5.51.71-1.13.23-2.7-1.06-3.5s-2.35-3.99-2.35-7.08-1.04-5.62-2.3-5.62-2.05-1.27-1.73-2.83c.32-1.54-1.75-3.18-4.61-3.62-2.86-.41-5.19-2.12-5.19-3.78,0-1.43-2.49-2.77-6.43-3.83,7.84.9,18.11,2.26,31.71,4.03,5.67.74,17.08.23,25.35-1.15,8.27-1.38,23.35-3.69,33.49-5.14,10.14-1.43,27.26-5.23,38.03-8.39,25.4-7.49,29.43-8.41,26.2-6.04-1.43,1.06-2.47,4.52-2.3,7.7.23,4.31,1.75,5.95,6.06,6.5,3.18.41,6.98,2.33,8.48,4.26,1.5,1.94,3.85,2.83,5.19,2.01,1.36-.83,2.47-.99,2.47-.37s-4.59,4.45-10.19,8.46c-5.62,4.03-9.73,8.6-9.13,10.12,1.43,3.76-38.56,22.45-63.66,29.73-17.35,5.05-18.85,5.88-13.04,7.35,3.6.92,22.26,1.15,41.48.48,45.68-1.59,75.92-8.92,123.76-30.03,7.72-3.41,8.14-3.36,8.14.78,0,3.55-1.24,4.17-6.59,3.23-4.26-.76-6.06-.3-5.09,1.27.83,1.34.65,2.28-.41,2.1-4.24-.74-7.65.35-7.65,2.44,0,1.22,1.45,1.68,3.23.99,1.77-.67,3.92-.09,4.77,1.29.85,1.38.28,2.24-1.29,1.87-3.36-.74-6.22,8.73-4.84,16.09.62,3.25,2.63,5.19,5.42,5.19,2.44,0,7.58,2.33,11.41,5.16,6.59,4.89,7.14,4.93,9.31,1.06,2.12-3.8,2.63-3.69,6.78,1.59,2.49,3.16,4.22,7.05,3.87,8.67-.35,1.61,1.73,4.01,4.61,5.32,2.88,1.31,5.12,3.94,4.96,5.85-.55,6.43,3,13.83,6.66,13.83,2.9,0,2.74.65-.85,3.3-4.24,3.13-4.26,3.36-.3,4.91,2.79,1.08,5.72-.07,8.94-3.53,2.63-2.81,5.42-4.22,6.2-3.11s4.17,1.94,7.51,1.84c5.76-.16,5.9.12,2.72,4.98-3.66,5.58-14.34,13.37-16.02,11.66-.58-.58,2.24-3.8,6.25-7.19,4.03-3.36,6.71-6.75,5.97-7.49-1.8-1.77-14.38,13.28-13.69,16.39.92,4.19-38.44,30.54-68.73,45.98-25.63,13.07-67.2,28.3-98.32,36.02-7.38,1.84-10.99,4.54-9.36,5.92-3.62.09-7.47.12-11.73.07.92-.37,1.27-.85.92-1.43-1.8-2.93-10.46-2.93-14.98,0-.69.46-1.06.83-1.08,1.13-2.37-.07-4.89-.14-7.54-.21-55.77-1.61-58.93-1.77-61.67-3.57-1.27-.83-11.64-3.71-23.05-6.41-9.26-2.17-18.67-4.77-28.16-7.72,2.83.58,1.24-.67-2.95-3.96-5.05-3.94-18.44-6.5-18.44-3.53,0,.07.07.16.18.25-5.58-2.05-11.13-4.22-16.69-6.5,2.26.51,2.86-.18,3.64-1.48.69-1.11-1.8-2.63-5.53-3.39-3.76-.74-8.9-3.43-11.45-5.99s-6.2-4.01-8.14-3.27c-1.91.74-3.5.21-3.5-1.2s-2.33-2.58-5.19-2.6c-7.19-.05-10.42-2.65-9.63-7.74.51-3.23,0-3.66-1.94-1.73-6.27,6.27-7.28-.76-1.61-11.34,1.48-2.77,2.24-8.02,1.71-11.66-.53-3.66-.07-6.66,1.06-6.66s1.41-1.04.62-2.3c-.78-1.27-.07-2.4,1.59-2.49,2.44-.14,2.44-.41.05-1.38-2.28-.9-2.35-1.94-.32-4.4.16-.18.32-.37.46-.53.69-.83,1.2-1.41,1.15-1.96-.12-1.41-4.03-2.49-17.91-6.75-3.6-1.11-8.11-2.67-13.18-4.56,19.57,6.94,39.85,12.72,60.98,17.38,2.03.46,4.1.88,6.13,1.29ZM655.92,617.79c0,1.13-.25,1.94-.58,1.82-.32-.14-9.4-2.14-20.17-4.49-40.84-8.85-88.27-26.37-100.25-36.99-2.54-2.26-5.55-3.89-6.73-3.66-1.15.23-2.3-2.1-2.51-5.21-.23-3.11-1.64-6.04-3.09-6.52-1.48-.51-2.19-1.68-1.61-2.63s-1.98-1.73-5.72-1.73c-5.76,0-6.34.53-3.92,3.48,2.03,2.49,1.04,2.3-3.5-.65-6.87-4.47-8.25-6.5-3.09-4.52,1.96.76,3.85-.65,4.77-3.53,1.59-5,4.89-6.36,6.2-2.56.41,1.22,4.75,2.72,9.63,3.32,4.89.6,10.74,2.79,13.02,4.84,3.87,3.5,4.13,3.39,3.8-1.94-.18-3.13-1.11-5.21-2.05-4.63-.92.58-1.11-.51-.39-2.37.74-1.89,2.81-2.88,4.61-2.19,2.4.92,2.88.14,1.73-2.81-.94-2.44,5.32.99,15.53,8.53,30.05,22.17,83.73,54.97,89.98,54.97,1.11,0,2.03,1.04,2.03,2.3,0,2.9-1.5,2.9-6.94,0-2.9-1.57-4.79-1.54-5.76.05-.81,1.31-.62,2.17.44,1.94,3.53-.81,14.57,3.11,14.57,5.19ZM853.82,831.88c-.9,0-3.53.65-5.85,1.43-2.33.78-.76-1.04,3.48-4.03,6.75-4.79,25.26-18.64,34.73-25.97,2.77-2.14,2.83-1.73.44,2.77-1.54,2.9-5.3,6.22-8.32,7.38-3.04,1.18-9.4,5.78-14.17,10.28-4.77,4.49-9.4,8.16-10.3,8.16ZM866.8,804.75c5.07,3.73-2.6,1.24-9.22-2.97-7.49-4.79-8.94-9.29-3.46-10.79,2.93-.81,2.95-.6.18,1.34-2.56,1.77-1.77,2.47,3.46,3.07,4.1.46,6.73,2.1,6.73,4.22,0,1.91,1.04,4.22,2.3,5.14ZM1016.49,910.86c-.62,1.61-3.13,4.19-5.6,5.74-3.85,2.4-4.26,2.24-3.02-1.01,1.08-2.83.62-3.3-1.82-1.82-2.79,1.68-2.81,1.41-.12-1.94,3.71-4.56,12.24-5.35,10.56-.97ZM938.24,850.31c.92,1.5.65,3.73-.62,5-1.54,1.54-2.88,1.41-3.99-.39-.92-1.5-.65-3.73.62-5,1.54-1.54,2.88-1.41,3.99.39ZM586.78,960.94c0,1.27,1.04,2.3,2.3,2.3s2.3-1.04,2.3-2.3-1.04-2.3-2.3-2.3-2.3,1.04-2.3,2.3ZM596.37,986.29c2.17,1.04,4.15,2.01,5.97,2.86-16.71-7.67-33.07-16.32-48.65-25.7,10.6,6.36,29.71,16.59,42.68,22.84ZM651.56,830.06c-.16.39-.25.65-.25.78,0,.76-1.54,2.93-3.46,4.82-2.65,2.67-3.69,6.82-3.13,11.85-.6-4.91.23-8.97,2.56-11.43,1.13-1.2,2.81-3.6,4.29-6.02ZM488.32,887.31c-23.05-12.19-45.75-27.1-67.94-44.62,21.76,17.15,44.25,31.94,67.94,44.62ZM664.15,812.61c-2.14,1.31-4.1,3.66-6.78,7.7-1.01,1.54-1.98,3.07-2.83,4.47,1.71-2.95,4.01-6.45,5.76-8.78,1.18-1.54,2.12-2.67,3.85-3.39Z"/>
  <path class="cls-1" d="M1000.26,927.52c2.97-4.56,2.7-4.79-2.93-4.66-3.34.09-6.73-.74-7.51-1.84s-3.57.3-6.2,3.11c-3.23,3.46-6.15,4.61-8.94,3.53-3.96-1.54-3.94-1.77.3-4.91,3.6-2.65,3.76-3.3.85-3.3-3.66,0-7.21-7.4-6.66-13.83.16-1.91-2.07-4.54-4.96-5.85-2.88-1.31-4.96-3.71-4.61-5.32.35-1.61-1.38-5.51-3.87-8.67-4.15-5.28-4.66-5.39-6.78-1.59-2.17,3.87-2.72,3.83-9.31-1.06-3.83-2.83-8.97-5.16-11.41-5.16-2.79,0-4.79-1.94-5.42-5.19-1.38-7.35,1.48-16.82,4.84-16.09,1.57.37,2.14-.48,1.29-1.87-.85-1.38-3-1.96-4.77-1.29-1.77.69-3.23.23-3.23-.99,0-2.1,3.41-3.18,7.65-2.44,1.06.18,1.24-.76.41-2.1-.97-1.57.83-2.03,5.09-1.27,5.35.94,6.59.32,6.59-3.23,0-4.15-.41-4.19-8.14-.78-37.68,16.62-64.44,24.71-96.43,28.16,48.84-6.27,96.45-24.43,140.66-53.75,90.83-60.27,151.49-165.29,151.56-262.41.02-8.83,1.01-15.56,2.33-15.56,2.54,0,3.11-9.08.92-14.77-.78-2.01-2.33-3.07-3.46-2.37-1.15.71-2.07-1.8-2.07-5.58s-.62-8.76-1.36-11.09c-1.04-3.18-.83-3.43.85-1.08,1.91,2.65,2.42,2.65,3.36,0,1.43-4.03,7.63,16.52,12.54,41.69,5.51,28.12,5.37,96.84-.23,128.03-4.22,23.3-13.9,58.79-22.29,81.54-12.72,34.59-44.85,90.23-71.35,123.67-9.98,12.61-28.69,31.44-47.34,48.31ZM570.67,559.85c-3.18-2.24-6.22-4.43-9.06-6.5-10.21-7.54-16.48-10.97-15.53-8.53,1.15,2.95.67,3.73-1.73,2.81-1.8-.69-3.87.3-4.61,2.19-.71,1.87-.53,2.95.39,2.37.94-.58,1.87,1.5,2.05,4.63.32,5.32.07,5.44-3.8,1.94-2.28-2.05-8.14-4.24-13.02-4.84-4.89-.6-9.22-2.1-9.63-3.32-1.31-3.8-4.61-2.44-6.2,2.56-.92,2.88-2.81,4.29-4.77,3.53-5.16-1.98-3.78.05,3.09,4.52,4.54,2.95,5.53,3.13,3.5.65-2.42-2.95-1.84-3.48,3.92-3.48,3.73,0,6.29.78,5.72,1.73s.14,2.12,1.61,2.63c1.45.48,2.86,3.41,3.09,6.52.21,3.11,1.36,5.44,2.51,5.21,1.18-.23,4.19,1.41,6.73,3.66,1.43,1.27,3.36,2.63,5.74,4.06-43.72-22.4-68.2-46.53-86.47-83.34-15.51-31.23-18.41-44.71-18.14-84.12.12-18.39,1.22-37.57,2.42-42.64l2.21-9.22,5.12,21.89c11.32,48.4,35.22,89.79,76.35,132.22,15.4,15.88,31.09,29.82,48.51,42.87ZM406.67,844.23c-13.94-14.13-25.47-26.62-40.42-43.81-18.18-21-21.23-24.87-20.58-25.49.28-.3,7.19,6.04,16.78,15.3.78.83,1.59,1.68,2.42,2.56,9.91,10.53,22.54,22.29,36.11,33.81,6.41,5.58,12.88,10.95,19.41,16.09,22.19,17.52,44.9,32.43,67.94,44.62,6.48,3.46,13.02,6.75,19.66,9.89,14.54,6.96,29.48,13.14,44.87,18.62,5.07,1.89,9.59,3.46,13.18,4.56,13.87,4.26,17.79,5.35,17.91,6.75.05.55-.46,1.13-1.15,1.96-.14.16-.3.35-.46.53-2.03,2.47-1.96,3.5.32,4.4,2.4.97,2.4,1.24-.05,1.38-1.66.09-2.37,1.22-1.59,2.49.78,1.27.51,2.3-.62,2.3s-1.59,3-1.06,6.66c.53,3.64-.23,8.9-1.71,11.66-5.67,10.58-4.66,17.61,1.61,11.34,1.94-1.94,2.44-1.5,1.94,1.73-.78,5.09,2.44,7.7,9.63,7.74,2.86.02,5.19,1.2,5.19,2.6s1.59,1.94,3.5,1.2c1.94-.74,5.58.71,8.14,3.27s7.7,5.25,11.45,5.99c3.73.76,6.22,2.28,5.53,3.39-.78,1.29-1.38,1.98-3.64,1.48-6.25-2.56-12.47-5.28-18.64-8.11h0c-1.82-.88-3.8-1.82-5.97-2.86-12.98-6.25-32.08-16.48-42.68-22.84l-.25-.16c-10.56-6.36-20.26-11.55-21.69-11.57h-.02c-1.41,0-2.56-.78-2.58-1.73,0-.94-3.89-4.29-8.64-7.42-7.33-4.84-16.25-11.5-26.09-19.36-.32-.78-1.01-1.38-1.82-1.45-26.46-21.25-59.16-50.77-85.92-77.53ZM840.8,838.75c2.3-1.59,3.48-2.83,3.23-3.55-.6-1.52,3.5-6.08,9.13-10.12,5.6-4.01,10.19-7.84,10.19-8.46s-1.11-.46-2.47.37c-1.34.83-3.69-.07-5.19-2.01-1.5-1.94-5.3-3.85-8.48-4.26-4.31-.55-5.83-2.19-6.06-6.5-.16-3.18.88-6.64,2.3-7.7,3.23-2.37-.81-1.45-26.2,6.04-10.76,3.16-27.89,6.96-38.03,8.39-4.93.71-11.02,1.61-16.92,2.51,7.12-1.13,14.93-2.4,21.53-3.43,36.85-5.88,84.81-23.69,126.34-46.9,9.91-5.53,18.64-9.45,19.41-8.69,3.66,3.69-21.04,32.7-44.48,53.84.62-.74,1.15-1.5,1.52-2.21,2.4-4.49,2.33-4.91-.44-2.77-9.47,7.33-27.98,21.18-34.73,25.97-4.24,3-5.81,4.82-3.48,4.03,1.73-.58,3.62-1.08,4.84-1.31-3.78,2.24-7.81,4.49-12.01,6.75ZM866.8,804.75c-1.27-.92-2.3-3.23-2.3-5.14,0-2.12-2.63-3.76-6.73-4.22-5.23-.6-6.02-1.29-3.46-3.07,2.77-1.94,2.74-2.14-.18-1.34-5.49,1.5-4.03,5.99,3.46,10.79,6.61,4.22,14.29,6.71,9.22,2.97ZM655.92,617.79c0-2.07-11.04-5.99-14.57-5.19-1.06.23-1.24-.62-.44-1.94.97-1.59,2.86-1.61,5.76-.05,5.44,2.9,6.94,2.9,6.94,0,0-.18-.02-.37-.05-.53,6.78,3.8,11.57,6.98,11.57,7.79,0,1.64-2.63,2.07-9.36,1.18.09-.32.14-.76.14-1.27ZM655.92,1007.03c4.19,3.3,5.78,4.54,2.95,3.96-7.05-2.21-14.13-4.63-21.2-7.24-.12-.09-.18-.18-.18-.25,0-2.97,13.39-.41,18.44,3.53ZM1016.49,910.86c1.68-4.38-6.84-3.6-10.56.97-2.7,3.34-2.67,3.62.12,1.94,2.44-1.48,2.9-1.01,1.82,1.82-1.24,3.25-.83,3.41,3.02,1.01,2.47-1.54,4.98-4.13,5.6-5.74ZM795.35,1027.78c.35.58,0,1.06-.92,1.43-4.47-.05-9.43-.14-15.14-.3.02-.3.39-.67,1.08-1.13,4.52-2.93,13.18-2.93,14.98,0ZM978.94,945.89c2.49-2.24,3.8-3.85,3.62-4.68-.69-3.11,11.89-18.16,13.69-16.39.74.74-1.94,4.13-5.97,7.49-4.01,3.39-6.82,6.61-6.25,7.19.48.48,1.68.21,3.25-.58-2.83,2.42-5.62,4.75-8.34,6.96ZM938.24,850.31c-1.11-1.8-2.44-1.94-3.99-.39-1.27,1.27-1.54,3.5-.62,5,1.11,1.8,2.44,1.94,3.99.39,1.27-1.27,1.54-3.5.62-5ZM859.1,828.19c1.54-1.29,3.27-2.83,5.02-4.47,4.77-4.49,11.13-9.1,14.17-10.28.74-.28,1.5-.67,2.28-1.18-3.46,3-6.84,5.74-10.05,8.18-3.2,2.42-7.08,5.02-11.43,7.74ZM586.78,960.94c0-1.27,1.04-2.3,2.3-2.3s2.3,1.04,2.3,2.3-1.04,2.3-2.3,2.3-2.3-1.04-2.3-2.3ZM927.9,979.63c15.28-8.62,30.95-18.58,41.58-26.3-1.66,1.27-3.27,2.44-4.79,3.55-11.11,7.91-23.51,15.53-36.78,22.75ZM649.21,607.72c-4.82-1.8-15.03-7.38-27.33-14.73,7.67,4.36,15.74,8.69,24.25,13.09,1.06.55,2.1,1.08,3.09,1.64ZM774.75,872.95c-3.66-.14-6.29-.37-7.42-.67-5.81-1.48-4.31-2.3,13.04-7.35,4.06-1.18,8.48-2.65,13.07-4.31-4.63,1.75-8.94,3.2-12.74,4.29-17.61,4.98-20.49,7.21-5.95,8.04ZM616.33,610.56c-17.98-4.72-36.71-10.65-46.83-14.96-.78-.32-1.54-.67-2.3-.99,14.43,5.67,31.8,11.36,49.14,15.95ZM877.58,1003.12c-20.3,8.09-41.35,14.96-62.07,20.1,18.81-4.66,41.44-12.08,62.07-20.1Z"/>
  <path class="cls-7" d="M1132.37,509.47c-1.61-4.63-2.88-6.75-3.43-5.19-.94,2.65-1.45,2.65-3.36,0-1.68-2.35-1.89-2.1-.85,1.08.74,2.33,1.36,7.31,1.36,11.09s.92,6.29,2.07,5.58c1.13-.69,2.67.37,3.46,2.37,2.19,5.69,1.61,14.77-.92,14.77-1.31,0-2.3,6.73-2.33,15.56-.02,32.04-6.64,64.95-18.76,96.82,7.93-21.36,13.55-43.56,16.5-66.28,3.13-24.13,1.87-54.21-3.46-82.09-1.84-9.59-3.2-18.11-3.04-18.94.16-.83-.92-4.54-2.44-8.2-1.52-3.69-2.4-7.77-1.96-9.08,1.11-3.32,10.46,20.6,17.17,42.52ZM774.75,872.95c-14.54-.83-11.66-3.07,5.95-8.04,3.8-1.08,8.11-2.54,12.74-4.29,6.52-2.35,13.34-5.09,19.8-7.88-8.57,3.89-16.62,7.17-23.21,9.29-9.15,2.95-16.29,6.45-15.83,7.77.71,2.17,15.23,3.2,31.85,3.07-12.19.37-23.88.37-31.3.09ZM658.5,873.13c6.34,5.95,15.03,11.55,25.58,16.48l9.86,4.56-12.68-1.31c-3.04-.3-7.21-.88-11.66-1.57,10.99,1.06,9.15-2.6-3.96-12.03-2.56-1.84-4.96-3.92-7.14-6.13ZM1143.41,657.53c2.37-24.48,2.77-58.24,1.13-84.35,2.49,27.61,2.14,57.02-1.13,84.35ZM1023.86,779.49c-14.52,13.85-30.28,26.53-47.06,37.66-31.97,21.2-65.73,36.58-100.44,45.82,55.7-15.35,106.41-44.73,147.5-83.48ZM1098.42,799.84c-14.27,28.03-31.39,54.87-50.82,79.37,16.8-21.2,35.88-51.35,50.82-79.37ZM1129.21,723.72c3.32-11.52,6.43-23.51,8.87-34.32-2.44,11.41-5.39,22.89-8.87,34.32ZM646.49,854.95c-2.97-7.67-3.07-14.82.78-18.88-2.33,2.47-3.16,6.52-2.56,11.43.25,2.3.85,4.82,1.77,7.44ZM840.8,838.75c4.19-2.26,8.23-4.52,12.01-6.75l.12-.02c-4.29,2.58-8.85,5.16-13.55,7.72.51-.32.99-.65,1.43-.94Z"/>
</svg>